<svg width="48" height="48" viewBox="0 0 48 48" fill="none" xmlns="http://www.w3.org/2000/svg">
<g clip-path="url(#clip0_265_69)">
<path d="M11.3438 0V8.90625C11.3438 17.0932 16.6852 24.0534 24 26.6098C31.3147 24.0534 36.6562 17.0932 36.6562 8.90625V0H11.3438Z" fill="#D10225"/>
<path d="M10.738 18.3579C6.17559 14.5664 3.24412 8.99831 2.85647 2.8125H8.53125V0H0V1.40625C0 4.26712 0.482437 7.07231 1.434 9.74381C2.35369 12.3258 3.68972 14.7262 5.40497 16.8786C7.94353 20.064 11.243 22.5779 14.9425 24.1927C13.2245 22.4931 11.8028 20.519 10.738 18.3579Z" fill="#D10225"/>
<path d="M39.4687 0V2.8125H45.1435C44.7559 8.99831 41.8244 14.5664 37.262 18.3579C36.1972 20.5191 34.7755 22.4931 33.0574 24.1927C36.7569 22.5779 40.0564 20.064 42.5949 16.8786C44.3103 14.7262 45.6463 12.3258 46.5659 9.74381C47.5176 7.07231 48 4.26712 48 1.40625V0H39.4687Z" fill="#D10225"/>
<path d="M34.7812 45.1875V33.9375H26.8125V28.5056C26.2006 28.7856 25.5723 29.0397 24.9278 29.2649L24 29.5892L23.0722 29.2649C22.4277 29.0397 21.7994 28.7856 21.1875 28.5056V33.9375H13.2187V45.1875H10.4062V48H37.5937V45.1875H34.7812ZM28.2187 41.4375H19.7812V38.625H28.2187V41.4375Z" fill="#D10225"/>
</g>
<defs>
<clipPath id="clip0_265_69">
<rect width="48" height="48" fill="white"/>
</clipPath>
</defs>
</svg>
