<svg width="48" height="48" viewBox="0 0 48 48" fill="none" xmlns="http://www.w3.org/2000/svg">
<path d="M24 21.2873L20.4818 19.379L22.2752 32.5313H25.7247L27.5181 19.379L24 21.2873Z" fill="#D10225"/>
<path d="M24 0C14.6951 0 7.125 7.57013 7.125 16.875C7.125 19.5772 7.74525 22.1594 8.96841 24.5498C10.0437 26.6508 11.5746 28.5303 13.4168 30.017L13.7597 32.5312H19.4368L17.11 15.4688H19.1717L24 18.0877L28.8283 15.4688H30.89L28.5632 32.5312H34.2403L34.5832 30.0171C36.4254 28.5304 37.9563 26.6509 39.0316 24.5498C40.2548 22.1594 40.875 19.5772 40.875 16.875C40.875 7.57013 33.3049 0 24 0Z" fill="#D10225"/>
<path d="M4.3125 15.4688H0V18.2813H4.3125V15.4688Z" fill="#D10225"/>
<path d="M6.2459 25.5002L2.51135 27.6564L3.91756 30.0919L7.6521 27.9357L6.2459 25.5002Z" fill="#D10225"/>
<path d="M41.7529 25.5026L40.3467 27.9381L44.0812 30.0943L45.4874 27.6588L41.7529 25.5026Z" fill="#D10225"/>
<path d="M48 15.4688H43.6875V18.2813H48V15.4688Z" fill="#D10225"/>
<path d="M44.0801 3.65642L40.3456 5.81262L41.7518 8.24817L45.4863 6.09196L44.0801 3.65642Z" fill="#D10225"/>
<path d="M3.91829 3.65735L2.51208 6.0929L6.24663 8.2491L7.65283 5.81356L3.91829 3.65735Z" fill="#D10225"/>
<path d="M36.6562 35.3438H11.3438V38.1563H36.6562V35.3438Z" fill="#D10225"/>
<path d="M11.3438 40.9688V43.7812H15.3965L17.5058 48H30.4942L32.6035 43.7812H36.6562V40.9688H11.3438Z" fill="#D10225"/>
</svg>
