<svg width="48" height="49" viewBox="0 0 48 49" fill="none" xmlns="http://www.w3.org/2000/svg">
<g clip-path="url(#clip0_46_638)">
<path d="M24 21.7872L20.4818 19.8789L22.2752 33.0312H25.7247L27.5181 19.8789L24 21.7872Z" fill="#110F12"/>
<path d="M23.9999 0.5C14.6951 0.5 7.12494 8.07013 7.12494 17.375C7.12494 20.0772 7.74519 22.6594 8.96835 25.0498C10.0437 27.1508 11.5745 29.0303 13.4168 30.517L13.7596 33.0312H19.4368L17.11 15.9688H19.1716L23.9999 18.5877L28.8283 15.9688H30.8899L28.5631 33.0312H34.2403L34.5831 30.5171C36.4254 29.0304 37.9562 27.1509 39.0315 25.0498C40.2547 22.6594 40.8749 20.0772 40.8749 17.375C40.8749 8.07013 33.3048 0.5 23.9999 0.5Z" fill="#110F12"/>
<path d="M4.31244 15.9688H-6.10352e-05V18.7813H4.31244V15.9688Z" fill="#110F12"/>
<path d="M6.24584 26L2.51129 28.1562L3.91749 30.5918L7.65204 28.4356L6.24584 26Z" fill="#110F12"/>
<path d="M41.7529 26.0024L40.3467 28.438L44.0812 30.5942L45.4874 28.1586L41.7529 26.0024Z" fill="#110F12"/>
<path d="M47.9999 15.9688H43.6874V18.7813H47.9999V15.9688Z" fill="#110F12"/>
<path d="M44.0801 4.15654L40.3455 6.31274L41.7517 8.74829L45.4863 6.59209L44.0801 4.15654Z" fill="#110F12"/>
<path d="M3.91823 4.15723L2.51202 6.59277L6.24657 8.74898L7.65277 6.31343L3.91823 4.15723Z" fill="#110F12"/>
<path d="M36.6562 35.8438H11.3437V38.6563H36.6562V35.8438Z" fill="#110F12"/>
<path d="M11.3437 41.4688V44.2812H15.3964L17.5058 48.5H30.4941L32.6035 44.2812H36.6562V41.4688H11.3437Z" fill="#110F12"/>
</g>
<defs>
<clipPath id="clip0_46_638">
<rect width="48" height="48" fill="white" transform="translate(-6.10352e-05 0.5)"/>
</clipPath>
</defs>
</svg>
