<svg width="49" height="48" viewBox="0 0 49 48" fill="none" xmlns="http://www.w3.org/2000/svg">
<g clip-path="url(#clip0_265_87)">
<path d="M46.5438 4.71454L43.1314 5.20213L43.619 1.78973C43.831 0.306508 42.0244 -0.600054 40.9632 0.462133L34.7028 6.72257C34.4634 6.96201 34.308 7.27279 34.2601 7.60804L33.5514 12.5693L25.822 20.2987C25.2099 20.0058 24.5329 19.8283 23.8103 19.8283C21.2212 19.8283 19.115 21.9344 19.115 24.5235C19.115 27.1126 21.2212 29.2188 23.8103 29.2188C26.3994 29.2188 28.5056 27.1126 28.5056 24.5235C28.5056 23.8009 28.328 23.1239 28.0351 22.5118L35.7645 14.7824L40.7258 14.0737C41.061 14.0258 41.3717 13.8704 41.6112 13.631L47.8717 7.37057C48.9295 6.31241 48.0339 4.50576 46.5438 4.71454Z" fill="#D10225"/>
<path d="M36.5077 18.466L31.5493 23.4241C31.6003 23.7842 31.6358 24.1494 31.6358 24.5235C31.6358 28.8387 28.1255 32.349 23.8103 32.349C19.4951 32.349 15.9848 28.8387 15.9848 24.5235C15.9848 20.2082 19.495 16.698 23.8103 16.698C24.1843 16.698 24.5493 16.7334 24.9094 16.7844L29.8678 11.8261C28.0298 10.9456 25.9807 10.4376 23.8103 10.4376C16.0434 10.4376 9.72437 16.7567 9.72437 24.5236C9.72437 32.2905 16.0434 38.6095 23.8103 38.6095C31.5772 38.6095 37.8962 32.2905 37.8962 24.5236C37.8961 22.3531 37.3884 20.304 36.5077 18.466Z" fill="#D10225"/>
<path d="M45.0749 14.5934L43.8243 15.844C43.1111 16.5578 42.1675 17.0295 41.1685 17.1721L39.4716 17.4147C40.4608 19.5848 41.0264 21.9869 41.0264 24.5233C41.0264 34.0164 33.3032 41.7395 23.8102 41.7395C14.3172 41.7395 6.59406 34.0164 6.59406 24.5233C6.59406 15.0303 14.3173 7.30719 23.8102 7.30719C26.3466 7.30719 28.7488 7.87278 30.9189 8.86194L31.1613 7.16506C31.3039 6.16597 31.7758 5.22247 32.4895 4.50866L33.7397 3.2586C30.6556 1.81419 27.2934 1.04675 23.8101 1.04675C10.8649 1.04675 0.333618 11.5782 0.333618 24.5233C0.333618 37.4685 10.865 47.9999 23.8102 47.9999C36.7554 47.9999 47.2868 37.4685 47.2868 24.5233C47.2868 21.04 46.5194 17.6775 45.0749 14.5934Z" fill="#D10225"/>
</g>
<defs>
<clipPath id="clip0_265_87">
<rect width="48" height="48" fill="white" transform="translate(0.333313)"/>
</clipPath>
</defs>
</svg>
