<svg width="49" height="48" viewBox="0 0 49 48" fill="none" xmlns="http://www.w3.org/2000/svg">
<g clip-path="url(#clip0_101_133)">
<path d="M46.5438 4.71442L43.1314 5.20201L43.619 1.7896C43.831 0.306386 42.0244 -0.600176 40.9632 0.462011L34.7028 6.72245C34.4634 6.96188 34.308 7.27267 34.2601 7.60792L33.5514 12.5692L25.822 20.2986C25.2099 20.0057 24.5329 19.8281 23.8103 19.8281C21.2212 19.8281 19.115 21.9343 19.115 24.5234C19.115 27.1125 21.2212 29.2187 23.8103 29.2187C26.3994 29.2187 28.5056 27.1125 28.5056 24.5234C28.5056 23.8008 28.328 23.1238 28.0351 22.5117L35.7645 14.7823L40.7258 14.0736C41.061 14.0257 41.3717 13.8703 41.6112 13.6309L47.8717 7.37045C48.9295 6.31229 48.0339 4.50563 46.5438 4.71442Z" fill="#110F12"/>
<path d="M36.5077 18.4659L31.5492 23.4239C31.6002 23.7841 31.6358 24.1493 31.6358 24.5233C31.6358 28.8386 28.1255 32.3488 23.8103 32.3488C19.4951 32.3488 15.9848 28.8386 15.9848 24.5233C15.9848 20.2081 19.495 16.6978 23.8103 16.6978C24.1842 16.6978 24.5493 16.7333 24.9094 16.7843L29.8677 11.8259C28.0298 10.9454 25.9807 10.4375 23.8103 10.4375C16.0434 10.4375 9.72433 16.7565 9.72433 24.5234C9.72433 32.2903 16.0434 38.6094 23.8103 38.6094C31.5772 38.6094 37.8962 32.2903 37.8962 24.5234C37.8961 22.3529 37.3884 20.3038 36.5077 18.4659Z" fill="#110F12"/>
<path d="M45.0748 14.5936L43.8243 15.8441C43.1111 16.5579 42.1675 17.0297 41.1685 17.1722L39.4716 17.4148C40.4607 19.5849 41.0263 21.9871 41.0263 24.5235C41.0263 34.0165 33.3032 41.7396 23.8102 41.7396C14.3171 41.7396 6.59402 34.0165 6.59402 24.5235C6.59402 15.0304 14.3172 7.30731 23.8102 7.30731C26.3466 7.30731 28.7487 7.87291 30.9189 8.86206L31.1613 7.16519C31.3039 6.16609 31.7757 5.22259 32.4895 4.50878L33.7397 3.25872C30.6556 1.81431 27.2934 1.04688 23.8101 1.04688C10.8649 1.04688 0.333588 11.5783 0.333588 24.5235C0.333588 37.4687 10.865 48.0001 23.8102 48.0001C36.7554 48.0001 47.2868 37.4687 47.2868 24.5235C47.2868 21.0401 46.5193 17.6777 45.0748 14.5936Z" fill="#110F12"/>
</g>
<defs>
<clipPath id="clip0_101_133">
<rect width="48" height="48" fill="white" transform="translate(0.333313)"/>
</clipPath>
</defs>
</svg>
