<svg width="49" height="48" viewBox="0 0 49 48" fill="none" xmlns="http://www.w3.org/2000/svg">
<path d="M37.4092 39.03C36.0367 41.25 33.7867 42.4275 31.7542 43.2975C29.5192 44.25 27.1192 44.94 24.6742 44.97H24.6667C22.2217 44.94 19.8217 44.25 17.5867 43.2975C15.5542 42.4275 13.3042 41.25 11.9317 39.03C11.1217 37.695 10.7167 36.1125 10.7992 34.5675C10.9267 32.385 11.9917 30.4725 13.6492 29.4525C15.3592 28.4025 17.4142 28.4775 19.3042 28.875C21.0817 29.2575 22.8292 30.24 24.6667 30.3075H24.6742C26.5117 30.24 28.2592 29.2575 30.0367 28.875C31.9267 28.4775 33.9817 28.4025 35.6917 29.4525C37.3492 30.4725 38.4142 32.385 38.5417 34.5675C38.6242 36.1125 38.2192 37.695 37.4092 39.03Z" fill="#D10225"/>
<path d="M15.8917 25.665C15.3742 24.4875 15.0892 23.1825 15.0892 21.8175C15.0892 20.4525 15.3592 19.2 15.8767 18.0075C15.2767 17.8875 14.6617 17.6775 14.0092 17.445L13.9192 17.415C12.8242 17.0475 11.5717 16.62 10.1467 16.5375C8.8642 16.455 7.6567 16.74 6.6667 17.3475C5.1442 18.3 4.1692 20.0475 4.0567 22.035C3.9817 23.46 4.3492 24.9 5.0842 26.1C6.1567 27.8475 7.7992 28.8675 9.3892 29.6025C10.0867 28.5225 11.0092 27.6 12.1042 26.9325C13.2217 26.2425 14.5192 25.8075 15.8842 25.6575L15.8917 25.665Z" fill="#D10225"/>
<path d="M33.4418 25.665C33.9593 24.4875 34.2443 23.1825 34.2443 21.8175C34.2443 20.4525 33.9743 19.2 33.4568 18.0075C34.0568 17.8875 34.6718 17.6775 35.3243 17.445L35.4143 17.415C36.5093 17.0475 37.7618 16.62 39.1868 16.5375C40.4693 16.455 41.6768 16.74 42.6668 17.3475C44.1893 18.3 45.1643 20.0475 45.2768 22.035C45.3518 23.46 44.9843 24.9 44.2493 26.1C43.1768 27.8475 41.5343 28.8675 39.9443 29.6025C39.2468 28.5225 38.3243 27.6 37.2293 26.9325C36.1118 26.2425 34.8143 25.8075 33.4493 25.6575L33.4418 25.665Z" fill="#D10225"/>
<path d="M24.6667 27.75C28.3947 27.75 31.4167 24.7279 31.4167 21C31.4167 17.2721 28.3947 14.25 24.6667 14.25C20.9388 14.25 17.9167 17.2721 17.9167 21C17.9167 24.7279 20.9388 27.75 24.6667 27.75Z" fill="#D10225"/>
<path d="M16.5743 15.2175C19.9294 15.2175 22.6493 12.4976 22.6493 9.1425C22.6493 5.78737 19.9294 3.0675 16.5743 3.0675C13.2191 3.0675 10.4993 5.78737 10.4993 9.1425C10.4993 12.4976 13.2191 15.2175 16.5743 15.2175Z" fill="#D10225"/>
<path d="M32.7668 15.2175C36.1219 15.2175 38.8418 12.4976 38.8418 9.1425C38.8418 5.78737 36.1219 3.0675 32.7668 3.0675C29.4116 3.0675 26.6918 5.78737 26.6918 9.1425C26.6918 12.4976 29.4116 15.2175 32.7668 15.2175Z" fill="#D10225"/>
</svg>
