<svg width="49" height="48" viewBox="0 0 49 48" fill="none" xmlns="http://www.w3.org/2000/svg">
<path d="M37.4091 39.03C36.0366 41.25 33.7866 42.4275 31.7541 43.2975C29.5191 44.25 27.1191 44.94 24.6741 44.97H24.6666C22.2216 44.94 19.8216 44.25 17.5866 43.2975C15.5541 42.4275 13.3041 41.25 11.9316 39.03C11.1216 37.695 10.7166 36.1125 10.7991 34.5675C10.9266 32.385 11.9916 30.4725 13.6491 29.4525C15.3591 28.4025 17.4141 28.4775 19.3041 28.875C21.0816 29.2575 22.8291 30.24 24.6666 30.3075H24.6741C26.5116 30.24 28.2591 29.2575 30.0366 28.875C31.9266 28.4775 33.9816 28.4025 35.6916 29.4525C37.3491 30.4725 38.4141 32.385 38.5416 34.5675C38.6241 36.1125 38.2191 37.695 37.4091 39.03Z" fill="black"/>
<path d="M15.8916 25.6649C15.3741 24.4874 15.0891 23.1824 15.0891 21.8174C15.0891 20.4524 15.3591 19.1999 15.8766 18.0074C15.2766 17.8874 14.6616 17.6774 14.0091 17.4449L13.9191 17.4149C12.8241 17.0474 11.5716 16.6199 10.1466 16.5374C8.86414 16.4549 7.65664 16.7399 6.66664 17.3474C5.14414 18.2999 4.16914 20.0474 4.05664 22.0349C3.98164 23.4599 4.34914 24.8999 5.08414 26.0999C6.15664 27.8474 7.79914 28.8674 9.38914 29.6024C10.0866 28.5224 11.0091 27.5999 12.1041 26.9324C13.2216 26.2424 14.5191 25.8074 15.8841 25.6574L15.8916 25.6649Z" fill="black"/>
<path d="M33.4417 25.6649C33.9592 24.4874 34.2442 23.1824 34.2442 21.8174C34.2442 20.4524 33.9742 19.1999 33.4567 18.0074C34.0567 17.8874 34.6716 17.6774 35.3241 17.4449L35.4142 17.4149C36.5092 17.0474 37.7617 16.6199 39.1867 16.5374C40.4692 16.4549 41.6767 16.7399 42.6667 17.3474C44.1892 18.2999 45.1642 20.0474 45.2767 22.0349C45.3517 23.4599 44.9842 24.8999 44.2492 26.0999C43.1767 27.8474 41.5341 28.8674 39.9441 29.6024C39.2466 28.5224 38.3242 27.5999 37.2292 26.9324C36.1116 26.2424 34.8141 25.8074 33.4491 25.6574L33.4417 25.6649Z" fill="black"/>
<path d="M24.6666 27.75C28.3945 27.75 31.4166 24.7279 31.4166 21C31.4166 17.2721 28.3945 14.25 24.6666 14.25C20.9387 14.25 17.9166 17.2721 17.9166 21C17.9166 24.7279 20.9387 27.75 24.6666 27.75Z" fill="black"/>
<path d="M16.5741 15.2174C19.9293 15.2174 22.6491 12.4975 22.6491 9.14238C22.6491 5.78725 19.9293 3.06738 16.5741 3.06738C13.219 3.06738 10.4991 5.78725 10.4991 9.14238C10.4991 12.4975 13.219 15.2174 16.5741 15.2174Z" fill="black"/>
<path d="M32.7666 15.2174C36.1218 15.2174 38.8417 12.4975 38.8417 9.14238C38.8417 5.78725 36.1218 3.06738 32.7666 3.06738C29.4115 3.06738 26.6917 5.78725 26.6917 9.14238C26.6917 12.4975 29.4115 15.2174 32.7666 15.2174Z" fill="black"/>
</svg>
