<svg width="432" height="176" viewBox="0 0 432 176" fill="none" xmlns="http://www.w3.org/2000/svg">
<g clip-path="url(#clip0_31_896)">
<path d="M0 49.6547V0.5H19.6184V49.6547H39.2367V0.5H58.8551V49.6547L29.4276 79.1475L0 49.6547Z" fill="black"/>
<path d="M68.6643 79.1475V0.5H88.2827V79.1475H68.6643Z" fill="black"/>
<path d="M186.375 79.1475V20.1619H166.756V0.5H225.611V20.1619H205.993V79.1475H186.375Z" fill="black"/>
<path d="M235.42 79.1475V0.5H255.039V59.4856H274.657V0.5H294.276V79.1475H235.42Z" fill="black"/>
<path d="M304.091 79.1475V0.5H362.946V79.1475H343.328V49.6547H323.71V79.1475H304.091ZM343.328 29.9928V20.1619H323.71V29.9928H343.328Z" fill="black"/>
<path d="M372.756 79.1475V0.5H392.374V59.4856H431.611V79.1475H372.756Z" fill="black"/>
<path d="M29.4276 107.939L18.365 96.8524H0V175.5H19.6184V146.007H39.2367V175.5H58.8617V146.007L53.9538 141.095L58.8089 136.176H58.8683V96.8524H40.4967L29.4342 107.939H29.4276ZM39.2367 126.345H19.6184V116.514H39.2367V126.345Z" fill="black"/>
<path d="M88.2893 96.8524H68.6643V175.5H88.2893V96.8524Z" fill="black"/>
<path d="M166.756 175.5H186.375V146.007H206V175.5H225.618V96.8524H166.763V175.5H166.756ZM186.375 116.514H206V126.345H186.375V116.514Z" fill="black"/>
<path d="M255.039 155.831V96.8524H235.427V175.5H294.282V155.831H255.039Z" fill="black"/>
<path d="M143.879 153.399C143.813 155.078 143.793 157.98 143.813 159.666C143.82 159.818 143.754 159.957 143.648 160.063L128.074 174.971C127.764 175.269 127.275 175.269 126.965 174.964L111.331 159.778C111.219 159.673 111.153 159.521 111.153 159.362C111.147 157.821 111.1 155.276 111.127 153.67C111.127 153.551 111.246 153.465 111.358 153.511L114.366 155.891C114.425 155.911 114.465 155.964 114.478 156.023C114.682 157.722 115.52 159.699 116.107 161.894L116.246 161.881L116.305 156.512C116.305 156.46 116.358 156.427 116.411 156.446L119.386 157.617L120.844 166.661H120.857L121.596 158.674C121.609 158.582 121.701 158.529 121.78 158.562L126.075 160.254C126.147 160.281 126.2 160.347 126.207 160.426C126.629 164.353 127.045 169.563 127.407 171.533C127.592 172.029 128.179 165.153 128.74 160.334L132.817 158.721C132.935 158.674 133.067 158.754 133.08 158.879C133.305 161.14 133.714 165.603 133.753 166.648C133.753 166.661 133.773 166.661 133.78 166.648L135.515 157.656L138.364 156.532C138.47 156.493 138.589 156.559 138.608 156.671V161.841C138.813 161.861 140.383 157.035 140.363 156.162C140.363 156.069 140.389 155.99 140.455 155.937L143.708 153.299C143.807 153.26 143.879 153.299 143.879 153.399Z" fill="black"/>
<path d="M122.605 142.153C123.139 142.794 123.654 143.012 124.287 142.867C125.125 142.668 125.534 142.06 125.738 141.267C124.986 142.344 124.05 142.834 122.598 142.153H122.605Z" fill="black"/>
<path d="M129.004 141.062C129.215 142.113 129.894 142.821 130.739 142.933C131.253 142.999 131.768 142.748 132.025 142.272C130.659 142.847 129.756 142.232 129.004 141.069V141.062Z" fill="black"/>
<path d="M151.419 142.721C153.372 141.551 155.239 140.328 156.921 138.867V146.007L146.023 156.929C146.142 155.924 146.26 154.912 146.379 153.908C146.498 152.85 146.683 151.799 146.716 150.741C146.755 149.597 146.604 148.453 146.61 147.316C146.617 146.715 146.709 146.093 146.9 145.524C147.514 143.706 148.668 142.239 150.067 140.956C150.172 140.857 150.298 140.778 150.456 140.659C150.792 141.379 151.102 142.047 151.419 142.721Z" fill="black"/>
<path d="M108.158 151.283C108.35 153.101 108.561 154.926 108.778 156.744L98.0655 146.007V138.92C99.431 140.084 100.909 141.115 102.439 142.08C102.742 142.272 103.066 142.457 103.389 142.655C103.732 141.935 104.035 141.287 104.326 140.665C104.425 140.665 104.451 140.659 104.464 140.665C104.517 140.692 104.57 140.718 104.616 140.758C106.859 142.84 108.6 145.148 108.251 148.453C108.158 149.392 108.059 150.351 108.158 151.283Z" fill="black"/>
<path d="M156.921 39.8238V0.5H98.0655V92.9452C98.4943 92.3105 98.9362 91.6891 99.4178 91.0808C102.921 86.5786 107.327 83.2465 112.611 81.0648C112.776 80.9987 112.941 80.9392 113.112 80.8797C113.139 80.8731 113.185 80.8929 113.323 80.9259C108.026 83.4977 103.904 87.2794 100.915 92.2378C99.7476 94.1749 98.7911 96.1781 98.0655 98.2541V106.796C101.469 103.808 106.239 102.895 110.632 104.482C113.871 105.652 116.496 107.695 118.878 110.101C119.801 111.034 120.646 112.039 121.47 113.057C119.94 112.105 118.423 111.126 116.872 110.214C114.405 108.766 111.833 107.609 108.963 107.166C104.966 106.551 100.876 107.953 98.0655 110.729V120.514C98.1183 120.342 98.171 120.177 98.2172 120.005C98.1908 124.362 99.3716 128.415 100.909 132.447C100.229 131.998 99.5563 131.542 98.8241 131.053C98.5734 131.416 98.3162 131.773 98.0655 132.13V134.834C98.9824 135.892 100.064 136.791 101.192 137.624C101.522 137.869 101.872 138.087 102.241 138.338C103.488 136.308 105.229 134.999 107.505 134.457C109.194 134.054 110.83 134.233 112.42 134.96C115.395 136.315 116.49 139.667 116.239 142.259C114.88 137.016 109.036 135.826 106.041 138.226C106.338 138.49 106.621 138.748 106.912 139.006C109.022 140.844 110.56 143.045 111.094 145.835C111.206 146.424 111.127 147.045 111.127 147.653C111.127 148.916 111.1 150.179 111.127 151.435C111.133 151.699 111.265 152.037 111.45 152.209C112.347 153.042 113.271 153.828 114.26 154.688C114.353 154.767 114.491 154.721 114.524 154.608C115.111 152.367 115.678 150.205 116.252 148.037L116.391 148.057C116.391 150.119 116.417 152.175 116.378 154.232C116.378 154.807 116.516 155.111 117.084 155.322C117.915 155.633 118.7 156.056 119.59 156.466C120.21 153.683 120.817 150.946 121.424 148.209C121.457 148.209 121.49 148.209 121.523 148.202C121.543 148.334 121.569 148.467 121.576 148.599C121.681 151.157 121.787 153.716 121.873 156.281C121.886 156.605 121.978 156.764 122.308 156.856C123.561 157.207 124.802 157.59 126.128 157.993C126.543 154.648 126.952 151.362 127.361 148.083H127.506C127.915 151.329 128.318 154.575 128.733 157.855C130.046 157.498 131.326 157.16 132.586 156.777C132.724 156.737 132.869 156.44 132.882 156.255C133.021 153.617 133.133 150.979 133.258 148.341C133.258 148.248 133.272 148.156 133.371 148.05C133.951 150.833 134.538 153.617 135.145 156.499C136.181 156.023 137.17 155.593 138.127 155.117C138.186 155.084 138.232 155.012 138.272 154.919C138.318 154.794 138.338 154.635 138.345 154.509C138.391 152.579 138.424 150.648 138.457 148.718C138.457 148.519 138.457 148.328 138.595 148.11C139.143 150.205 139.69 152.301 140.258 154.476C140.304 154.661 140.535 154.727 140.68 154.602C141.643 153.729 142.56 152.916 143.444 152.07C143.589 151.937 143.648 151.647 143.648 151.428C143.675 150.185 143.78 148.936 143.648 147.706C143.431 145.683 144.117 143.951 145.093 142.272C146.003 140.698 147.257 139.422 148.668 138.285C146.267 136.097 140.066 136.573 138.503 142.265C138.298 139.403 139.532 136.004 142.843 134.715C145.759 133.585 150.139 134.49 152.606 138.331C154.038 137.353 155.384 136.269 156.545 134.986C156.683 134.828 156.808 134.689 156.921 134.57V132.362C156.861 132.282 156.802 132.196 156.729 132.097C156.512 131.773 156.268 131.462 156.01 131.112C155.232 131.634 154.486 132.137 153.734 132.633C155.417 128.573 156.525 124.408 156.604 119.965C156.71 120.289 156.815 120.62 156.921 120.944V110.948C153.754 107.702 148.945 106.333 144.308 107.516C141.32 108.277 138.655 109.738 136.069 111.344C135.178 111.893 134.321 112.481 133.331 113.123C133.404 112.951 133.417 112.885 133.45 112.838C135.805 110.082 138.325 107.523 141.504 105.672C146.557 102.717 152.62 103.206 156.921 106.902V98.8821C154.823 92.4361 150.119 85.177 141.333 80.7541C141.59 80.8466 141.854 80.9193 142.098 81.0317C148.371 83.7622 153.358 87.7422 156.921 93.0312V49.6547L152.019 44.7425L156.868 39.8238H156.921ZM112.44 129.829C112.294 129.829 112.143 129.816 111.984 129.763C113.706 129.334 115.085 128.349 116.431 127.119C111.232 128.56 107.314 126.471 103.778 122.967C104.207 123.76 104.59 124.58 105.084 125.327C105.579 126.068 106.193 126.735 106.727 127.41C103.217 125.446 99.464 120.336 101.298 113.473C100.691 114.114 100.077 114.756 99.4508 115.41C99.5827 114.604 100.526 113.169 101.43 112.448C103.574 110.723 106.008 110.452 108.594 111.1C110.672 111.622 112.38 112.852 114.069 114.095C114.828 114.657 115.573 115.245 116.338 115.807C118.911 117.704 121.655 118.742 124.934 117.394C124.531 118.438 123.904 119.185 123.047 119.694C122.559 119.979 122.4 120.329 122.348 120.858C121.833 125.737 117.354 129.783 112.44 129.829ZM127.018 129.75C126.979 132.527 126.946 135.304 126.794 138.074C126.721 139.257 126.444 140.454 126.081 141.584C125.653 142.926 124.63 143.587 123.443 143.581C122.473 143.581 121.807 143.059 121.325 142.292C120.481 140.936 120.461 139.462 120.745 137.948C121.061 136.223 121.813 134.656 122.598 133.109C124.406 129.552 125.765 125.823 126.946 122.022C126.965 121.969 126.992 121.922 127.025 121.863C127.025 124.521 127.051 127.139 127.018 129.75ZM134.156 140.189C134.05 140.996 133.733 141.835 133.311 142.536C132.539 143.806 130.831 143.964 129.703 142.999C128.905 142.318 128.483 141.406 128.397 140.421C128.186 137.908 128.014 135.396 127.935 132.884C127.829 129.4 127.823 125.916 127.777 122.431C127.77 122.246 127.777 122.061 127.777 121.869C127.81 121.869 127.849 121.863 127.882 121.863C128.192 122.828 128.483 123.8 128.799 124.765C129.914 128.117 131.372 131.324 132.909 134.497C133.773 136.289 134.426 138.166 134.156 140.189ZM137.315 116.6C139.235 115.357 141.01 113.896 142.909 112.614C145.475 110.888 148.259 110.227 151.294 111.252C153.292 111.926 154.625 113.295 155.463 115.192C155.502 115.271 155.509 115.371 155.522 115.417C154.922 114.828 154.308 114.227 153.695 113.632C154.434 116.891 154.143 119.979 152.56 122.901C151.485 124.871 149.46 126.874 147.817 127.641C149.209 126.345 150.278 124.838 150.898 123.04C147.487 126.504 143.609 128.534 138.602 127.178C139.09 127.958 140.323 128.745 142.672 129.743C142.144 129.922 141.043 129.849 139.987 129.558C135.943 128.448 132.784 124.679 132.375 120.508C132.355 120.283 132.157 120.012 131.959 119.886C131.042 119.284 130.349 118.511 129.881 117.447C130.013 117.466 130.086 117.46 130.151 117.486C132.704 118.518 135.106 118.028 137.315 116.6ZM137.302 29.9928H117.684V20.1619H137.302V29.9928Z" fill="black"/>
<path d="M127.823 61.0921L131.286 64.563C131.55 64.8275 131.985 64.8275 132.256 64.563C132.526 64.2986 132.52 63.8622 132.256 63.5912L128.793 60.1203L132.256 56.6494C132.52 56.3849 132.52 55.9486 132.256 55.6775C131.992 55.4064 131.557 55.4131 131.286 55.6775L127.823 59.1484L124.36 55.6775C124.096 55.4131 123.66 55.4131 123.39 55.6775C123.258 55.8097 123.192 55.9882 123.192 56.1601C123.192 56.332 123.258 56.5105 123.39 56.6428L126.853 60.1137L123.39 63.5846C123.258 63.7168 123.192 63.8953 123.192 64.0672C123.192 64.2391 123.258 64.4176 123.39 64.5498C123.654 64.8143 124.089 64.8143 124.36 64.5498L127.823 61.0789V61.0921Z" fill="#94011A"/>
<path d="M123.179 44.1541C123.179 41.6815 125.184 39.6651 127.658 39.6651C130.132 39.6651 132.131 41.6749 132.131 44.1541C132.131 46.6334 130.125 48.6432 127.658 48.6432C125.191 48.6432 123.179 46.6334 123.179 44.1541ZM130.765 44.1541C130.765 42.4352 129.373 41.0402 127.658 41.0402C125.943 41.0402 124.551 42.4352 124.551 44.1541C124.551 45.8731 125.943 47.268 127.658 47.268C129.373 47.268 130.765 45.8731 130.765 44.1541Z" fill="#94011A"/>
<path d="M122.862 97.1368V89.362C122.862 88.9455 123.199 88.6083 123.614 88.6083H131.372C131.787 88.6083 132.124 88.9455 132.124 89.362V97.1368C132.124 97.5533 131.787 97.8905 131.372 97.8905H123.614C123.199 97.8905 122.862 97.5533 122.862 97.1368ZM124.228 90.7371V95.7749C124.228 96.1914 124.564 96.5286 124.98 96.5286H130.006C130.422 96.5286 130.758 96.1914 130.758 95.7749V90.7371C130.758 90.3206 130.422 89.9834 130.006 89.9834H124.98C124.564 89.9834 124.228 90.3206 124.228 90.7371Z" fill="#94011A"/>
<path d="M131.359 81.7722L123.621 81.7391C123.238 81.7391 122.889 81.5408 122.691 81.2102C122.493 80.8797 122.473 80.483 122.651 80.1392L126.682 72.2123C126.873 71.8355 127.275 71.5842 127.678 71.6107C128.1 71.6173 128.476 71.8619 128.654 72.2454L132.355 80.2053C132.513 80.5491 132.487 80.9458 132.282 81.2631C132.078 81.5805 131.735 81.7722 131.359 81.7722ZM124.069 80.364L130.937 80.397L127.651 73.323L124.069 80.364Z" fill="#94011A"/>
<path d="M430.047 88.6611H306.051C304.969 88.6611 304.091 89.5402 304.091 90.6247V111.199C304.091 112.283 304.969 113.162 306.051 113.162H430.047C431.129 113.162 432.007 112.283 432.007 111.199V90.6247C432.007 89.5402 431.129 88.6611 430.047 88.6611Z" fill="black"/>
<path d="M309.382 96.8459H312.212C313.05 96.8459 313.802 97.0112 314.474 97.3418C315.147 97.6724 315.675 98.1418 316.064 98.7566C316.453 99.3714 316.645 100.085 316.645 100.899C316.645 101.712 316.453 102.419 316.064 103.041C315.682 103.662 315.147 104.145 314.474 104.482C313.802 104.826 313.05 104.991 312.212 104.991H309.382V96.8526V96.8459ZM312.199 103.074C312.865 103.074 313.406 102.882 313.835 102.485C314.263 102.095 314.474 101.56 314.474 100.885C314.474 100.211 314.263 99.669 313.841 99.3053C313.419 98.9417 312.872 98.7632 312.199 98.7632H311.499V103.067H312.199V103.074Z" fill="#730114"/>
<path d="M317.977 96.8459H323.617V98.7566H320.095V99.8805H322.608V101.659H320.095V103.08H323.763V104.991H317.977V96.8526V96.8459Z" fill="#730114"/>
<path d="M325.201 96.8459H330.715V98.7566H327.318V100.31H330.076V102.221H327.318V104.984H325.201V96.8459Z" fill="#730114"/>
<path d="M331.995 96.8459H334.113V104.984H331.995V96.8459Z" fill="#730114"/>
<path d="M343.058 96.8459V105.136H342.378L337.972 100.859V104.991H335.854V96.7004H336.534L340.94 100.918V96.8459H343.058Z" fill="#730114"/>
<path d="M344.806 96.8459H346.923V104.984H344.806V96.8459Z" fill="#730114"/>
<path d="M350.42 98.7566H347.985V96.8459H354.978V98.7566H352.544V104.984H350.426V98.7566H350.42Z" fill="#730114"/>
<path d="M356.033 96.8459H358.151V104.984H356.033V96.8459Z" fill="#730114"/>
<path d="M367.168 96.8459L363.474 105.136H362.795L359.101 96.8459H361.502L363.138 100.839L364.761 96.8459H367.162H367.168Z" fill="#730114"/>
<path d="M368.131 96.8459H373.772V98.7566H370.249V99.8805H372.762V101.659H370.249V103.08H373.917V104.991H368.131V96.8526V96.8459Z" fill="#730114"/>
<path d="M378.924 96.8459H384.564V98.7566H381.041V99.8805H383.554V101.659H381.041V103.08H384.709V104.991H378.924V96.8526V96.8459Z" fill="#730114"/>
<path d="M386.153 96.8459H388.983C389.821 96.8459 390.573 97.0112 391.246 97.3418C391.919 97.6724 392.447 98.1418 392.836 98.7566C393.225 99.3714 393.416 100.085 393.416 100.899C393.416 101.712 393.225 102.419 392.836 103.041C392.453 103.662 391.919 104.145 391.246 104.482C390.573 104.826 389.821 104.991 388.983 104.991H386.153V96.8526V96.8459ZM388.97 103.074C389.636 103.074 390.177 102.882 390.606 102.485C391.035 102.095 391.246 101.56 391.246 100.885C391.246 100.211 391.035 99.669 390.613 99.3053C390.191 98.9417 389.643 98.7632 388.97 98.7632H388.271V103.067H388.97V103.074Z" fill="#730114"/>
<path d="M394.742 96.8459H396.86V104.984H394.742V96.8459Z" fill="#730114"/>
<path d="M400.356 98.7566H397.922V96.8459H404.914V98.7566H402.48V104.984H400.363V98.7566H400.356Z" fill="#730114"/>
<path d="M405.97 96.8459H408.087V104.984H405.97V96.8459Z" fill="#730114"/>
<path d="M413.78 105.13C412.982 105.13 412.25 104.945 411.583 104.574C410.917 104.204 410.383 103.702 409.994 103.06C409.604 102.419 409.407 101.705 409.407 100.912C409.407 100.118 409.604 99.4177 409.994 98.7698C410.383 98.1219 410.911 97.6128 411.583 97.2492C412.25 96.879 412.982 96.6938 413.78 96.6938C414.578 96.6938 415.311 96.879 415.983 97.2492C416.656 97.6194 417.191 98.1285 417.586 98.7698C417.982 99.4177 418.18 100.132 418.18 100.912C418.18 101.692 417.982 102.419 417.586 103.06C417.191 103.702 416.656 104.211 415.983 104.574C415.311 104.945 414.578 105.13 413.78 105.13ZM414.928 102.902C415.264 102.71 415.528 102.446 415.72 102.108C415.911 101.765 416.01 101.368 416.01 100.918C416.01 100.469 415.911 100.079 415.72 99.735C415.528 99.3912 415.264 99.1202 414.928 98.9351C414.592 98.7499 414.216 98.6508 413.793 98.6508C413.371 98.6508 412.975 98.7433 412.645 98.9351C412.316 99.1268 412.052 99.3912 411.867 99.735C411.676 100.079 411.583 100.475 411.583 100.918C411.583 101.599 411.788 102.148 412.197 102.565C412.606 102.981 413.14 103.186 413.793 103.186C414.209 103.186 414.592 103.094 414.928 102.902Z" fill="#730114"/>
<path d="M426.71 96.8459V105.136H426.03L421.624 100.859V104.991H419.506V96.7004H420.185L424.592 100.918V96.8459H426.71Z" fill="#730114"/>
</g>
<defs>
<clipPath id="clip0_31_896">
<rect width="432" height="175" fill="white" transform="translate(0 0.5)"/>
</clipPath>
</defs>
</svg>
