<svg width="716" height="692" viewBox="0 0 716 692" fill="none" xmlns="http://www.w3.org/2000/svg">
<mask id="mask0_1_1036" style="mask-type:alpha" maskUnits="userSpaceOnUse" x="0" y="0" width="716" height="692">
<path d="M191.922 513C196.34 513 199.922 516.582 199.922 521V684C199.922 688.418 196.34 692 191.922 692H8C3.58173 692 0 688.418 0 684V521C1.67512e-06 516.582 3.58172 513 8 513H191.922ZM708 208C712.418 208 716 211.582 716 216V684C716 688.418 712.418 692 708 692H240.468C236.049 692 232.468 688.418 232.468 684V216C232.468 211.582 236.049 208 240.468 208H708ZM475.532 0C479.951 0 483.532 3.58172 483.532 8V173C483.532 177.418 479.95 181 475.532 181H213.501C209.083 181 205.501 184.582 205.501 189V476C205.501 480.418 201.919 484 197.501 484H8C3.58177 484 6.81475e-05 480.418 0 476V8C0 3.58172 3.58172 0 8 0H475.532ZM708 0C712.418 0 716 3.58172 716 8V171C716 175.418 712.418 179 708 179H524.078C519.66 179 516.078 175.418 516.078 171V8C516.078 3.58172 519.66 0 524.078 0H708Z" fill="#F68787"/>
</mask>
<g mask="url(#mask0_1_1036)">
<path d="M-48.0001 890.821L-48.0001 789.728C-28.4434 806.32 -7.30972 821.06 14.5732 834.815C18.9103 837.535 23.5626 840.176 28.1757 843.014C33.1043 832.727 37.4419 823.504 41.5819 814.637C43.0012 814.637 43.3565 814.558 43.5536 814.637C44.3026 815.031 45.0515 815.425 45.7216 815.977C77.8166 845.694 102.736 878.603 97.7284 925.78L97.6493 925.701C96.3482 939.101 94.9292 952.778 96.3485 966.06C99.0691 991.993 102.105 1018.04 105.22 1043.98L-48.0001 890.821ZM794 135.243C743.058 59.7681 671.732 2.97375 581.992 -35.9658C578.483 -37.5817 574.698 -38.6063 571.031 -39.9463C696.73 23.1532 763.995 126.729 794 218.679L794 333.094C732.452 280.36 645.748 273.384 573.476 315.556C528.014 341.962 491.937 378.458 458.265 417.792C457.792 418.462 457.594 419.408 456.569 421.851C470.724 412.707 482.986 404.313 495.722 396.47C532.706 373.532 570.834 352.682 613.574 341.844C679.933 324.975 748.696 344.484 794 390.794L794 533.389C792.502 528.777 790.964 524.048 789.466 519.437C788.322 582.812 772.472 642.246 748.421 700.144C759.185 693.089 769.87 685.915 780.989 678.466C784.656 683.471 788.164 687.925 791.279 692.536C792.304 693.955 793.132 695.177 794 696.32L794 727.811C792.423 729.505 790.609 731.515 788.638 733.762C771.999 752.049 752.757 767.539 732.294 781.491C697.005 726.708 634.353 713.78 592.638 729.899C545.244 748.305 527.619 796.783 530.537 837.614C552.893 756.385 641.609 749.606 675.951 780.82C655.764 797.058 637.823 815.228 624.811 837.693C610.854 861.656 601.036 886.368 604.151 915.218C606.044 932.756 604.546 950.571 604.151 968.307C604.151 971.42 603.323 975.558 601.233 977.45C588.537 989.51 575.486 1001.14 561.686 1013.55C559.676 1015.36 556.363 1014.38 555.653 1011.74C547.531 980.761 539.725 950.847 531.918 920.933C529.946 924.046 529.946 926.766 529.946 929.604C529.473 957.114 528.999 984.663 528.329 1012.21C528.25 1013.99 527.975 1016.27 527.305 1018.04C526.713 1019.38 526.082 1020.41 525.215 1020.88C511.533 1027.66 497.378 1033.81 482.553 1040.59C473.878 999.482 465.48 959.793 457.161 920.065C455.742 921.563 455.544 922.864 455.544 924.204C453.77 961.843 452.153 999.482 450.182 1037.12C449.984 1039.76 447.895 1044.02 445.924 1044.57C427.865 1050.05 409.57 1054.86 390.802 1059.94C384.848 1013.16 379.091 966.848 373.256 920.538L371.167 920.538C365.292 967.321 359.457 1014.18 353.503 1061.91C334.538 1056.16 316.794 1050.68 298.854 1045.67C294.123 1044.37 292.822 1042.09 292.625 1037.48C291.403 1000.86 289.864 964.365 288.366 927.869C288.287 925.977 287.893 924.085 287.617 922.193C287.144 922.272 286.67 922.272 286.197 922.272C277.523 961.33 268.849 1000.39 259.977 1040.08C247.242 1034.24 236.044 1028.17 224.137 1023.76C216.014 1020.73 213.964 1016.39 214.043 1008.19C214.634 978.869 214.24 949.546 214.24 920.104L212.268 919.829C204.067 950.728 195.985 981.589 187.547 1013.59C187.113 1015.25 185.063 1015.84 183.802 1014.73C169.686 1002.48 156.438 991.205 143.584 979.342C140.942 976.898 139.05 972.09 138.971 968.307C138.576 950.374 138.971 932.362 138.971 914.351C138.971 905.68 140.115 896.812 138.498 888.417C130.849 848.61 108.887 817.199 78.6845 790.989C74.5445 787.324 70.4828 783.659 66.2245 779.875C109.084 745.625 192.673 762.612 212.111 837.417C215.699 800.448 200.006 752.641 157.463 733.289C134.712 722.924 111.331 720.362 87.161 726.116C54.5931 733.841 29.6742 752.523 11.8525 781.491C6.52958 777.944 1.56144 774.83 -3.17001 771.322C-19.2963 759.42 -34.7522 746.611 -47.8819 731.516L-47.8819 692.931C-44.2939 687.846 -40.6272 682.762 -37.0391 677.56C-26.5905 684.536 -16.93 691.039 -7.23055 697.463C-29.1923 639.921 -46.1072 582.103 -45.713 519.949C-46.3833 522.393 -47.1328 524.758 -47.8819 527.201L-47.8819 387.602C-7.70411 347.992 50.8079 327.97 107.979 336.759C149.025 343.065 185.812 359.579 221.101 380.231C243.259 393.238 264.985 407.19 286.868 420.787C275.039 406.244 262.974 391.897 249.766 378.615C215.699 344.287 178.163 315.161 131.834 298.45C68.9848 275.827 0.773434 288.833 -47.921 331.478L-47.9219 209.614C-37.5522 179.976 -23.8702 151.402 -7.1524 123.773C35.5883 53.0279 94.5344 -0.928009 170.316 -37.6211C168.306 -38.094 167.675 -38.3699 167.28 -38.291C164.836 -37.424 162.47 -36.5963 160.104 -35.6504C84.5196 -4.51444 21.5123 43.0172 -28.6016 107.26C-35.5016 115.931 -41.8101 124.798 -47.961 133.863L-47.9609 -1185L793.882 -1185L793.882 -624.001L794 -623.805L793.251 -623.805L723.895 -553.649L794 -483.574L794 135.243ZM336.351 482.625C289.47 501.898 250.199 487.078 213.412 460.002C202.49 451.962 191.806 443.567 180.963 435.566C156.833 417.831 132.386 400.293 102.657 392.844C65.673 383.582 30.8571 387.444 0.181571 412.077C-12.751 422.364 -26.2354 442.819 -28.128 454.327C-19.1777 444.986 -10.3853 435.842 -1.71101 426.698C-27.9311 524.599 25.771 597.513 75.9638 625.535C68.3146 615.918 59.5215 606.381 52.4638 595.818C45.3667 585.177 39.9261 573.471 33.7753 562.16C84.3623 612.135 140.39 641.97 214.753 621.396C195.512 638.935 175.797 652.966 151.154 659.114C153.402 659.863 155.57 660.061 157.66 660.061L157.66 660.021C227.922 659.391 291.994 601.651 299.367 532.049C300.116 524.521 302.403 519.515 309.382 515.456C321.644 508.204 330.594 497.523 336.351 482.625ZM607.384 996.289C606.437 1020.25 606.161 1061.68 606.437 1085.72C606.516 1087.88 605.57 1089.89 604.072 1091.39L381.3 1304.1C376.884 1308.36 369.865 1308.36 365.449 1304.02L141.809 1087.37C140.193 1085.83 139.247 1083.67 139.247 1081.42C139.129 1059.47 138.458 1023.17 138.852 1000.23C138.853 998.536 140.548 997.314 142.165 997.984L185.182 1031.96C186.049 1032.23 186.601 1032.98 186.798 1033.85C189.716 1058.09 201.702 1086.27 210.1 1117.6L212.071 1117.4L212.939 1040.83C212.94 1040.08 213.688 1039.6 214.437 1039.88L256.981 1056.59L277.839 1185.63L278.036 1185.63L288.602 1071.69C288.8 1070.35 290.101 1069.6 291.244 1070.07L352.675 1094.23C353.7 1094.58 354.488 1095.53 354.567 1096.67C360.639 1152.68 366.553 1227.01 371.758 1255.11C374.399 1262.17 382.798 1164.11 390.802 1095.33L449.117 1072.32C450.812 1071.65 452.705 1072.79 452.902 1074.56C456.096 1106.84 461.971 1170.49 462.523 1185.39C462.523 1185.58 462.906 1185.4 462.917 1185.39L487.718 1057.1L528.487 1041.06C530.025 1040.47 531.72 1041.42 531.996 1043.03L532.075 1116.77C534.914 1117.05 557.349 1048.2 557.073 1035.74C557.073 1034.44 557.428 1033.3 558.374 1032.55L604.9 994.909L604.939 994.87C606.359 994.318 607.384 994.87 607.384 996.289ZM232.653 -904.501L232.653 -764.231L513.268 -764.231L513.268 -904.501L232.653 -904.501ZM366.238 658.996C366.711 621.751 366.316 584.388 366.316 546.474C365.843 547.301 365.45 547.971 365.174 548.72C348.298 602.951 328.859 656.119 302.994 706.883C291.796 728.954 281.032 751.301 276.498 775.934C272.437 797.532 272.752 818.539 284.817 837.891C291.678 848.847 301.22 856.296 315.099 856.296C332.092 856.375 346.681 846.955 352.832 827.801C357.997 811.681 361.98 794.576 363.005 777.707C365.173 738.176 365.646 698.567 366.198 658.957L366.238 658.996ZM441.547 -32.7735C444.425 -37.3452 444.819 -42.9811 442.532 -47.8682L389.58 -161.455C387.017 -166.933 381.655 -170.402 375.622 -170.521C369.905 -170.875 364.149 -167.367 361.389 -161.968L303.704 -48.8535C301.22 -43.9663 301.457 -38.2516 304.296 -33.5615C307.135 -28.8716 312.142 -26.0333 317.622 -26.0332L428.26 -25.5606L428.338 -25.5606C433.7 -25.5606 438.629 -28.241 441.547 -32.7735ZM303.034 835.92L303.034 835.88C303.053 835.902 303.073 835.923 303.092 835.945C303.073 835.936 303.053 835.929 303.034 835.92ZM347.903 823.228C344.946 834.5 339.072 843.211 327.125 846.049C318.078 848.172 310.76 844.999 303.092 835.945C323.72 845.562 337.149 838.624 347.903 823.228ZM439.221 82.8242C439.221 76.8729 434.41 72.0644 428.456 72.0644L317.504 72.0644C311.55 72.0646 306.74 76.8729 306.74 82.8242L306.74 193.731C306.74 199.682 311.55 204.49 317.504 204.49L428.456 204.49C434.41 204.49 439.22 199.682 439.221 193.731L439.221 82.8242ZM439.339 -562.202C439.339 -597.516 410.635 -626.208 375.307 -626.208C339.978 -626.208 311.274 -597.516 311.274 -562.202C311.274 -526.889 340.018 -498.196 375.307 -498.196C410.635 -498.196 439.339 -526.889 439.339 -562.202ZM441.034 -271.022C444.859 -274.845 444.859 -281.033 441.034 -284.856L441.034 -284.777L391.473 -334.318L441.034 -383.86C444.859 -387.683 444.859 -393.871 441.034 -397.694C437.21 -401.517 431.019 -401.517 427.194 -397.694L377.633 -348.152L328.071 -397.694C324.247 -401.517 318.056 -401.517 314.231 -397.694C312.299 -395.803 311.353 -393.28 311.353 -390.797C311.354 -388.314 312.339 -385.791 314.231 -383.899L363.793 -334.358L314.231 -284.816C312.299 -282.925 311.353 -280.402 311.353 -277.919C311.354 -275.436 312.339 -272.914 314.231 -271.022C318.056 -267.199 324.247 -267.199 328.071 -271.022L377.633 -320.563L427.194 -271.022C431.019 -267.199 437.21 -267.199 441.034 -271.022ZM323.931 -45.5821L375.188 -146.045L422.227 -45.1485L323.931 -45.5821ZM419.664 174.143C419.664 180.085 414.844 184.902 408.899 184.902L337.06 184.902C331.116 184.902 326.297 180.085 326.297 174.143L326.297 102.333C326.297 96.3907 331.116 91.5733 337.06 91.5732L408.899 91.5732C414.844 91.5732 419.664 96.3906 419.664 102.333L419.664 174.143ZM419.782 -562.163C419.782 -537.649 399.831 -517.706 375.307 -517.706C350.782 -517.706 330.831 -537.648 330.831 -562.163C330.831 -586.678 350.782 -606.62 375.307 -606.62C399.831 -606.62 419.782 -586.678 419.782 -562.163ZM468.279 807.977C472.143 779.127 462.839 752.365 450.458 726.786C428.457 681.501 407.599 635.743 391.67 587.936C387.136 574.141 382.956 560.268 378.54 546.513C378.067 546.513 377.514 546.592 377.041 546.592C377.041 549.311 376.962 551.952 377.041 554.593C377.672 604.331 377.791 654.03 379.289 703.729C380.432 739.555 382.877 775.421 385.913 811.247C387.135 825.278 393.168 838.324 404.602 848.02C420.729 861.774 445.175 859.489 456.215 841.398C462.247 831.388 466.781 819.406 468.279 807.897L468.279 807.977ZM437.841 837.535C434.095 844.314 426.761 847.979 419.388 846.994C407.323 845.417 397.544 835.328 394.587 820.352C405.351 836.984 418.324 845.733 437.841 837.535ZM773.892 454.445C773.694 453.815 773.576 452.396 773.024 451.253C761.077 424.177 741.994 404.667 713.408 395.051C669.997 380.429 630.174 389.848 593.466 414.48C566.299 432.768 540.907 453.618 513.465 471.354L513.426 471.313C481.804 491.69 447.461 498.666 410.95 483.965C410.004 483.61 408.978 483.689 407.086 483.413C413.789 498.587 423.686 509.623 436.815 518.215C439.654 520.028 442.493 523.891 442.769 527.083C448.645 586.596 493.829 640.354 551.671 656.198C566.772 660.337 582.544 661.401 590.075 658.839C556.482 644.572 538.818 633.339 531.839 622.225C603.481 641.576 658.957 612.608 707.73 563.185C698.859 588.842 683.56 610.361 663.648 628.846C687.148 617.889 716.129 589.315 731.506 561.214C754.177 519.515 758.317 475.491 747.75 428.984C756.543 437.458 765.296 446.05 773.892 454.445ZM638.02 1046.74C639.716 1032.39 641.411 1017.97 643.106 1003.62C644.802 988.525 647.444 973.548 647.917 958.453C648.508 942.136 646.34 925.82 646.419 909.582C646.498 900.99 647.838 892.122 650.559 884.003C659.351 858.069 675.872 837.102 695.862 818.814C697.36 817.396 699.174 816.252 701.422 814.558L701.422 814.598C706.232 824.884 710.648 834.422 715.183 844.038C743.098 827.367 769.83 809.907 793.882 789.058L793.882 890.939L638.02 1046.74Z" fill="#580110"/>
</g>
</svg>
