<svg width="541" height="822" viewBox="0 0 541 822" fill="none" xmlns="http://www.w3.org/2000/svg">
<g clip-path="url(#clip0_267_252)" filter="url(#filter0_n_267_252)">
<path d="M193.69 704.412C192.99 706.212 194.29 712.312 196.49 717.512C197.39 719.712 197.89 722.312 197.59 723.512C196.59 727.412 200.09 743.112 202.59 746.012C205.29 749.012 206.29 748.312 207.89 742.112C208.89 738.312 210.99 716.112 210.99 709.412C210.99 705.412 210.79 705.212 206.79 703.712C198.69 700.812 194.99 701.012 193.69 704.412Z" fill="#15151C"/>
<path d="M105.49 531.812L113.49 532.912C117.89 533.612 123.69 535.212 126.29 536.512L131.09 538.912L128.99 536.612C126.09 533.512 118.39 529.412 109.79 526.512C101.19 523.612 99.59 523.612 90.49 526.912C84.39 529.112 81.69 529.412 69.99 529.512C60.29 529.512 54.89 529.112 50.79 527.912C43.29 525.812 43.09 527.512 50.29 531.912C59.29 537.312 66.39 539.412 75.99 539.412C83.29 539.412 85.99 538.912 94.99 535.612L105.49 531.812Z" fill="#15151C"/>
<path d="M223.69 705.712C220.19 707.512 218.99 708.712 219.39 709.912C219.59 710.812 220.79 716.512 221.99 722.612C224.89 737.512 226.59 743.412 229.19 746.612C231.89 750.012 231.99 749.912 237.19 733.612C243.39 714.112 242.69 706.312 234.49 704.212C228.89 702.812 229.39 702.712 223.69 705.712Z" fill="#15151C"/>
<path d="M257.39 751.012C258.69 752.112 259.19 751.712 260.79 748.412C263.39 743.512 264.79 738.212 266.99 724.912C268.99 713.312 268.49 709.012 264.99 707.112C263.99 706.512 262.49 706.212 261.79 706.212C257.19 706.712 249.99 708.012 249.09 708.512C247.49 709.612 247.79 715.512 249.99 725.612C250.99 730.512 252.49 737.512 253.29 741.112C254.59 747.212 254.79 747.412 255.79 745.112C256.89 742.812 256.89 742.912 256.39 746.212C255.99 748.712 256.29 750.112 257.39 751.012Z" fill="#15151C"/>
<path d="M177.39 699.612C176.99 700.412 176.99 708.012 177.19 716.312C177.49 729.812 177.79 732.212 179.89 736.312C183.79 744.412 184.79 742.712 186.09 726.112C186.59 719.812 187.29 712.312 187.59 709.512C188.19 704.812 187.99 704.312 184.99 701.312C181.59 697.912 178.29 697.212 177.39 699.612Z" fill="#15151C"/>
<path d="M269.79 684.212C269.99 671.812 269.69 668.712 267.59 660.312C266.19 655.012 264.89 648.012 264.69 644.812C264.39 640.212 263.79 638.512 261.49 636.112C258.09 632.512 257.09 632.412 253.39 635.312C244.19 642.512 239.99 648.712 239.99 655.512C239.99 656.512 238.59 661.712 236.89 666.912C234.49 674.412 233.79 679.012 233.29 688.212L232.69 700.012L235.39 700.712C236.99 701.112 241.89 701.512 246.29 701.612C250.79 701.712 256.29 702.112 258.49 702.512C261.79 703.112 263.09 702.912 265.99 700.912L269.49 698.512L269.79 684.212Z" fill="#15151C"/>
<path d="M333.99 661.112C331.79 652.612 329.39 644.412 328.79 642.812C327.69 639.912 325.99 639.312 324.49 641.512C319.89 647.712 319.69 648.512 319.39 655.612C319.29 659.612 318.19 666.812 316.99 671.612C314.39 681.812 314.49 694.512 316.99 696.212C318.59 697.312 336.49 697.012 337.59 695.812C337.99 695.512 338.29 691.012 338.19 685.812C338.19 678.212 337.39 673.812 333.99 661.112Z" fill="#15151C"/>
<path d="M304.99 717.412C304.99 722.712 311.79 745.212 314.09 747.612C315.423 748.945 316.89 748.712 318.49 746.912C319.99 745.212 321.09 742.312 321.39 739.412C322.19 733.212 323.59 725.212 325.49 717.112C327.39 708.712 326.79 705.612 322.79 704.212C318.69 702.712 313.19 702.912 309.39 704.512C306.09 706.012 304.99 709.112 304.99 717.412Z" fill="#15151C"/>
<path d="M362.49 664.112C361.19 661.112 359.39 655.712 358.39 652.112C357.39 648.512 355.99 644.112 355.29 642.312C354.59 640.612 353.79 639.112 353.69 639.112C353.49 639.112 351.79 640.712 349.89 642.712C346.59 646.112 346.49 646.512 345.79 656.412C343.49 689.412 343.49 686.612 345.99 688.912C347.19 690.012 350.49 691.512 353.19 692.112L358.19 693.312L361.99 689.612L365.89 685.812L365.29 677.712C364.99 672.812 363.79 667.412 362.49 664.112Z" fill="#15151C"/>
<path d="M335.09 704.412C333.29 709.612 337.59 744.112 339.99 744.112C341.99 744.112 343.89 739.212 345.39 730.612C346.29 725.612 347.59 718.612 348.29 715.012C349.99 707.012 349.49 702.512 346.69 700.612C345.49 699.812 343.89 699.112 342.99 699.112C340.29 699.212 335.89 702.112 335.09 704.412Z" fill="#15151C"/>
<path d="M355.49 710.612C355.79 717.012 357.89 724.812 360.29 727.812C361.99 730.112 363.89 729.212 364.39 725.812C365.99 714.012 367.99 697.312 367.99 695.812C367.99 694.712 367.19 694.112 365.79 694.212C358.69 694.412 355.09 700.212 355.49 710.612Z" fill="#15151C"/>
<path d="M150.89 683.112C148.99 683.112 150.49 695.912 153.09 702.112L155.49 707.612L156.59 699.612C157.29 695.212 158.09 690.412 158.49 688.812C159.09 686.412 158.89 685.912 155.59 684.612C153.69 683.812 151.49 683.112 150.89 683.112Z" fill="#15151C"/>
<path d="M138.99 645.112C137.89 648.412 137.99 649.112 140.29 653.612L142.79 658.612L143.99 655.612C144.69 653.912 145.49 647.812 145.79 641.812C145.99 635.912 145.89 631.112 145.59 631.112C144.89 631.112 141.29 638.812 138.99 645.112Z" fill="#15151C"/>
<path d="M461.49 571.102C462.79 562.102 463.79 554.502 463.59 554.302C462.69 553.502 452.99 590.602 452.99 594.802C452.99 596.202 452.69 597.102 452.29 596.702C451.79 596.302 451.19 590.702 450.89 584.302C450.39 572.202 447.79 561.702 445.69 562.402C444.19 562.902 443.39 568.702 442.09 588.002C440.69 609.102 438.69 619.502 433.89 631.302C430.09 640.502 429.79 642.002 429.89 649.902C429.99 655.302 429.49 660.102 428.49 663.102C425.29 672.702 417.99 681.202 388.29 710.102C361.29 736.302 362.09 735.702 356.29 736.502C353.39 736.902 350.59 737.702 349.99 738.402C349.49 739.102 347.49 741.602 345.69 744.102C341.59 749.702 338.39 750.402 332.99 746.602C328.59 743.602 328.39 743.602 322.79 749.702C317.09 755.902 315.69 756.002 310.49 751.202C306.19 747.202 300.99 745.602 300.99 748.302C300.99 748.902 302.59 752.202 304.49 755.702C306.39 759.102 307.99 762.602 307.99 763.402C307.99 765.102 295.89 783.502 292.79 786.402C291.09 788.102 290.99 788.102 290.99 786.002C290.99 780.502 294.49 762.802 297.09 755.102C300.49 745.202 300.29 746.102 298.69 746.102C296.49 746.102 288.99 752.002 287.79 754.602C285.59 759.602 280.69 756.802 273.59 746.602L271.69 743.902L267.59 748.102C263.29 752.602 258.29 756.102 256.29 756.102C255.59 756.102 252.49 753.802 249.39 751.002L243.79 746.002L241.19 747.702C239.69 748.702 236.79 750.502 234.79 751.902C231.49 754.102 230.69 754.202 228.09 753.202C226.49 752.502 223.49 749.502 221.39 746.602C219.19 743.602 217.19 741.102 216.79 741.102C216.39 741.102 214.49 744.502 212.49 748.602C208.29 757.602 206.49 758.102 200.89 752.002C197.29 748.002 197.09 748.002 193.29 749.102C187.99 750.702 184.79 749.202 180.39 743.102C177.59 739.102 175.19 737.302 169.19 734.402C161.19 730.402 157.99 727.202 146.79 712.002C141.39 704.802 132.39 693.602 123.69 683.402C112.79 670.602 109.09 658.902 111.99 646.502C113.29 641.202 113.29 641.002 109.19 631.902C106.99 626.802 104.69 620.802 104.19 618.602C102.69 613.102 100.19 594.302 99.39 584.102C98.69 573.302 97.39 564.602 96.19 562.502C94.19 558.902 90.39 574.902 89.79 589.802C89.59 593.302 89.19 596.102 88.79 596.102C88.29 596.102 87.99 595.102 87.99 593.802C87.99 590.802 82.49 564.702 80.69 559.102L79.19 554.602L79.09 558.102C79.09 560.002 79.69 566.302 80.49 572.102C81.39 578.402 81.99 591.402 81.99 604.602C82.09 641.202 83.79 683.802 85.39 693.302C87.39 704.302 90.29 712.102 93.59 715.202L96.19 717.602L98.49 714.902C101.69 711.202 103.39 700.202 102.69 687.902C102.19 680.302 97.79 657.002 95.49 650.402C95.29 649.702 95.39 649.102 95.89 649.102C96.79 649.102 103.09 664.902 104.89 671.702C105.49 674.002 107.89 679.802 110.09 684.702C112.39 689.602 117.09 701.602 120.59 711.502C126.69 728.402 127.09 730.002 127.89 742.102C128.59 751.602 129.29 755.902 130.89 758.802C133.59 764.302 137.79 769.102 140.69 770.202C143.59 771.302 146.99 769.802 146.99 767.302C146.99 764.302 139.09 729.702 137.09 724.102C136.09 721.102 133.59 715.002 131.69 710.602C129.69 706.202 128.29 702.502 128.49 702.302C129.69 701.102 136.29 708.502 151.59 728.302C154.49 732.002 158.19 735.102 163.79 738.402C173.49 744.202 177.49 748.402 179.39 755.402C182.69 767.402 182.39 768.502 177.69 762.602C174.59 758.702 164.69 751.602 164.19 753.002C164.09 753.402 165.09 758.602 166.49 764.402C167.89 770.102 168.99 775.502 168.99 776.302C168.99 777.002 167.79 779.402 166.39 781.502C164.39 784.402 163.89 786.002 164.39 788.402C165.29 792.702 170.49 800.502 175.49 804.902C183.79 812.202 190.29 814.402 215.99 818.602L231.89 821.302L248.69 818.002C257.89 816.302 266.79 814.602 268.29 814.302C270.19 814.002 273.49 815.002 278.29 817.202C287.99 821.702 294.89 821.602 318.29 816.702C338.39 812.602 342.59 811.202 348.99 806.502C358.09 800.002 369.59 786.602 371.49 780.302C372.39 777.302 371.49 777.402 360.39 782.202C355.09 784.402 350.39 786.102 349.89 785.902C349.29 785.702 351.69 781.202 355.09 775.802C360.89 766.502 362.79 760.602 360.69 758.502C360.29 758.102 357.49 758.302 354.39 759.002C343.69 761.402 344.99 758.002 359.29 745.702C363.79 741.802 369.89 736.002 372.79 732.902C375.69 729.802 380.59 726.002 383.59 724.502C389.89 721.302 394.49 717.002 400.59 708.502C404.59 703.002 406.09 700.002 408.39 693.602C409.09 691.702 409.19 691.702 410.49 694.102C412.19 697.102 412.39 704.402 410.89 707.402C410.19 708.602 407.79 711.702 405.39 714.302C398.39 721.802 388.69 738.002 387.49 744.102L386.79 747.602L392.99 741.602L399.19 735.602L393.09 747.602C389.69 754.202 386.99 760.202 386.99 760.902C386.99 762.602 392.59 764.902 395.49 764.402C398.79 763.702 404.99 758.202 406.59 754.602C407.29 752.802 408.39 748.302 408.99 744.502C409.59 740.702 411.39 732.902 413.09 727.102C419.99 703.002 422.29 696.702 426.79 690.202C432.69 681.602 434.39 677.502 437.99 664.002C443.99 641.302 444.69 651.902 438.99 679.402C433.69 705.002 435.49 716.402 443.79 710.502C446.29 708.802 450.39 701.202 451.39 696.602C454.19 682.602 454.89 640.802 452.59 625.102C451.19 616.102 451.29 615.402 453.09 611.602C455.39 606.902 458.09 593.802 461.49 571.102ZM200.49 774.502C199.59 775.902 198.39 776.902 197.99 776.602C196.59 775.702 194.99 766.402 194.99 759.502C194.99 750.102 196.59 751.902 200.49 765.702C202.09 771.502 202.09 772.002 200.49 774.502ZM228.39 787.002C227.59 786.302 225.99 784.102 224.99 782.202C222.39 777.002 220.29 775.502 213.49 774.202C210.29 773.602 207.19 772.702 206.59 772.102C205.99 771.502 207.19 769.502 209.89 766.602C214.29 761.802 216.99 756.702 216.99 753.102C216.99 750.002 218.49 750.702 222.89 755.802C227.09 760.702 227.79 762.902 225.89 764.802C225.09 765.602 225.39 767.902 227.39 773.502C228.79 777.702 229.99 782.702 229.99 784.702C229.99 787.902 229.79 788.202 228.39 787.002ZM246.99 772.202C243.29 771.502 243.49 772.002 243.09 762.702C242.99 761.502 242.49 761.102 241.49 761.502C239.59 762.202 239.49 758.402 241.19 754.602C242.29 752.202 242.39 752.202 244.19 753.802C248.19 757.402 251.99 764.402 251.99 768.202C251.99 772.702 251.49 773.202 246.99 772.202ZM275.49 774.202L273.89 777.102L269.99 775.102C267.79 774.002 264.09 773.102 261.49 773.102C257.19 773.102 256.89 773.002 257.59 770.802C258.89 766.402 261.39 762.502 264.79 759.302C269.29 755.302 271.09 755.302 274.39 759.202C277.49 762.802 277.89 769.402 275.49 774.202ZM325.79 765.602C323.19 763.302 321.39 761.002 321.69 760.702C323.99 758.502 331.99 762.102 331.99 765.402C331.99 770.002 330.59 770.002 325.79 765.602Z" fill="#15151C"/>
<path d="M194.59 642.312L190.09 637.612L188.99 640.612C188.39 642.312 187.19 646.512 186.39 650.112C185.49 653.712 183.49 659.312 181.69 662.612C178.99 667.812 178.59 669.812 178.39 677.312C178.19 685.512 178.29 686.212 181.09 690.012C184.59 694.912 187.69 695.912 193.29 693.712C201.09 690.612 201.49 690.012 201.29 681.412C201.09 677.212 200.49 671.012 199.89 667.712C199.29 664.312 198.89 658.312 198.89 654.312L198.99 647.012L194.59 642.312Z" fill="#15151C"/>
<path d="M336.09 331.112C320.39 341.312 317.59 342.312 306.09 342.212C300.79 342.212 293.99 341.712 291.09 341.112C283.09 339.612 281.69 339.712 282.89 341.912C284.59 345.012 290.29 350.312 293.69 351.712C298.49 353.812 306.59 353.412 314.29 350.712C325.59 346.712 332.99 341.612 363.39 316.912C364.49 315.912 365.19 315.112 364.79 315.112C363.19 315.112 345.99 324.612 336.09 331.112Z" fill="#15151C"/>
<path d="M141.69 675.712C140.29 677.112 141.59 694.512 142.99 693.612C144.09 692.912 147.19 680.512 146.79 678.012C146.49 675.612 143.19 674.212 141.69 675.712Z" fill="#15151C"/>
<path d="M521.29 161.102C517.39 149.102 505.19 124.002 497.29 111.702C481.79 87.6018 450.99 59.0018 420.89 40.9018C387.39 20.6018 343.39 6.30179 302.49 2.20179C290.69 1.00179 266.39 0.201787 256.49 0.701787C211.79 2.90179 170.79 13.2018 134.69 31.2018C121.69 37.7018 107.49 46.2018 103.09 50.1018C101.29 51.7018 99.19 53.1018 98.59 53.1018C97.99 53.2018 95.89 54.4018 93.89 55.9018C91.89 57.4018 87.59 60.6018 84.39 63.0018C70.89 73.2018 55.29 90.2018 44.29 106.602C40.99 111.502 36.89 117.702 35.09 120.302C30.69 126.702 20.79 147.802 17.49 157.402C11.49 175.302 7.98999 202.902 7.98999 231.902C7.98999 250.602 8.98999 262.202 11.49 271.202C14.19 280.802 24.89 324.402 26.09 330.602C27.09 335.702 27.39 336.202 28.09 334.102C29.39 329.502 28.99 323.902 26.49 312.702C21.99 292.402 18.99 277.702 19.39 277.402C19.59 277.202 20.99 279.902 22.49 283.302C31.2233 303.035 33.39 301.468 28.99 278.602C22.69 246.302 17.99 219.502 17.99 216.502C18.09 214.402 19.49 216.902 22.99 225.102C30.39 242.202 39.89 260.702 42.59 263.202L44.99 265.402V259.902C44.99 249.402 42.99 223.602 40.49 203.602C35.79 164.602 36.19 156.202 41.79 174.402C43.39 179.602 47.09 190.202 49.99 198.202C59.09 222.902 62.99 240.202 62.99 255.602C62.99 262.902 59.19 287.002 56.29 297.602C54.29 305.102 47.29 320.202 42.59 327.402C37.59 334.902 35.99 339.202 35.99 345.102C35.99 349.502 36.49 350.702 38.89 353.202C42.59 356.802 46.49 357.002 51.09 353.602C65.39 343.202 63.89 343.902 106.99 330.702C139.09 320.902 148.29 317.202 149.69 313.502C150.49 311.302 145.39 306.402 140.59 304.602C136.49 303.202 115.99 301.102 105.39 301.102C99.79 301.102 97.99 299.602 102.79 298.802C110.19 297.602 140.09 298.102 150.29 299.602C169.69 302.502 178.39 305.902 188.09 314.602C191.49 317.602 194.59 320.102 194.99 320.102C195.29 320.102 197.09 321.902 198.89 324.102C204.29 330.902 199.99 329.002 183.69 317.502C173.09 310.002 183.29 322.202 196.49 332.802C212.89 346.002 227.69 353.202 238.59 353.302C245.49 353.302 249.89 351.502 252.79 347.402C254.59 344.802 256.99 338.802 256.99 337.002C256.99 336.502 253.79 337.802 249.89 339.902C243.29 343.302 242.09 343.602 232.29 343.902L221.79 344.302L222.49 341.302C223.29 337.302 222.59 336.102 214.29 327.802C206.69 320.102 206.19 320.202 222.49 327.402C226.89 329.402 231.79 331.302 233.29 331.602C236.99 332.602 244.39 329.702 246.99 326.402C249.89 322.702 250.69 318.702 252.49 300.102C253.99 285.002 254.89 279.702 255.09 284.702C255.09 285.702 255.29 288.202 255.49 290.102C255.69 292.002 256.19 296.102 256.49 299.302C257.59 309.802 264.19 329.102 266.79 329.102C267.19 329.102 268.89 328.202 270.69 327.202C273.39 325.502 273.89 324.502 274.59 319.402C275.09 316.202 275.39 308.502 275.39 302.302C275.29 296.102 275.59 291.302 276.09 291.802C276.59 292.302 278.09 297.102 279.49 302.602C282.59 314.402 287.49 324.802 291.19 327.502C292.79 328.602 296.19 329.602 299.49 329.902C304.19 330.302 305.59 330.002 308.99 327.702C311.19 326.302 313.29 325.102 313.79 325.102C314.29 325.102 320.19 322.802 327.09 320.002C342.79 313.602 360.49 307.702 370.29 305.702C374.49 304.802 386.19 303.702 396.19 303.102C413.79 302.202 417.39 301.602 426.89 298.502C437.39 295.002 430.69 299.802 412.99 308.402C406.59 311.502 400.19 315.302 398.59 317.002L395.79 319.902L398.39 321.602C399.89 322.602 405.49 323.902 411.69 324.702C445.39 329.102 465.99 332.902 473.29 336.002C475.79 337.102 479.59 339.902 481.69 342.202C492.69 354.502 494.59 356.102 498.29 356.102C502.39 356.102 505.39 353.002 506.89 347.202C508.49 341.302 506.79 336.302 499.69 325.802C490.59 312.502 486.49 304.102 480.89 286.802C476.09 272.502 475.99 271.902 476.99 265.302C480.09 243.202 486.99 220.102 495.49 203.102C500.39 193.202 502.19 190.102 503.19 190.102C504.09 190.102 503.29 194.802 499.39 210.502C495.49 226.402 493.79 240.802 494.09 256.002C494.29 271.102 494.59 271.502 500.39 266.102C505.69 261.202 511.89 249.402 516.59 235.302C518.09 230.802 519.59 227.102 519.99 227.102C521.19 227.102 518.19 245.602 513.59 266.402C508.49 289.302 506.69 299.202 507.19 301.602C507.59 303.802 514.39 291.602 519.49 279.402C521.69 274.302 523.59 270.302 523.79 270.602C524.29 271.102 522.49 279.702 516.89 303.302C514.09 315.202 512.99 322.302 512.99 327.802C512.99 336.502 514.09 336.502 515.89 327.602C516.59 324.302 519.79 311.502 522.99 299.102C531.59 266.402 532.19 262.302 532.59 235.102C532.99 204.402 530.99 191.002 521.29 161.102ZM214.89 265.502C214.59 265.802 208.59 264.002 201.39 261.502C194.29 259.002 186.09 256.202 183.19 255.402L177.89 253.802L169.49 263.202L166.19 261.502C163.79 260.302 161.49 260.002 158.39 260.502C152.29 261.302 149.69 262.902 146.09 267.802C143.39 271.502 142.09 272.302 135.79 274.102C121.89 278.102 119.19 279.202 112.89 283.202C99.99 291.202 94.39 292.602 88.99 288.902C83.89 285.402 82.79 282.702 83.49 275.102C84.49 263.902 84.19 244.902 82.99 238.102C82.39 234.502 79.19 222.702 75.99 211.902C68.79 187.902 66.69 177.602 66.59 165.102C66.49 156.102 66.69 155.202 69.89 149.102C76.09 137.302 96.99 107.802 107.39 96.3018C109.99 93.5018 112.59 91.1018 112.99 91.1018C113.99 91.1018 102.69 109.502 99.49 113.102C95.89 117.102 83.19 137.702 77.29 148.802C71.09 160.802 70.89 162.602 73.99 180.502C79.39 212.002 87.89 234.902 98.99 247.302C104.49 253.502 111.79 258.502 116.79 259.602C121.29 260.502 129.59 259.302 132.09 257.202L134.09 255.602L131.39 250.702C129.89 248.002 129.09 246.002 129.59 246.302C130.09 246.502 133.39 248.102 136.99 249.902C144.29 253.502 151.09 254.102 155.99 251.602C161.09 249.002 161.39 246.802 157.49 242.902C153.89 239.102 151.39 232.302 150.39 223.502C149.79 218.902 149.19 217.902 145.39 214.702C141.09 211.102 140.99 210.802 140.99 205.202C140.99 198.002 141.89 193.102 143.19 193.102C143.89 193.102 143.99 195.502 143.49 199.502L142.89 206.002L148.19 209.002C153.59 212.002 153.59 212.102 154.69 218.602C156.19 227.602 159.49 234.002 163.39 235.602C165.09 236.302 167.89 238.402 169.49 240.102C173.69 244.502 176.99 246.402 194.89 254.502C211.19 261.902 215.89 264.502 214.89 265.502ZM295.99 236.502C288.49 237.802 285.19 238.902 278.19 242.802L269.49 247.602H254.99C241.09 247.602 240.29 247.502 234.79 244.802C228.09 241.502 227.29 239.902 232.79 240.502C250.99 242.802 263.19 241.802 280.69 236.402C287.19 234.402 296.59 232.302 301.49 231.602C313.29 229.902 313.19 229.902 312.39 231.202C311.19 233.102 305.39 235.002 295.99 236.502ZM474.89 195.002C474.39 197.402 470.69 207.602 466.89 217.502C461.49 231.102 458.99 239.502 456.49 251.202C452.09 272.002 449.99 275.902 443.99 274.702C442.39 274.402 436.39 272.102 430.69 269.702C425.09 267.202 418.39 264.802 415.99 264.402L411.49 263.702L414.99 263.102L418.49 262.602L413.99 260.002C411.49 258.602 405.79 255.302 401.19 252.802C392.49 247.802 386.39 246.102 370.19 244.202L360.89 243.002L354.69 246.802C351.29 248.802 338.39 257.002 326.09 264.902C303.59 279.302 297.99 282.502 303.49 277.602C312.09 269.902 357.19 237.702 362.39 235.602C365.29 234.402 366.49 234.502 373.59 236.602C377.89 237.902 389.29 240.802 398.79 243.202C413.89 246.802 417.09 247.302 423.49 246.802C435.89 245.902 442.59 241.902 449.99 231.102C462.09 213.402 470.99 186.902 470.99 168.202C471.09 162.202 471.29 161.002 472.19 162.502C475.69 168.602 477.09 185.502 474.89 195.002Z" fill="#15151C"/>
<path d="M156.19 637.512C155.39 636.212 149.09 654.912 148.29 660.912C147.99 663.012 148.29 665.812 148.99 667.012C149.99 668.912 155.49 673.112 157.09 673.112C157.39 673.112 157.19 669.612 156.69 665.312C156.19 661.112 156.09 653.312 156.39 648.112C156.69 642.812 156.59 638.112 156.19 637.512Z" fill="#15151C"/>
<path d="M163.99 680.212C165.39 681.212 167.89 682.412 169.69 682.712C174.69 683.712 175.39 681.312 173.99 667.812C173.39 661.612 172.39 655.412 171.79 653.912C171.19 652.412 170.19 650.712 169.39 650.012C168.29 649.112 167.79 649.412 167.09 651.412C164.39 658.412 161.99 668.212 161.79 673.012C161.49 677.712 161.79 678.512 163.99 680.212Z" fill="#15151C"/>
<path d="M161.99 702.612C164.89 716.512 168.79 726.112 169.09 719.912C170.09 699.612 169.89 692.112 168.39 690.712C167.59 689.812 165.79 689.112 164.49 689.112C160.79 689.112 160.09 693.112 161.99 702.612Z" fill="#15151C"/>
<path d="M308.49 663.312C306.09 646.012 304.89 642.812 298.19 635.812C295.59 633.212 292.79 631.112 291.89 631.112C289.79 631.112 283.19 638.312 281.39 642.712C280.59 644.612 279.29 649.412 278.59 653.412C277.79 657.312 276.49 662.512 275.59 664.812C274.39 668.212 274.19 672.112 274.69 684.312C275.39 702.612 275.29 702.512 284.99 701.512C288.59 701.112 295.59 700.712 300.69 700.712C305.69 700.612 310.19 700.212 310.59 699.812C311.79 698.612 311.39 677.512 310.09 671.812C309.49 669.212 308.79 665.412 308.49 663.312Z" fill="#15151C"/>
<path d="M222.39 636.412C219.69 635.512 213.29 647.212 208.69 661.612C205.59 671.412 205.09 674.012 204.79 685.312L204.49 698.112L215.19 698.612C230.49 699.212 229.89 699.812 231.19 679.112C232.89 652.412 232.89 652.312 227.89 644.012C225.49 640.012 222.99 636.612 222.39 636.412Z" fill="#15151C"/>
<path d="M489.99 529.712C474.49 532.112 461.09 530.812 446.29 525.612C442.29 524.212 437.89 523.112 436.59 523.112C432.09 523.112 416.49 531.812 411.09 537.312C404.89 543.612 404.39 545.612 410.19 540.712C416.29 535.512 422.59 532.712 429.59 532.312C434.69 532.012 437.79 532.612 448.59 536.112C460.19 539.912 462.19 540.312 468.49 539.812C479.59 539.012 501.49 531.112 498.99 528.812C498.69 528.612 494.69 529.012 489.99 529.712Z" fill="#15151C"/>
<path d="M395.29 672.812C393.39 673.512 393.79 679.012 395.89 683.612L397.79 687.612L397.89 683.612C397.99 681.412 398.29 677.912 398.59 675.812C399.29 672.112 398.59 671.412 395.29 672.812Z" fill="#15151C"/>
<path d="M398.79 637.512C394.09 628.212 392.39 629.112 393.39 640.412C394.59 652.812 395.69 654.412 399.99 650.112C402.79 647.312 402.49 644.812 398.79 637.512Z" fill="#15151C"/>
<path d="M540.79 488.602C540.09 475.202 535.09 466.802 525.79 463.402C511.09 458.202 505.69 441.202 507.99 407.802C508.49 400.602 510.09 390.302 511.49 384.202C514.29 372.602 514.09 368.502 510.49 363.302C508.29 360.302 506.59 360.502 502.69 364.402C500.49 366.702 497.99 368.002 495.39 368.402C490.523 369.202 487.957 378.968 487.69 397.702C487.29 424.602 486.49 429.802 481.29 439.302C477.89 445.502 468.79 454.102 462.09 457.502C451.99 462.602 442.99 464.402 426.99 464.402C415.29 464.302 409.89 463.802 398.99 461.602C370.39 455.902 336.69 442.302 324.49 431.602C318.69 426.502 318.19 425.702 314.19 414.902C308.89 400.702 307.69 396.302 304.99 382.602C302.39 369.502 300.99 367.202 300.99 376.002C300.99 379.402 300.29 387.602 299.49 394.102C297.59 408.402 298.19 411.302 304.49 421.602C312.49 434.402 315.39 437.602 322.99 441.502C326.89 443.602 329.89 445.502 329.59 445.802C329.29 446.102 326.19 445.802 322.59 445.102C318.99 444.402 315.69 444.202 315.09 444.502C313.69 445.402 311.09 453.802 310.39 460.302C309.99 463.502 309.39 466.102 308.99 466.102C308.59 466.102 307.29 461.302 306.09 455.302C303.49 443.502 302.79 441.802 299.29 438.102C297.19 436.002 296.89 434.802 296.99 429.602C297.29 420.602 297.29 420.402 293.29 416.002C289.99 412.402 289.59 411.302 289.69 407.202C289.69 404.702 290.49 399.802 291.39 396.302C294.29 385.302 293.29 369.202 289.49 366.102C285.59 362.802 282.19 368.102 282.09 377.802C281.99 380.702 281.59 383.102 281.09 383.102C280.59 383.102 279.09 381.602 277.59 379.702C275.29 376.702 274.99 375.302 274.99 368.902C274.99 363.402 274.49 360.802 272.99 358.302C270.89 354.902 269.59 354.502 266.79 356.202C263.79 357.902 262.69 361.302 261.99 370.402C261.39 377.902 260.99 379.502 258.79 381.902C257.39 383.402 255.99 385.902 255.59 387.402C255.19 388.902 254.49 389.902 253.99 389.602C252.29 388.602 252.89 382.802 254.99 378.802C257.39 374.402 257.59 369.402 255.49 364.402C254.09 361.102 253.89 360.902 251.79 362.302C246.19 366.102 243.59 379.202 246.39 390.102C247.29 393.502 247.99 399.102 247.99 402.502C247.99 408.302 247.59 409.402 243.59 415.502C241.19 419.102 238.99 423.802 238.59 426.002C237.69 431.502 234.99 434.402 223.59 441.802C218.09 445.402 210.29 451.002 206.29 454.202C202.39 457.402 198.89 460.102 198.49 460.102C196.79 460.102 203.79 452.202 217.99 438.102C237.29 419.002 238.49 416.902 238.49 402.602C238.49 397.102 238.29 387.902 237.99 382.102C237.39 370.202 237.59 370.002 232.69 390.202C231.39 396.102 227.89 406.802 224.99 414.002C218.39 430.402 217.19 431.502 195.49 442.102C170.39 454.302 144.99 461.302 116.39 464.002C94.29 466.002 75.59 460.302 64.79 448.102C55.59 437.802 54.09 431.602 52.89 398.602C51.79 369.302 52.09 370.302 43.69 368.002C41.39 367.402 37.99 365.802 36.09 364.402C32.19 361.402 30.69 361.902 27.79 367.102C25.49 371.502 25.49 375.902 27.89 384.102C32.79 401.202 33.39 432.402 29.09 445.102C25.49 455.602 22.59 459.002 13.49 463.602C6.29 467.202 5.19 468.102 3.09 472.502C-0.209998 479.102 -1.01 492.102 1.39 498.602C4.49 506.702 15.09 512.502 29.29 514.002C39.29 515.002 43.19 514.502 45.89 512.002C49.39 508.702 48.49 506.602 39.79 498.902C30.09 490.302 21.99 482.102 21.99 480.802C21.99 480.302 23.79 481.402 26.09 483.302C30.39 486.802 42.49 495.502 52.49 502.302C60.59 507.802 63.79 510.902 66.09 515.302C68.69 520.402 71.09 521.502 78.49 520.802C87.59 519.902 89.59 518.702 91.59 512.902C94.29 504.602 98.79 501.002 110.99 497.102C122.59 493.502 127.89 491.102 129.99 488.602C131.29 487.102 130.69 487.002 122.89 487.802C105.09 489.502 93.69 488.102 88.99 483.502C87.79 482.302 88.49 482.102 94.69 482.102C98.59 482.102 109.39 481.002 118.69 479.702C136.89 477.102 168.59 475.402 170.89 477.002C171.89 477.602 170.69 478.302 166.59 479.502C163.49 480.402 160.99 481.502 160.99 481.902C160.99 482.302 165.59 484.802 171.09 487.602C176.59 490.302 182.29 493.602 183.79 494.802C186.39 496.902 186.39 497.002 184.39 497.102C183.19 497.102 179.19 496.202 175.39 495.002C170.19 493.402 168.19 493.202 166.29 494.002L163.99 495.102L166.69 499.802L169.29 504.602L167.49 508.602C166.49 510.802 165.49 512.902 165.39 513.202C165.19 513.502 166.39 516.602 167.99 520.002C169.69 523.402 171.69 528.602 172.49 531.502C173.99 536.502 178.99 570.902 178.99 576.002C178.99 579.602 178.19 578.102 176.49 571.702C174.29 563.402 169.39 551.302 165.39 544.502C162.59 539.802 161.99 539.202 162.39 541.602C164.89 554.902 166.49 594.302 165.09 605.602L164.49 610.602L163.69 606.102C163.29 603.602 162.59 595.102 162.09 587.102C161.09 571.002 160.19 567.702 153.99 559.502C150.29 554.502 141.39 546.402 140.59 547.202C140.39 547.402 141.79 551.002 143.69 555.102C145.69 559.202 147.99 564.802 148.99 567.602C149.99 570.802 151.49 573.002 152.89 573.602C154.89 574.502 155.09 575.102 154.69 578.502C154.39 580.702 151.79 587.202 148.99 593.002C144.19 602.602 143.79 603.902 144.19 609.202C144.49 613.302 145.39 616.102 147.39 619.102C148.89 621.402 150.39 623.102 150.59 622.802C150.79 622.602 150.49 619.202 149.79 615.302C149.19 611.402 148.89 607.902 149.19 607.502C150.79 606.002 154.29 608.602 156.19 612.802C157.69 616.302 158.09 618.802 157.79 623.302C157.49 628.002 157.69 629.402 159.19 630.802C160.89 632.302 160.99 632.202 160.99 629.002C160.99 624.202 162.29 622.302 164.49 624.102C166.89 626.102 168.69 630.002 169.49 635.102C170.19 639.402 173.49 647.102 174.59 647.102C174.89 647.102 176.19 644.702 177.49 641.802C180.59 634.802 184.59 630.102 187.49 630.102C189.09 630.102 192.09 632.602 197.49 638.602C201.79 643.302 205.59 647.102 205.89 647.102C206.29 647.102 207.59 644.302 208.79 640.802C211.49 633.402 213.49 630.002 217.29 627.002L220.09 624.802L223.99 628.602C226.09 630.702 228.79 634.502 229.89 637.102C230.99 639.702 232.59 642.402 233.39 643.102C235.99 645.202 240.89 641.502 244.39 634.602C249.99 623.902 252.09 621.102 254.29 621.102C257.59 621.202 260.49 623.202 264.29 628.002C266.29 630.502 269.49 633.502 271.59 634.702C275.29 636.902 275.39 637.002 277.89 635.102C279.29 634.102 281.79 631.002 283.49 628.202C285.09 625.402 287.19 622.902 288.09 622.602C290.59 621.802 299.99 625.602 304.29 629.202C307.09 631.502 307.89 632.802 307.39 634.502C306.79 637.102 312.69 646.602 314.99 646.602C315.79 646.602 317.89 644.102 319.69 641.102C324.39 632.902 326.89 630.102 329.39 630.102C331.69 630.102 332.79 632.002 336.19 641.602C338.19 647.202 340.09 647.102 343.99 641.102C347.29 635.902 352.29 631.102 354.29 631.102C355.59 631.102 360.99 637.602 364.19 643.102C366.09 646.302 366.29 646.402 367.59 644.702C368.29 643.702 369.19 640.302 369.59 637.202C371.19 624.202 378.89 617.702 378.99 629.302C378.99 631.402 379.39 633.102 379.89 633.102C381.99 633.102 382.79 630.102 382.69 623.102C382.49 614.702 384.89 608.602 388.59 608.602C390.19 608.602 390.49 609.202 390.19 612.102C390.09 614.002 389.69 616.902 389.29 618.602C388.79 621.302 388.89 621.502 390.49 620.102C392.89 618.102 394.99 612.902 394.99 609.002C394.99 607.302 393.19 602.302 390.99 598.102C388.89 593.802 386.09 587.402 384.99 583.702L382.79 577.202L385.39 573.802C386.89 571.902 389.09 567.702 390.39 564.502C391.79 561.202 394.29 556.002 395.99 552.802C397.69 549.702 398.69 547.102 398.19 547.102C396.29 547.102 386.29 557.902 384.19 562.302C381.09 568.502 380.09 574.602 379.39 590.102C378.49 611.902 377.39 613.202 374.39 596.002C372.59 585.802 371.89 553.702 373.29 542.102C373.89 536.302 373.89 535.802 372.49 537.502C369.79 541.002 364.99 553.802 361.99 565.702C360.29 572.202 358.69 577.702 358.39 578.002C357.59 578.802 358.19 553.702 359.19 545.102C360.49 533.702 361.89 528.302 365.69 519.902C368.39 514.202 369.09 511.502 368.59 509.402C368.09 507.602 363.49 502.402 355.89 495.102C346.69 486.102 343.99 483.002 343.99 481.002C343.99 475.802 345.89 475.502 359.79 478.102C366.79 479.402 377.19 480.502 382.99 480.702C393.09 480.902 396.39 480.602 414.79 478.002C419.79 477.302 426.49 477.202 431.59 477.602L439.99 478.302L437.29 480.402L434.59 482.502L437.09 483.202C438.39 483.502 441.59 483.602 444.29 483.302C449.19 482.802 450.89 484.302 446.79 485.502C445.323 485.968 445.223 486.502 446.49 487.102C447.757 487.702 447.723 488.002 446.39 488.002C445.29 488.102 443.89 487.602 443.39 487.102C442.59 486.302 440.89 486.302 437.89 487.002C435.49 487.602 429.19 488.102 423.99 488.102C413.49 488.102 409.69 488.802 410.29 490.502C410.99 493.002 419.69 496.002 433.19 498.602C455.69 502.802 464.69 506.002 454.79 506.202C452.39 506.302 449.79 506.402 448.99 506.502C448.19 506.702 445.39 506.802 442.79 506.902C440.09 507.002 437.99 507.502 437.99 507.902C437.99 508.402 439.69 509.602 441.89 510.502C444.09 511.502 446.99 514.102 448.69 516.502C450.89 519.502 452.79 521.002 455.89 521.902C462.89 524.002 469.29 524.402 477.09 523.102C486.99 521.502 490.99 519.702 490.99 517.102C490.99 516.002 493.09 512.902 495.59 510.302C498.09 507.702 503.09 501.102 506.69 495.602C510.29 490.102 513.69 485.102 514.29 484.602C515.79 483.002 514.39 488.502 510.29 499.302C508.29 504.802 506.99 509.702 507.39 510.602C507.89 512.102 509.19 512.302 516.39 511.902C527.29 511.302 533.09 508.502 537.89 501.602C541.09 496.802 541.19 496.302 540.79 488.602ZM65.69 470.102C62.39 470.102 56.79 470.602 53.19 471.202C45.09 472.602 42.59 471.602 39.89 465.702C38.89 463.202 37.19 456.702 36.29 451.102L34.59 441.002L37.49 428.302C38.99 421.302 41.19 413.202 42.29 410.302C43.39 407.402 44.39 405.202 44.49 405.302C44.69 405.502 44.39 409.202 43.99 413.602C43.49 418.002 43.09 425.002 43.09 429.202C42.99 439.002 45.39 444.002 55.69 455.102C63.69 463.702 68.99 467.002 74.79 467.102C76.49 467.102 77.99 467.502 77.99 468.002C77.99 469.202 72.79 470.102 65.69 470.102ZM190.39 606.202C188.49 610.302 187.89 613.202 188.19 616.002C188.39 618.302 188.19 620.102 187.79 620.102C186.39 620.102 183.99 615.602 183.99 613.002C183.99 609.202 187.79 598.802 189.69 597.302C193.79 594.302 194.09 597.902 190.39 606.202ZM212.39 614.202L208.49 618.202L206.79 616.002C204.49 613.302 204.49 609.902 206.69 603.802C207.59 601.202 208.69 599.102 209.19 599.102C209.59 599.102 209.69 601.202 209.39 603.802C208.79 609.802 209.89 611.802 212.99 610.102C216.79 608.102 216.49 610.002 212.39 614.202ZM264.49 596.902C261.59 584.602 255.99 576.202 252.59 579.002C251.89 579.602 249.79 583.102 247.89 586.702C244.79 592.902 244.59 593.902 244.79 602.202C244.89 607.102 244.59 611.102 244.19 611.102C243.79 611.102 242.09 606.802 240.59 601.502C238.99 596.302 236.89 591.002 235.89 589.702C233.69 586.902 222.59 584.602 218.59 586.102C217.19 586.602 215.99 586.802 215.99 586.502C215.99 584.802 219.39 580.102 222.89 576.802C225.19 574.702 226.99 572.602 226.99 572.202C226.99 571.702 224.79 569.402 222.09 567.202C215.99 562.102 210.69 554.302 207.39 545.402C205.19 539.602 204.79 537.102 204.89 528.602C204.99 523.102 205.29 517.102 205.59 515.302C206.39 511.202 204.59 511.102 202.49 515.202C199.49 520.802 200.09 517.702 203.99 506.102C206.19 499.802 208.59 490.902 209.29 486.402C210.79 478.202 213.79 472.102 216.49 472.102C217.39 472.102 218.99 468.602 220.89 462.302C222.59 457.002 224.99 451.002 226.19 449.102C228.09 446.102 228.39 445.902 228.79 447.602C228.99 448.702 228.99 454.102 228.79 459.602C228.29 471.202 227.19 474.002 219.79 482.602C210.39 493.602 206.29 507.902 207.29 525.602C208.09 538.202 209.99 544.402 215.29 552.302C221.09 560.902 226.39 563.602 237.49 563.502C243.89 563.502 247.29 562.902 254.89 560.302C259.99 558.502 264.49 557.202 264.79 557.502C265.09 557.802 265.69 566.102 266.09 575.802C266.49 585.602 267.19 596.302 267.59 599.502C268.59 607.702 266.69 606.102 264.49 596.902ZM270.99 536.002V521.802C270.89 504.602 269.39 496.202 266.99 500.102C265.89 501.902 265.19 507.602 264.39 522.402C263.59 536.302 262.29 539.102 254.29 543.402C248.19 546.702 235.89 549.502 231.29 548.602C225.59 547.602 219.69 538.702 216.49 526.602C214.49 518.902 214.59 516.002 216.89 507.002C219.79 495.802 222.49 489.202 228.09 480.002C233.59 471.002 235.49 464.802 236.49 452.602C237.49 440.802 242.99 428.602 253.69 414.302C258.39 408.202 262.49 403.102 262.99 403.102C263.39 403.102 264.49 406.902 265.49 411.602C266.49 416.302 267.59 420.102 267.99 420.102C268.39 420.102 269.49 417.302 270.39 413.802C271.39 410.402 272.59 406.102 273.09 404.402C273.99 401.602 274.39 401.302 276.09 402.102C278.29 403.402 280.09 406.602 282.49 414.102C283.49 417.102 285.49 421.802 286.99 424.602C288.49 427.302 290.09 431.102 290.49 433.002C290.89 434.802 292.69 438.402 294.59 440.802C298.89 446.402 299.59 449.402 298.09 454.502C295.09 464.202 295.39 465.902 301.49 474.102C311.99 488.002 318.99 505.502 318.99 517.702C318.99 531.102 311.29 547.002 304.29 548.402C300.19 549.202 286.09 547.202 281.49 545.202C279.29 544.202 275.99 541.802 274.29 539.702L270.99 536.002ZM311.29 621.102C310.29 619.702 307.59 616.602 305.29 614.102C299.29 607.802 299.99 605.402 306.49 609.802C309.49 611.802 309.99 611.402 309.99 606.602C309.99 604.102 310.49 602.102 310.99 602.102C311.59 602.102 311.99 605.502 311.99 610.302C311.99 615.102 312.29 619.702 312.59 621.102L313.09 623.602L311.29 621.102ZM330.69 619.202C329.49 620.202 328.29 621.002 327.99 621.102C327.09 621.102 324.99 607.402 325.09 602.302C325.19 599.702 325.39 598.402 325.69 599.402C325.99 600.502 326.79 601.002 327.49 600.702C328.39 600.402 328.69 600.702 328.39 601.502C328.09 602.202 328.99 606.102 330.39 610.102L332.99 617.302L330.69 619.202ZM337.19 533.402C333.89 539.802 330.89 546.802 330.49 548.902C330.19 550.902 328.49 556.602 326.89 561.602C320.89 579.502 319.99 580.302 319.99 567.002V557.902L314.79 562.302C311.89 564.702 307.59 567.902 305.39 569.402C298.19 574.202 296.59 576.502 296.59 582.102C296.59 586.202 297.29 588.002 300.29 592.302C302.29 595.202 303.69 597.702 303.49 597.902C302.89 598.602 294.69 593.602 292.89 591.502C291.99 590.402 290.09 586.002 288.49 581.602C285.69 573.502 284.39 571.102 282.89 571.102C281.89 571.102 279.39 582.402 277.49 596.102C275.79 607.502 274.29 612.402 272.79 611.402C270.39 610.002 275.19 563.502 277.99 560.702C278.59 560.102 281.89 560.602 286.79 561.902C291.19 563.102 296.29 564.102 298.09 564.102C305.79 564.002 314.99 557.002 323.19 545.002C327.79 538.402 328.99 531.902 328.59 517.102C328.19 504.002 325.89 493.702 321.49 484.202C319.59 480.202 317.99 476.702 317.99 476.502C317.99 473.302 334.29 498.102 338.99 508.502C343.89 519.302 343.89 520.102 337.19 533.402ZM344.89 597.702C349.79 604.802 352.39 616.302 349.79 618.902C347.79 620.902 346.69 620.302 347.39 617.602C347.79 616.002 347.19 612.802 345.59 608.802C344.29 605.402 342.89 601.502 342.49 600.102C342.09 598.702 341.59 596.802 341.39 595.802C340.49 593.002 342.29 593.902 344.89 597.702ZM500.09 448.602C498.79 451.902 496.59 458.202 494.99 462.602C493.19 467.902 491.29 471.302 489.59 472.502C487.09 474.402 486.89 474.402 474.79 472.202C467.99 471.002 462.09 469.602 461.69 469.202C461.19 468.702 463.69 467.802 467.19 467.102C476.19 465.402 478.29 464.002 484.29 455.802C495.19 441.002 495.49 440.402 495.89 424.602L496.29 410.602L498.09 417.002C499.09 420.602 500.49 427.802 501.09 433.002C502.19 442.002 502.09 443.002 500.09 448.602Z" fill="#15151C"/>
<path d="M276.69 709.612C273.19 716.912 274.99 727.312 282.19 741.612L286.19 749.512L288.59 744.912C290.99 740.212 293.49 727.512 294.59 715.012L295.19 708.412L289.39 707.312C279.99 705.412 278.59 705.612 276.69 709.612Z" fill="#15151C"/>
<path d="M373.29 648.412C370.89 647.612 367.29 670.012 368.69 676.612C369.79 681.612 372.79 682.412 376.49 678.712C378.69 676.512 378.99 675.412 378.99 668.912C378.99 664.012 378.19 659.512 376.69 655.212C375.49 651.612 373.89 648.612 373.29 648.412Z" fill="#15151C"/>
<path d="M372.09 691.612L373.89 703.612C375.69 715.412 375.69 715.512 376.79 711.612C378.69 705.012 379.89 697.912 380.19 692.612C380.59 686.712 378.69 685.712 374.59 689.312L372.09 691.612Z" fill="#15151C"/>
<path d="M386.09 681.812C384.09 683.512 383.99 684.012 385.09 689.812C385.69 693.312 386.59 696.112 386.99 696.112C388.09 696.112 390.99 688.512 390.99 685.712C390.99 684.312 390.69 682.612 390.39 681.712C389.59 679.712 388.69 679.712 386.09 681.812Z" fill="#15151C"/>
<path d="M382.49 668.912C382.89 669.312 383.49 669.112 383.69 668.412C383.89 667.712 384.69 667.412 385.49 667.712C386.19 668.012 387.79 667.312 388.89 666.212C391.79 663.312 391.59 658.612 388.29 647.412C386.69 642.312 385.19 638.112 384.79 638.112C383.49 638.112 382.79 642.412 383.49 646.812C383.89 649.312 383.59 655.112 382.89 659.712C382.19 664.312 381.99 668.412 382.49 668.912Z" fill="#15151C"/>
</g>
<defs>
<filter id="filter0_n_267_252" x="0" y="0.551758" width="540.96" height="820.75" filterUnits="userSpaceOnUse" color-interpolation-filters="sRGB">
<feFlood flood-opacity="0" result="BackgroundImageFix"/>
<feBlend mode="normal" in="SourceGraphic" in2="BackgroundImageFix" result="shape"/>
<feTurbulence type="fractalNoise" baseFrequency="4 4" stitchTiles="stitch" numOctaves="3" result="noise" seed="8289" />
<feColorMatrix in="noise" type="luminanceToAlpha" result="alphaNoise" />
<feComponentTransfer in="alphaNoise" result="coloredNoise1">
<feFuncA type="discrete" tableValues="1 1 1 1 1 1 1 1 1 1 1 1 1 1 1 1 1 1 1 1 1 1 1 1 1 1 1 1 1 1 1 1 1 1 1 1 1 1 1 1 1 1 1 1 1 1 1 1 1 1 1 0 0 0 0 0 0 0 0 0 0 0 0 0 0 0 0 0 0 0 0 0 0 0 0 0 0 0 0 0 0 0 0 0 0 0 0 0 0 0 0 0 0 0 0 0 0 0 0 0 "/>
</feComponentTransfer>
<feComposite operator="in" in2="shape" in="coloredNoise1" result="noise1Clipped" />
<feFlood flood-color="rgba(0, 0, 0, 0.25)" result="color1Flood" />
<feComposite operator="in" in2="noise1Clipped" in="color1Flood" result="color1" />
<feMerge result="effect1_noise_267_252">
<feMergeNode in="shape" />
<feMergeNode in="color1" />
</feMerge>
</filter>
<clipPath id="clip0_267_252">
<rect width="540.96" height="820.75" fill="white" transform="translate(0 0.551758)"/>
</clipPath>
</defs>
</svg>
