<svg width="159" height="64" viewBox="0 0 159 64" fill="none" xmlns="http://www.w3.org/2000/svg">
<g clip-path="url(#clip0_1_1103)">
<path d="M0.5 17.9771V0.000488281H7.67524V17.9771H14.8505V0.000488281H22.0257V17.9771L11.2629 28.763L0.5 17.9771Z" fill="#FEFEFE"/>
<path d="M25.6134 28.763V0.000488281H32.7886V28.763H25.6134Z" fill="#FEFEFE"/>
<path d="M68.6648 28.763V7.19112H61.4895V0.000488281H83.0153V7.19112H75.84V28.763H68.6648Z" fill="#FEFEFE"/>
<path d="M86.6028 28.763V0.000488281H93.7781V21.5724H100.953V0.000488281H108.129V28.763H86.6028Z" fill="#FEFEFE"/>
<path d="M111.719 28.763V0.000488281H133.244V28.763H126.069V17.9771H118.894V28.763H111.719ZM126.069 10.7864V7.19112H118.894V10.7864H126.069Z" fill="#FEFEFE"/>
<path d="M136.832 28.763V0.000488281H144.007V21.5724H158.358V28.763H136.832Z" fill="#FEFEFE"/>
<path d="M11.2629 39.293L7.21683 35.2383H0.5V64.0008H7.67524V53.2149H14.8505V64.0008H22.0281V53.2149L20.2331 51.4184L22.0088 49.6195H22.0305V35.2383H15.3113L11.2653 39.293H11.2629ZM14.8505 46.0242H7.67524V42.4289H14.8505V46.0242Z" fill="#FEFEFE"/>
<path d="M32.791 35.2383H25.6134V64.0008H32.791V35.2383Z" fill="#FEFEFE"/>
<path d="M61.4895 64.0008H68.6648V53.2149H75.8424V64.0008H83.0177V35.2383H61.492V64.0008H61.4895ZM68.6648 42.4289H75.8424V46.0242H68.6648V42.4289Z" fill="#FEFEFE"/>
<path d="M93.7781 56.8078V35.2383H86.6053V64.0008H108.131V56.8078H93.7781Z" fill="#FEFEFE"/>
<path d="M53.1224 55.9168C53.0983 56.531 53.091 57.5924 53.0983 58.2089C53.1007 58.2645 53.0766 58.3153 53.038 58.354L47.3417 63.8062C47.2283 63.915 47.0497 63.915 46.9363 63.8038L41.2184 58.25C41.1773 58.2113 41.1532 58.1557 41.1532 58.0977C41.1508 57.5344 41.1339 56.6035 41.1436 56.016C41.1436 55.9724 41.187 55.941 41.228 55.9579L42.3282 56.8283C42.3499 56.8356 42.3644 56.8549 42.3692 56.8767C42.444 57.4981 42.7504 58.221 42.9651 59.0237L43.0158 59.0189L43.0375 57.0556C43.0375 57.0363 43.0568 57.0242 43.0761 57.0314L44.1642 57.4594L44.6974 60.767H44.7022L44.9724 57.8463C44.9773 57.8124 45.011 57.7931 45.04 57.8052L46.6106 58.4241C46.6372 58.4338 46.6565 58.458 46.6589 58.487C46.8133 59.9232 46.9653 61.8284 47.098 62.5489C47.1655 62.7303 47.3803 60.2157 47.5854 58.4531L49.0764 57.8632C49.1198 57.8463 49.1681 57.8753 49.1729 57.9212C49.2549 58.7481 49.4045 60.3801 49.419 60.7622C49.419 60.767 49.4262 60.767 49.4286 60.7622L50.0631 57.4739L51.1054 57.0629C51.144 57.0484 51.1874 57.0726 51.1947 57.1137V59.0044C51.2695 59.0116 51.8437 57.2466 51.8365 56.9275C51.8365 56.8936 51.8461 56.8646 51.8702 56.8453L53.0597 55.8806C53.0959 55.8661 53.1224 55.8806 53.1224 55.9168Z" fill="#FEFEFE"/>
<path d="M45.3416 51.8045C45.537 52.039 45.7252 52.1188 45.9568 52.0656C46.2632 51.993 46.4128 51.7706 46.4876 51.4805C46.2125 51.8746 45.8699 52.0535 45.3391 51.8045H45.3416Z" fill="#FEFEFE"/>
<path d="M47.6819 51.4062C47.7591 51.7907 48.0076 52.0494 48.3164 52.0905C48.5046 52.1147 48.6928 52.0228 48.7869 51.8487C48.2875 52.0591 47.957 51.8342 47.6819 51.4087V51.4062Z" fill="#FEFEFE"/>
<path d="M55.8801 52.0131C56.5942 51.5852 57.277 51.1379 57.8922 50.6035V53.2148L53.9065 57.209C53.95 56.8415 53.9934 56.4716 54.0368 56.1041C54.0802 55.7172 54.1478 55.3328 54.1599 54.9459C54.1743 54.5277 54.1188 54.1094 54.1213 53.6935C54.1237 53.4735 54.1574 53.2462 54.2274 53.0383C54.4518 52.3734 54.874 51.8366 55.3855 51.3676C55.4241 51.3313 55.4699 51.3023 55.5278 51.2587C55.6509 51.5223 55.7643 51.7665 55.8801 52.0131Z" fill="#FEFEFE"/>
<path d="M40.0578 55.1434C40.1278 55.8083 40.205 56.4756 40.2846 57.1405L36.3665 53.214V50.6221C36.8659 51.0476 37.4063 51.4248 37.9661 51.7778C38.0771 51.8479 38.1953 51.9156 38.3135 51.9881C38.439 51.7246 38.5499 51.4877 38.6561 51.2604C38.6923 51.2604 38.7019 51.258 38.7068 51.2604C38.7261 51.27 38.7454 51.2797 38.7623 51.2942C39.5826 52.0558 40.2195 52.8997 40.0916 54.1086C40.0578 54.4519 40.0217 54.8025 40.0578 55.1434Z" fill="#FEFEFE"/>
<path d="M57.8922 14.3817V0.000488281H36.3665V33.809C36.5233 33.5769 36.685 33.3496 36.8611 33.1272C38.1422 31.4806 39.7539 30.2621 41.6864 29.4642C41.7467 29.44 41.807 29.4182 41.8698 29.3965C41.8794 29.3941 41.8963 29.4013 41.947 29.4134C40.0096 30.3539 38.5017 31.7369 37.4088 33.5503C36.9817 34.2587 36.6319 34.9913 36.3665 35.7505V38.8744C37.6114 37.7815 39.3558 37.4479 40.9626 38.0281C42.1472 38.4561 43.1075 39.2032 43.9784 40.0833C44.3162 40.4242 44.625 40.7917 44.9266 41.1641C44.3669 40.8159 43.812 40.4581 43.245 40.1244C42.3426 39.5949 41.4017 39.1718 40.3522 39.0098C38.8901 38.7849 37.3943 39.2975 36.3665 40.313V43.8914C36.3858 43.8285 36.4051 43.7681 36.422 43.7052C36.4123 45.2986 36.8442 46.7807 37.4064 48.2556C37.1579 48.0912 36.9118 47.9243 36.644 47.7454C36.5523 47.8784 36.4582 48.0089 36.3665 48.1395V49.1284C36.7019 49.5153 37.0975 49.8441 37.5101 50.1487C37.6307 50.2382 37.7586 50.318 37.8937 50.4099C38.3497 49.6676 38.9866 49.1888 39.819 48.9906C40.4367 48.8431 41.035 48.9084 41.6164 49.1743C42.7045 49.67 43.105 50.8958 43.0134 51.8436C42.5164 49.9263 40.3787 49.4911 39.2834 50.3688C39.392 50.4655 39.4957 50.5598 39.6019 50.6541C40.3739 51.3262 40.9361 52.1313 41.1315 53.1517C41.1725 53.3669 41.1436 53.5941 41.1436 53.8166C41.1436 54.2784 41.1339 54.7402 41.1436 55.1996C41.146 55.2963 41.1942 55.4196 41.2618 55.4825C41.5899 55.7871 41.9277 56.0748 42.2896 56.3891C42.3233 56.4182 42.374 56.4012 42.3861 56.3601C42.6008 55.5405 42.8083 54.7499 43.0182 53.9568L43.0689 53.9641C43.0689 54.7184 43.0785 55.4704 43.064 56.2223C43.064 56.4327 43.1147 56.5439 43.3222 56.6213C43.6262 56.7349 43.9133 56.8896 44.239 57.0395C44.4658 56.0216 44.6878 55.0207 44.9097 54.0197C44.9218 54.0197 44.9338 54.0197 44.9459 54.0173C44.9531 54.0656 44.9628 54.114 44.9652 54.1623C45.0038 55.098 45.0424 56.0337 45.0738 56.9718C45.0786 57.0903 45.1124 57.1483 45.233 57.1822C45.6914 57.3103 46.145 57.4506 46.6299 57.5981C46.7819 56.3746 46.9315 55.173 47.0811 53.9737H47.1342C47.2838 55.1609 47.4309 56.348 47.5829 57.5473C48.0631 57.4167 48.5311 57.2934 48.9919 57.1532C49.0426 57.1387 49.0957 57.0299 49.1005 56.9622C49.1512 55.9975 49.1922 55.0327 49.238 54.068C49.238 54.0342 49.2428 54.0003 49.279 53.9616C49.4913 54.9796 49.7061 55.9975 49.928 57.0516C50.3068 56.8776 50.6687 56.7204 51.0186 56.5463C51.0403 56.5342 51.0572 56.5076 51.0716 56.4738C51.0885 56.4278 51.0958 56.3698 51.0982 56.3239C51.1151 55.6179 51.1271 54.9119 51.1392 54.2058C51.1392 54.1333 51.1392 54.0632 51.1899 53.9834C51.3901 54.7499 51.5904 55.5163 51.7978 56.3118C51.8147 56.3795 51.8992 56.4037 51.9523 56.3577C52.3045 56.0386 52.6399 55.7412 52.9632 55.4317C53.0162 55.3833 53.038 55.2769 53.038 55.1972C53.0476 54.7426 53.0862 54.2856 53.038 53.8359C52.9583 53.0961 53.2092 52.4626 53.5663 51.8485C53.8993 51.273 54.3577 50.8064 54.874 50.3905C53.9958 49.5902 51.7279 49.7643 51.1561 51.846C51.0813 50.7991 51.5325 49.5564 52.7436 49.0849C53.81 48.6714 55.412 49.0027 56.3143 50.4074C56.8379 50.0496 57.3301 49.6531 57.7547 49.184C57.8054 49.126 57.8512 49.0752 57.8922 49.0317V48.2241C57.8705 48.1951 57.8488 48.1637 57.8222 48.1274C57.7426 48.0089 57.6534 47.8953 57.5593 47.7672C57.2746 47.9582 57.0019 48.1419 56.7269 48.3233C57.3421 46.8387 57.7475 45.3155 57.7764 43.6907C57.815 43.8092 57.8536 43.9301 57.8922 44.0485V40.3928C56.7341 39.2056 54.9753 38.7051 53.2792 39.1379C52.1863 39.416 51.2116 39.9503 50.2658 40.5378C49.9401 40.7385 49.6265 40.9537 49.2646 41.1882C49.2911 41.1254 49.2959 41.1012 49.308 41.0843C50.1693 40.076 51.0909 39.1403 52.2538 38.4633C54.1019 37.3826 56.3192 37.5615 57.8922 38.9131V35.9802C57.125 33.6228 55.4048 30.9681 52.1911 29.3505C52.2852 29.3844 52.3817 29.411 52.471 29.4521C54.7654 30.4507 56.5894 31.9062 57.8922 33.8405V17.9771L56.0996 16.1806L57.8729 14.3817H57.8922ZM41.6237 47.2981C41.5706 47.2981 41.5151 47.2933 41.4572 47.2739C42.0869 47.1168 42.5912 46.7565 43.0833 46.3068C41.1822 46.8339 39.749 46.0698 38.4559 44.7884C38.6127 45.0785 38.7526 45.3783 38.9336 45.6516C39.1145 45.9224 39.3389 46.1666 39.5343 46.4132C38.2508 45.6951 36.878 43.8261 37.5487 41.3164C37.3267 41.5509 37.1024 41.7854 36.8732 42.0248C36.9214 41.7298 37.2664 41.2052 37.597 40.9416C38.3811 40.3106 39.2713 40.2114 40.2171 40.4484C40.9771 40.6394 41.602 41.0891 42.2196 41.5437C42.4971 41.7492 42.7697 41.9644 43.0496 42.1699C43.9905 42.8638 44.9942 43.2434 46.1932 42.7502C46.0461 43.1322 45.8169 43.4054 45.5032 43.5916C45.3247 43.6955 45.2668 43.8237 45.2475 44.0171C45.0593 45.8015 43.4211 47.2812 41.6237 47.2981ZM46.9556 47.2691C46.9412 48.2846 46.9291 49.3001 46.8736 50.3131C46.8471 50.7459 46.7457 51.1836 46.6131 51.597C46.4562 52.0878 46.0823 52.3296 45.648 52.3272C45.2933 52.3272 45.0496 52.1362 44.8735 51.8557C44.5647 51.3601 44.5575 50.8209 44.6612 50.2672C44.777 49.6361 45.0521 49.0631 45.3392 48.4973C46.0002 47.1966 46.4972 45.8329 46.9291 44.4426C46.9363 44.4233 46.946 44.4064 46.9581 44.3846C46.9581 45.3566 46.9677 46.314 46.9556 47.2691ZM49.5661 51.0868C49.5275 51.3818 49.4117 51.6889 49.2573 51.9452C48.975 52.4094 48.3502 52.4674 47.9376 52.1144C47.6457 51.8654 47.4913 51.5317 47.4599 51.1715C47.3827 50.2527 47.32 49.3339 47.291 48.4151C47.2524 47.1409 47.25 45.8667 47.2331 44.5925C47.2307 44.5248 47.2331 44.4572 47.2331 44.387C47.2452 44.387 47.2596 44.3846 47.2717 44.3846C47.3851 44.7376 47.4913 45.093 47.6071 45.446C48.0148 46.6719 48.548 47.8445 49.1101 49.0051C49.4262 49.6603 49.6651 50.347 49.5661 51.0868ZM50.7218 42.46C51.4239 42.0055 52.0729 41.4711 52.7677 41.0021C53.7063 40.371 54.7244 40.1292 55.8342 40.504C56.5653 40.7506 57.0526 41.2511 57.359 41.945C57.3735 41.974 57.3759 42.0103 57.3807 42.0272C57.1612 41.812 56.9368 41.592 56.7124 41.3744C56.9826 42.5664 56.8765 43.6955 56.2975 44.7642C55.9042 45.4847 55.1635 46.2173 54.5627 46.4978C55.0718 46.0239 55.4627 45.4726 55.6895 44.815C54.4421 46.0819 53.0235 46.8242 51.1923 46.3286C51.3708 46.6139 51.822 46.9016 52.6809 47.2667C52.4879 47.332 52.085 47.3054 51.6989 47.199C50.22 46.7928 49.0643 45.4146 48.9147 43.889C48.9075 43.8068 48.8351 43.7076 48.7627 43.6617C48.4274 43.4417 48.174 43.1588 48.0027 42.7695C48.051 42.7768 48.0775 42.7743 48.1017 42.784C49.0354 43.1612 49.9136 42.9823 50.7218 42.46ZM50.717 10.7864H43.5417V7.19112H50.717V10.7864Z" fill="#FEFEFE"/>
<path d="M47.2501 22.1611L48.5167 23.4304C48.6132 23.5271 48.7724 23.5271 48.8714 23.4304C48.9703 23.3337 48.9679 23.1741 48.8714 23.075L47.6047 21.8056L48.8714 20.5363C48.9679 20.4396 48.9679 20.28 48.8714 20.1809C48.7749 20.0817 48.6156 20.0842 48.5167 20.1809L47.2501 21.4502L45.9834 20.1809C45.8869 20.0842 45.7277 20.0842 45.6287 20.1809C45.5805 20.2292 45.5564 20.2945 45.5564 20.3574C45.5564 20.4202 45.5805 20.4855 45.6287 20.5339L46.8954 21.8032L45.6287 23.0726C45.5805 23.1209 45.5564 23.1862 45.5564 23.2491C45.5564 23.312 45.5805 23.3772 45.6287 23.4256C45.7253 23.5223 45.8845 23.5223 45.9834 23.4256L47.2501 22.1562V22.1611Z" fill="black"/>
<path d="M45.5516 15.9659C45.5516 15.0617 46.285 14.3242 47.1898 14.3242C48.0945 14.3242 48.8256 15.0592 48.8256 15.9659C48.8256 16.8726 48.0921 17.6076 47.1898 17.6076C46.2874 17.6076 45.5516 16.8726 45.5516 15.9659ZM48.3261 15.9659C48.3261 15.3373 47.8171 14.8271 47.1898 14.8271C46.5625 14.8271 46.0534 15.3373 46.0534 15.9659C46.0534 16.5946 46.5625 17.1047 47.1898 17.1047C47.8171 17.1047 48.3261 16.5946 48.3261 15.9659Z" fill="black"/>
<path d="M45.4358 35.3426V32.4993C45.4358 32.3469 45.5588 32.2236 45.7108 32.2236H48.5481C48.7001 32.2236 48.8231 32.3469 48.8231 32.4993V35.3426C48.8231 35.495 48.7001 35.6183 48.5481 35.6183H45.7108C45.5588 35.6183 45.4358 35.495 45.4358 35.3426ZM45.9352 33.0022V34.8446C45.9352 34.9969 46.0582 35.1202 46.2102 35.1202H48.0487C48.2007 35.1202 48.3237 34.9969 48.3237 34.8446V33.0022C48.3237 32.8499 48.2007 32.7265 48.0487 32.7265H46.2102C46.0582 32.7265 45.9352 32.8499 45.9352 33.0022Z" fill="black"/>
<path d="M48.5432 29.7237L45.7132 29.7117C45.5733 29.7117 45.4454 29.6391 45.373 29.5182C45.3006 29.3973 45.2934 29.2523 45.3585 29.1265L46.8327 26.2276C46.9026 26.0897 47.0498 25.9979 47.197 26.0075C47.3514 26.01 47.4889 26.0994 47.5541 26.2396L48.9076 29.1507C48.9655 29.2764 48.9558 29.4215 48.881 29.5376C48.8062 29.6536 48.6808 29.7237 48.5432 29.7237ZM45.8773 29.2087L48.3888 29.2208L47.1873 26.6338L45.8773 29.2087Z" fill="black"/>
<path d="M157.786 32.2422H112.435C112.039 32.2422 111.719 32.5637 111.719 32.9603V40.4846C111.719 40.8812 112.039 41.2027 112.435 41.2027H157.786C158.182 41.2027 158.502 40.8812 158.502 40.4846V32.9603C158.502 32.5637 158.182 32.2422 157.786 32.2422Z" fill="#FEFEFE"/>
<path d="M113.653 35.2354H114.688C114.995 35.2354 115.27 35.2958 115.516 35.4167C115.762 35.5376 115.955 35.7092 116.097 35.9341C116.24 36.159 116.31 36.4201 116.31 36.7175C116.31 37.0149 116.24 37.2736 116.097 37.5009C115.958 37.7281 115.762 37.9046 115.516 38.0279C115.27 38.1537 114.995 38.2141 114.688 38.2141H113.653V35.2378V35.2354ZM114.684 37.5129C114.927 37.5129 115.125 37.4428 115.282 37.2978C115.439 37.1551 115.516 36.9593 115.516 36.7126C115.516 36.466 115.439 36.2678 115.284 36.1348C115.13 36.0018 114.93 35.9365 114.684 35.9365H114.428V37.5105H114.684V37.5129Z" fill="#1E1E27"/>
<path d="M116.797 35.2354H118.86V35.9341H117.572V36.3451H118.491V36.9955H117.572V37.5154H118.913V38.2141H116.797V35.2378V35.2354Z" fill="#1E1E27"/>
<path d="M119.439 35.2354H121.456V35.9341H120.213V36.5023H121.222V37.201H120.213V38.2117H119.439V35.2354Z" fill="#1E1E27"/>
<path d="M121.924 35.2354H122.699V38.2117H121.924V35.2354Z" fill="#1E1E27"/>
<path d="M125.97 35.2358V38.2678H125.722L124.11 36.7034V38.2146H123.335V35.1826H123.584L125.196 36.7252V35.2358H125.97Z" fill="#1E1E27"/>
<path d="M126.609 35.2354H127.384V38.2117H126.609V35.2354Z" fill="#1E1E27"/>
<path d="M128.663 35.9341H127.772V35.2354H130.33V35.9341H129.439V38.2117H128.665V35.9341H128.663Z" fill="#1E1E27"/>
<path d="M130.716 35.2354H131.49V38.2117H130.716V35.2354Z" fill="#1E1E27"/>
<path d="M134.788 35.2354L133.437 38.2673H133.189L131.838 35.2354H132.716L133.314 36.6957L133.908 35.2354H134.786H134.788Z" fill="#1E1E27"/>
<path d="M135.141 35.2354H137.203V35.9341H135.915V36.3451H136.834V36.9955H135.915V37.5154H137.256V38.2141H135.141V35.2378V35.2354Z" fill="#1E1E27"/>
<path d="M139.088 35.2354H141.15V35.9341H139.862V36.3451H140.781V36.9955H139.862V37.5154H141.204V38.2141H139.088V35.2378V35.2354Z" fill="#1E1E27"/>
<path d="M141.732 35.2354H142.767C143.073 35.2354 143.348 35.2958 143.595 35.4167C143.841 35.5376 144.034 35.7092 144.176 35.9341C144.318 36.159 144.388 36.4201 144.388 36.7175C144.388 37.0149 144.318 37.2736 144.176 37.5009C144.036 37.7281 143.841 37.9046 143.595 38.0279C143.348 38.1537 143.073 38.2141 142.767 38.2141H141.732V35.2378V35.2354ZM142.762 37.5129C143.006 37.5129 143.204 37.4428 143.361 37.2978C143.517 37.1551 143.595 36.9593 143.595 36.7126C143.595 36.466 143.517 36.2678 143.363 36.1348C143.209 36.0018 143.008 35.9365 142.762 35.9365H142.506V37.5105H142.762V37.5129Z" fill="#1E1E27"/>
<path d="M144.873 35.2354H145.648V38.2117H144.873V35.2354Z" fill="#1E1E27"/>
<path d="M146.926 35.9341H146.036V35.2354H148.593V35.9341H147.703V38.2117H146.929V35.9341H146.926Z" fill="#1E1E27"/>
<path d="M148.98 35.2354H149.754V38.2117H148.98V35.2354Z" fill="#1E1E27"/>
<path d="M151.836 38.2648C151.544 38.2648 151.276 38.1971 151.033 38.0617C150.789 37.9263 150.594 37.7426 150.451 37.5081C150.309 37.2735 150.237 37.0124 150.237 36.7223C150.237 36.4321 150.309 36.1758 150.451 35.9389C150.594 35.7019 150.787 35.5158 151.033 35.3828C151.276 35.2474 151.544 35.1797 151.836 35.1797C152.128 35.1797 152.396 35.2474 152.642 35.3828C152.888 35.5182 153.084 35.7044 153.228 35.9389C153.373 36.1758 153.445 36.437 153.445 36.7223C153.445 37.0076 153.373 37.2735 153.228 37.5081C153.084 37.7426 152.888 37.9288 152.642 38.0617C152.396 38.1971 152.128 38.2648 151.836 38.2648ZM152.256 37.45C152.379 37.3799 152.476 37.2832 152.545 37.1599C152.615 37.0342 152.652 36.8891 152.652 36.7247C152.652 36.5603 152.615 36.4176 152.545 36.2919C152.476 36.1662 152.379 36.067 152.256 35.9993C152.133 35.9316 151.995 35.8954 151.841 35.8954C151.687 35.8954 151.542 35.9292 151.421 35.9993C151.301 36.0694 151.204 36.1662 151.136 36.2919C151.067 36.4176 151.033 36.5627 151.033 36.7247C151.033 36.9737 151.108 37.1744 151.257 37.3267C151.407 37.479 151.602 37.554 151.841 37.554C151.993 37.554 152.133 37.5201 152.256 37.45Z" fill="#1E1E27"/>
<path d="M156.565 35.2358V38.2678H156.316L154.705 36.7034V38.2146H153.93V35.1826H154.179L155.79 36.7252V35.2358H156.565Z" fill="#1E1E27"/>
</g>
<defs>
<clipPath id="clip0_1_1103">
<rect width="158.002" height="64" fill="white" transform="translate(0.5 0.000488281)"/>
</clipPath>
</defs>
</svg>
