<svg width="191" height="64" viewBox="0 0 191 64" fill="none" xmlns="http://www.w3.org/2000/svg">
<g clip-path="url(#clip0_1_1158)">
<path d="M24.2492 49.8174C22.4233 49.7457 19.2674 49.7242 17.4343 49.7457C17.269 49.7528 17.118 49.6811 17.003 49.5663L0.792595 32.6303C0.469105 32.2931 0.469091 31.7623 0.799768 31.4251L17.3121 14.4245C17.4271 14.3026 17.5925 14.2308 17.765 14.2308C19.44 14.2237 22.2076 14.1734 23.9544 14.2021C24.0838 14.2021 24.1773 14.3313 24.127 14.4532L21.5391 17.7242C21.5175 17.7888 21.46 17.8318 21.3953 17.8461C19.5478 18.0685 17.3984 18.9795 15.0118 19.6179L15.0261 19.7686L20.8633 19.8331C20.9208 19.8331 20.9568 19.8905 20.9352 19.9479L19.6628 23.1831L9.82873 24.7684V24.7827L18.5126 25.5861C18.6133 25.6005 18.6708 25.7009 18.6348 25.787L16.7945 30.4568C16.7658 30.5357 16.6939 30.5931 16.6076 30.6002C12.3376 31.0593 6.6729 31.5112 4.53068 31.9058C3.99153 32.1066 11.4677 32.745 16.7083 33.3548L18.4623 37.7878C18.5126 37.917 18.4264 38.0604 18.2898 38.0748C15.8313 38.3187 10.9789 38.7634 9.84311 38.8064C9.82873 38.8064 9.82873 38.828 9.84311 38.8351L19.6197 40.7217L20.8418 43.8206C20.8849 43.9353 20.813 44.0644 20.6908 44.086L15.0693 44.086C15.0477 44.3083 20.2954 46.0156 21.2443 45.9941C21.345 45.9941 21.4312 46.0227 21.4887 46.0945L24.357 49.6309C24.4001 49.7385 24.357 49.8174 24.2492 49.8174Z" fill="#FEFEFE"/>
<path d="M36.4761 26.6839C35.7788 27.265 35.5415 27.8245 35.6997 28.5131C35.9153 29.4241 36.5767 29.8689 37.4393 30.0912C36.2676 29.2735 35.7356 28.2549 36.4761 26.6768V26.6839Z" fill="#FEFEFE"/>
<path d="M37.6621 33.6426C36.5191 33.8721 35.7499 34.611 35.6277 35.5292C35.5558 36.0887 35.829 36.6482 36.3466 36.9279C35.7212 35.4431 36.3897 34.4603 37.6549 33.6426L37.6621 33.6426Z" fill="#FEFEFE"/>
<path d="M35.8566 58.0181C37.129 60.1414 38.4589 62.1714 40.0476 64.0006L32.2839 64.0006L20.4082 52.1504C21.5009 52.2795 22.6007 52.4086 23.6934 52.5377C24.8436 52.6669 25.9866 52.8677 27.1368 52.9036C28.3804 52.9466 29.624 52.7816 30.8605 52.7888C31.5147 52.796 32.1904 52.8964 32.8086 53.1044C34.7855 53.7716 36.3814 55.0269 37.776 56.5476C37.8838 56.6624 37.9701 56.7987 38.0995 56.9708C37.3159 57.3367 36.5899 57.6738 35.8566 58.0181Z" fill="#FEFEFE"/>
<path d="M26.5493 10.9751C24.5724 11.1831 22.5883 11.4127 20.6114 11.6494L32.2858 -3.3685e-07L39.9921 0C38.7269 1.48487 37.6054 3.09167 36.5559 4.75587C36.3474 5.08584 36.1461 5.43733 35.9305 5.78882C36.714 6.16183 37.4185 6.4918 38.0943 6.80742C38.0943 6.91502 38.1014 6.94372 38.0943 6.95807C38.0655 7.01545 38.0368 7.07284 37.9936 7.12305C35.7292 9.56196 33.2204 11.4557 29.626 11.0755C28.6052 10.9751 27.5629 10.8675 26.5493 10.9751Z" fill="#FEFEFE"/>
<path d="M147.742 63.9999L190.5 63.9999V0L89.981 -4.39382e-06C90.6711 0.466258 91.3469 0.946869 92.0082 1.47052C96.9037 5.27952 100.527 10.0713 102.899 15.8171C102.971 15.9964 103.036 16.1757 103.1 16.3622C103.108 16.3909 103.086 16.4411 103.05 16.5918C100.254 10.8316 96.1417 6.34833 90.7502 3.09884C88.644 1.82917 86.4658 0.789055 84.2085 -4.64615e-06L74.9208 -5.05213e-06C78.1701 3.7014 79.1621 8.88768 77.4368 13.6651C76.1644 17.1871 73.9431 20.0421 71.3265 22.6317C70.3129 23.6359 69.2202 24.5541 68.1131 25.4507C69.1483 23.7865 70.2122 22.1367 71.2043 20.451C72.7786 17.7682 74.0366 14.9706 74.5182 11.8502C75.1868 7.50323 73.6628 3.05581 70.6436 -5.23909e-06L60.0043 -5.70415e-06C60.1913 0.0573804 60.371 0.114764 60.5579 0.164976C55.8206 0.136283 51.4139 1.4203 47.0288 3.09167C47.5177 2.35282 48.0137 1.62115 48.5456 0.824915C48.1503 0.552331 47.7621 0.272578 47.3739 -6.25624e-06L44.4337 -6.38476e-06C43.2835 0.997078 42.3059 2.17349 41.4001 3.40012C41.1341 3.75878 40.8969 4.13897 40.6237 4.54067C42.8306 5.89642 44.254 7.79016 44.8435 10.2649C45.282 12.1013 45.0879 13.8803 44.2971 15.609C42.8235 18.8442 39.1788 20.0349 36.3609 19.7623C42.0615 18.2847 43.3554 11.9291 40.7459 8.67247C40.4584 8.99527 40.178 9.30372 39.8977 9.61935C37.8992 11.9148 35.5054 13.5862 32.4718 14.1672C31.832 14.2891 31.1563 14.2031 30.4949 14.2031C29.1219 14.2031 27.7488 14.1744 26.383 14.2031C26.0955 14.2102 25.7288 14.3537 25.5419 14.5545C24.6362 15.5301 23.7807 16.5344 22.8462 17.6104C22.7599 17.7108 22.8102 17.8614 22.9324 17.8973C25.3694 18.5357 27.7201 19.1526 30.078 19.7767L30.0564 19.9273C27.8135 19.9273 25.5779 19.956 23.3422 19.913C22.7168 19.913 22.3861 20.0636 22.1561 20.6805C21.8182 21.5844 21.3581 22.438 20.9124 23.4064C23.9389 24.0806 26.915 24.7406 29.8911 25.4005C29.8911 25.4364 29.8911 25.4723 29.8983 25.5081C29.7545 25.5297 29.6107 25.5583 29.4669 25.5655C26.6849 25.6803 23.9029 25.7951 21.1137 25.8883C20.7615 25.9027 20.5889 26.0031 20.4883 26.3618C20.1073 27.7247 19.6904 29.0732 19.2519 30.5151C22.8893 30.967 26.4621 31.4117 30.0276 31.8565V32.0143C26.498 32.459 22.9684 32.8966 19.4028 33.3485C19.791 34.776 20.1576 36.1676 20.5746 37.5377C20.6177 37.6883 20.9412 37.8462 21.1425 37.8605C24.0107 38.0111 26.879 38.1331 29.7473 38.2694C29.8479 38.2694 29.9486 38.2837 30.0636 38.3913C27.0372 39.0226 24.0107 39.661 20.8765 40.3209C21.3941 41.4471 21.8613 42.5231 22.3789 43.5632C22.4149 43.6278 22.4939 43.678 22.5946 43.7211C22.7312 43.7713 22.9037 43.7928 23.0403 43.8C25.1394 43.8502 27.2384 43.886 29.3375 43.9219C29.5532 43.9219 29.7617 43.9219 29.9989 44.0726C27.7201 44.6679 25.4413 45.2633 23.0762 45.8802C22.8749 45.9304 22.8031 46.1815 22.9396 46.3393C23.8885 47.3866 24.7728 48.3837 25.6929 49.3449C25.8367 49.5027 26.153 49.5673 26.3902 49.5673C27.7417 49.596 29.1003 49.7107 30.4374 49.5673C32.6371 49.3305 34.5206 50.0766 36.3465 51.1382C38.0574 52.1281 39.4448 53.491 40.6812 55.0261C43.0607 52.4151 42.5431 45.6722 36.3537 43.9721C39.4664 43.7498 43.1613 45.0911 44.5631 48.6921C45.7924 51.8627 44.8075 56.6258 40.6309 59.3086C41.6948 60.8652 42.8738 62.3285 44.2684 63.591C44.4409 63.7416 44.5919 63.8779 44.7213 63.9999L47.1223 63.9999C47.2085 63.9353 47.302 63.8708 47.4098 63.7919C47.7621 63.5551 48.0999 63.2897 48.4809 63.01C47.913 62.1635 47.3667 61.353 46.8275 60.5352C51.2414 62.3644 55.7702 63.5695 60.601 63.6556C60.2488 63.7703 59.8893 63.8851 59.5371 63.9999L70.4063 63.9999C73.936 60.5567 75.424 55.3274 74.1372 50.2846C73.3105 47.0351 71.7218 44.1371 69.975 41.3252C69.3783 40.3568 68.7386 39.4243 68.0413 38.3483C68.2282 38.4272 68.3 38.4415 68.3504 38.4774C71.348 41.0383 74.1301 43.7784 76.1429 47.236C79.3562 52.7307 78.8242 59.3229 74.8058 63.9999L83.5256 63.9999C90.5346 61.7188 98.4277 56.6042 103.237 47.0495C103.136 47.3292 103.057 47.6161 102.935 47.8816C99.9661 54.7033 95.6385 60.1263 89.8876 63.9999L137.052 63.9999L142.394 58.6701L147.742 63.9425V63.9999ZM49.8755 15.6305C49.8755 15.4727 49.8899 15.3077 49.9474 15.1356C50.4147 17.0078 51.4858 18.507 52.8229 19.9704C51.2558 14.3178 53.5274 10.0569 57.3373 6.21205C56.4747 6.67831 55.5833 7.09436 54.771 7.63235C53.9659 8.17035 53.2398 8.83745 52.5066 9.41849C54.6416 5.60231 60.1984 1.52072 67.6603 3.51489C66.963 2.85495 66.2657 2.18783 65.554 1.50637C66.431 1.64984 67.9909 2.67562 68.7745 3.65835C70.6507 5.98967 70.9455 8.6366 70.241 11.4485C69.6731 13.7081 68.336 15.566 66.9845 17.4023C66.3735 18.2273 65.7337 19.0378 65.1227 19.8699C63.0595 22.6675 61.9309 25.6516 63.3974 29.2167C62.2616 28.7791 61.4493 28.0977 60.8957 27.1652C60.5866 26.6343 60.2056 26.4622 59.6305 26.4048C54.3253 25.8453 49.9259 20.9746 49.8755 15.6305ZM49.9618 31.4835C46.9426 31.4404 43.9233 31.4046 40.9113 31.2396C39.6245 31.1607 38.3234 30.8594 37.0941 30.4649C35.6348 29.9986 34.9159 28.8867 34.9231 27.5956C34.9231 26.5411 35.491 25.8166 36.3249 25.2929C37.7986 24.3748 39.4017 24.3532 41.0479 24.6617C42.9241 25.006 44.6278 25.8238 46.31 26.6774C50.1774 28.6429 54.2319 30.1205 58.3653 31.4046C58.4228 31.4261 58.4732 31.4548 58.5379 31.4906C55.648 31.4906 52.8013 31.5193 49.9618 31.4835ZM38.6109 39.2449C37.7339 39.1302 36.8209 38.7858 36.0589 38.3268C34.6787 37.4875 34.5062 35.6296 35.5557 34.403C36.2962 33.535 37.2882 33.0759 38.3593 32.9827C41.091 32.7531 43.8227 32.5666 46.5544 32.4806C50.3428 32.3658 54.1312 32.3586 57.9196 32.3084C58.1209 32.3012 58.3222 32.3084 58.5307 32.3084C58.5307 32.3443 58.5379 32.3873 58.5379 32.4232C57.4883 32.7603 56.4316 33.0759 55.382 33.4202C51.7374 34.6325 48.2509 36.2178 44.8003 37.8892C42.8522 38.8289 40.8106 39.539 38.6109 39.2449ZM64.26 42.6809C65.6115 44.7684 67.2002 46.698 68.5948 48.7639C70.471 51.5543 71.1899 54.5814 70.0756 57.8811C69.3424 60.0546 67.8544 61.5036 65.7912 62.4146C65.7049 62.4576 65.5971 62.4648 65.5468 62.4791C66.1866 61.8264 66.8408 61.1593 67.4877 60.4922C63.9437 61.2956 60.5866 60.9799 57.4092 59.2584C55.267 58.0891 53.0889 55.8869 52.255 54.1008C53.664 55.6143 55.303 56.7764 57.2583 57.4507C53.4914 53.7421 51.2845 49.5242 52.7582 44.0797C51.9099 44.6105 51.0545 45.9519 49.969 48.5056C49.7749 47.9318 49.854 46.7338 50.1703 45.5861C51.3779 41.1889 55.4755 37.7529 60.0115 37.3082C60.2559 37.2866 60.5507 37.0714 60.6873 36.8562C61.3414 35.8592 62.1825 35.106 63.3399 34.5967C63.3183 34.7401 63.3255 34.819 63.2968 34.8908C62.1753 37.6668 62.7073 40.2779 64.26 42.6809ZM158.431 42.6666V21.3333L169.121 21.3333V42.6666L158.431 42.6666Z" fill="#FEFEFE"/>
<path d="M124.614 32.3599L120.84 36.1258C120.553 36.4128 120.553 36.8862 120.84 37.1803C121.128 37.4744 121.602 37.4672 121.897 37.1803L125.671 33.4143L129.445 37.1803C129.732 37.4672 130.207 37.4672 130.502 37.1803C130.796 36.8934 130.789 36.4199 130.502 36.1258L126.728 32.3599L130.502 28.5939C130.789 28.307 130.789 27.8335 130.502 27.5394C130.358 27.396 130.164 27.3242 129.977 27.3242C129.79 27.3242 129.596 27.396 129.452 27.5394L125.678 31.3054L121.904 27.5394C121.76 27.396 121.566 27.3242 121.379 27.3242C121.192 27.3242 120.998 27.396 120.854 27.5394C120.567 27.8263 120.567 28.2998 120.854 28.5939L124.628 32.3599L124.614 32.3599Z" fill="black"/>
<path d="M143.032 27.3096C145.721 27.3096 147.913 29.4902 147.913 32.1802C147.913 34.8702 145.728 37.0437 143.032 37.0437C140.336 37.0437 138.151 34.863 138.151 32.1802C138.151 29.4974 140.336 27.3096 143.032 27.3096ZM143.032 35.5588C144.901 35.5588 146.418 34.0453 146.418 32.1802C146.418 30.3152 144.901 28.8016 143.032 28.8016C141.163 28.8016 139.646 30.3152 139.646 32.1802C139.646 34.0453 141.163 35.5588 143.032 35.5588Z" fill="black"/>
<path d="M85.4222 26.9648L93.8761 26.9648C94.3289 26.9648 94.6956 27.3307 94.6956 27.7826V36.2184C94.6956 36.6703 94.3289 37.0361 93.8761 37.0361L85.4222 37.0361C84.9693 37.0361 84.6027 36.6703 84.6027 36.2184V27.7826C84.6027 27.3307 84.9693 26.9648 85.4222 26.9648ZM92.3808 28.4497L86.9031 28.4497C86.4502 28.4497 86.0836 28.8156 86.0836 29.2675V34.7335C86.0836 35.1854 86.4502 35.5512 86.9031 35.5512L92.3808 35.5512C92.8337 35.5512 93.2003 35.1854 93.2003 34.7335V29.2675C93.2003 28.8156 92.8337 28.4497 92.3808 28.4497Z" fill="black"/>
<path d="M102.129 36.204L102.165 27.7898C102.165 27.3737 102.381 26.9935 102.74 26.7783C103.1 26.5631 103.531 26.5416 103.905 26.7353L112.524 31.1182C112.934 31.3262 113.207 31.7638 113.178 32.2013C113.171 32.6604 112.905 33.0693 112.488 33.263L103.833 37.2872C103.459 37.4593 103.028 37.4306 102.683 37.2083C102.338 36.9859 102.129 36.6129 102.129 36.204ZM103.66 28.2776L103.625 35.7449L111.316 32.1726L103.66 28.2776Z" fill="black"/>
</g>
<defs>
<clipPath id="clip0_1_1158">
<rect width="189.949" height="64.0006" fill="white" transform="translate(0.550781)"/>
</clipPath>
</defs>
</svg>
