<svg width="249" height="738" viewBox="0 0 249 738" fill="none" xmlns="http://www.w3.org/2000/svg">
<g opacity="0.9" clip-path="url(#clip0_10_236)" filter="url(#filter0_n_10_236)">
<path d="M193.826 645.93C193.546 653.025 193.465 665.28 193.546 672.411C193.57 673.052 193.29 673.636 192.846 674.091L126.955 737.078C125.649 738.339 123.573 738.339 122.267 737.055L56.1186 672.901C55.6404 672.457 55.3605 671.815 55.3605 671.138C55.3372 664.626 55.139 653.877 55.2439 647.097C55.2439 646.595 55.7454 646.233 56.2235 646.431L68.947 656.492C69.2036 656.573 69.3669 656.795 69.4252 657.052C70.2882 664.229 73.8335 672.586 76.3175 681.852L76.9007 681.794L77.1572 659.118C77.1572 658.896 77.3788 658.756 77.6004 658.837L90.1839 663.786L96.3532 701.996H96.4115L99.537 668.256C99.5953 667.859 99.9802 667.637 100.318 667.777L118.488 674.931C118.791 675.048 119.013 675.328 119.048 675.655C120.832 692.251 122.593 714.25 124.133 722.571C124.914 724.66 127.398 695.624 129.765 675.258L147.014 668.442C147.515 668.244 148.075 668.583 148.133 669.108C149.078 678.654 150.816 697.514 150.979 701.926C150.979 701.984 151.061 701.984 151.096 701.926L158.431 663.938L170.49 659.188C170.933 659.024 171.435 659.304 171.528 659.771L171.551 681.607C172.391 681.689 179.027 661.3 178.945 657.612C178.945 657.215 179.062 656.888 179.33 656.667L193.091 645.521C193.511 645.358 193.814 645.521 193.814 645.941L193.826 645.93Z" fill="#690012"/>
<path d="M103.817 598.418C106.091 601.114 108.26 602.059 110.943 601.429C114.476 600.589 116.214 598.009 117.089 594.672C113.905 599.235 109.928 601.289 103.817 598.43V598.418Z" fill="#690012"/>
<path d="M130.897 593.82C131.771 598.254 134.664 601.242 138.232 601.709C140.413 602.001 142.582 600.915 143.69 598.908C137.917 601.336 134.081 598.745 130.897 593.82Z" fill="#690012"/>
<path d="M225.734 600.822C233.991 595.874 241.898 590.715 249.012 584.541V614.71L202.911 660.845C203.412 656.596 203.914 652.325 204.415 648.077C204.917 643.607 205.698 639.172 205.838 634.702C206.001 629.871 205.36 625.039 205.395 620.23C205.418 617.686 205.815 615.06 206.62 612.656C209.22 604.977 214.095 598.78 220.019 593.353C220.463 592.933 220.999 592.594 221.664 592.092C223.087 595.138 224.404 597.963 225.734 600.81V600.822Z" fill="#690012"/>
<path d="M42.6954 636.99C43.5001 644.669 44.3981 652.383 45.3194 660.063L0 614.699V584.763C5.7728 589.677 12.0237 594.041 18.5079 598.114C19.7908 598.92 21.1553 599.702 22.5314 600.542C23.9775 597.496 25.272 594.765 26.4966 592.139C26.9164 592.139 27.0214 592.116 27.0797 592.139C27.3013 592.256 27.5228 592.361 27.7211 592.536C37.2141 601.336 44.573 611.081 43.1036 625.051C42.707 629.019 42.2989 633.068 42.707 637.001L42.6954 636.99Z" fill="#690012"/>
<path d="M249 166.121V0H0V390.538C1.81931 387.854 3.68526 385.228 5.72615 382.661C20.5488 363.637 39.1851 349.562 61.5415 340.342C62.2413 340.062 62.941 339.817 63.664 339.561C63.7807 339.537 63.9673 339.619 64.562 339.759C42.1473 350.624 24.7122 366.602 12.0704 387.551C7.12562 395.732 3.07883 404.193 0.0116622 412.97V449.055C14.4145 436.428 34.5901 432.576 53.1797 439.275C66.8828 444.224 77.9853 452.849 88.0614 463.014C91.9682 466.947 95.5369 471.195 99.0239 475.501C92.5514 471.475 86.1255 467.344 79.5713 463.492C69.1336 457.377 58.2528 452.487 46.1124 450.619C29.2022 448.017 11.8955 453.946 0.0116622 465.675V507.012C0.233244 506.289 0.454826 505.589 0.653084 504.865C0.536462 523.27 5.53955 540.391 12.0354 557.43C9.1665 555.528 6.30926 553.602 3.21877 551.536C2.15751 553.077 1.07292 554.582 0.0116622 556.088V567.514C3.89518 571.984 8.46677 575.777 13.2366 579.301C14.6361 580.34 16.1055 581.262 17.6683 582.312C22.9396 573.734 30.3101 568.202 39.9431 565.915C47.092 564.211 54.0077 564.969 60.7368 568.039C73.3204 573.769 77.9619 587.926 76.9007 598.873C71.1512 576.722 46.4273 571.692 33.7505 581.834C35.01 582.954 36.2112 584.039 37.4357 585.125C46.369 592.886 52.8648 602.187 55.1273 613.975C55.6055 616.461 55.2672 619.087 55.2672 621.654C55.2672 626.988 55.1506 632.321 55.2672 637.631C55.2906 638.752 55.8504 640.176 56.6317 640.899C60.4336 644.412 64.3521 647.75 68.5272 651.38C68.9004 651.706 69.5068 651.531 69.6351 651.041C72.1308 641.565 74.5216 632.426 76.9473 623.276L77.5304 623.358C77.5304 632.076 77.647 640.759 77.4721 649.442C77.4488 651.87 78.0552 653.154 80.4576 654.052C83.9796 655.359 87.2917 657.157 91.0586 658.884C93.6826 647.132 96.2483 635.566 98.814 624C98.9539 624 99.0939 624 99.2338 623.977C99.3154 624.537 99.4321 625.097 99.4554 625.657C99.8986 636.464 100.353 647.272 100.715 658.114C100.773 659.479 101.158 660.156 102.558 660.541C107.864 662.023 113.112 663.646 118.721 665.35C120.482 651.216 122.208 637.34 123.946 623.487H124.564C126.29 637.2 127.993 650.913 129.754 664.766C135.305 663.26 140.716 661.837 146.058 660.214C146.641 660.051 147.259 658.791 147.317 658.009C147.9 646.863 148.378 635.717 148.903 624.572C148.903 624.175 148.962 623.79 149.381 623.346C151.842 635.111 154.326 646.863 156.892 659.036C161.277 657.028 165.464 655.208 169.51 653.2C169.767 653.06 169.954 652.757 170.128 652.36C170.327 651.835 170.408 651.158 170.432 650.633C170.63 642.475 170.77 634.317 170.91 626.171C170.91 625.331 170.91 624.525 171.493 623.603C173.802 632.461 176.111 641.319 178.514 650.493C178.723 651.275 179.703 651.566 180.298 651.03C184.38 647.353 188.24 643.91 191.995 640.339C192.613 639.779 192.858 638.553 192.858 637.631C192.975 632.38 193.418 627.104 192.858 621.911C191.937 613.368 194.841 606.05 198.969 598.955C202.818 592.302 208.124 586.922 214.095 582.114C203.937 572.87 177.697 574.878 171.085 598.931C170.222 586.84 175.435 572.485 189.453 567.035C201.791 562.262 220.323 566.09 230.76 582.312C236.813 578.181 242.504 573.594 247.426 568.179C248.009 567.514 248.545 566.918 249.012 566.417V557.092C248.755 556.753 248.51 556.391 248.207 555.971C247.286 554.606 246.248 553.287 245.163 551.805C241.874 554.011 238.714 556.135 235.53 558.224C242.644 541.079 247.332 523.48 247.671 504.713C248.114 506.079 248.569 507.479 249.012 508.845V466.62C235.612 452.907 215.273 447.13 195.645 452.125C183.004 455.334 171.726 461.508 160.787 468.301C157.02 470.623 153.393 473.109 149.206 475.817C149.51 475.093 149.568 474.813 149.708 474.614C159.667 462.967 170.338 452.16 183.785 444.341C205.162 431.853 230.807 433.919 249.012 449.534V415.654C240.137 388.426 220.241 357.755 183.062 339.07C184.146 339.467 185.266 339.771 186.304 340.249C212.847 351.78 233.944 368.597 249.012 390.947V207.704L228.276 186.954L248.79 166.18H249.012L249 166.121ZM60.8185 546.355C60.2004 546.355 59.5589 546.296 58.8942 546.074C66.1831 544.254 72.0142 540.099 77.7054 534.906C55.7104 540.998 39.1384 532.163 24.1758 517.364C25.9951 520.714 27.6045 524.18 29.7037 527.331C31.7912 530.459 34.3919 533.283 36.6544 536.131C21.8083 527.833 5.92441 506.242 13.6798 477.252C11.1141 479.96 8.51342 482.667 5.8661 485.433C6.42588 482.025 10.4144 475.968 14.2396 472.922C23.3128 465.628 33.6105 464.484 44.5497 467.227C53.343 469.433 60.5736 474.626 67.7108 479.878C70.9179 482.247 74.0784 484.733 77.3088 487.114C88.1897 495.132 99.8053 499.52 113.672 493.813C111.969 498.224 109.322 501.387 105.695 503.535C103.63 504.737 102.954 506.219 102.732 508.448C100.552 529.059 81.6005 546.156 60.8185 546.343V546.355ZM122.488 546.028C122.325 557.757 122.185 569.486 121.544 581.192C121.24 586.187 120.063 591.252 118.535 596.025C116.715 601.697 112.4 604.487 107.374 604.463C103.269 604.463 100.458 602.257 98.4174 599.013C94.8488 593.283 94.7672 587.062 95.9567 580.667C97.2979 573.372 100.482 566.755 103.794 560.219C111.444 545.188 117.194 529.444 122.185 513.385C122.267 513.163 122.383 512.965 122.523 512.719C122.523 523.947 122.64 535.011 122.5 546.039L122.488 546.028ZM152.693 590.12C152.25 593.528 150.909 597.076 149.125 600.04C145.859 605.397 138.629 606.074 133.859 602.001C130.477 599.13 128.693 595.267 128.331 591.112C127.433 580.503 126.71 569.883 126.372 559.274C125.929 544.557 125.894 529.84 125.707 515.112C125.684 514.33 125.707 513.548 125.707 512.743C125.847 512.743 126.01 512.719 126.15 512.719C127.456 516.793 128.693 520.901 130.034 524.985C134.745 539.142 140.915 552.692 147.422 566.102C151.084 573.676 153.836 581.6 152.693 590.143V590.12ZM166.058 490.475C174.175 485.223 181.686 479.049 189.721 473.634C200.578 466.34 212.357 463.551 225.197 467.88C233.653 470.728 239.297 476.505 242.831 484.523C242.994 484.861 243.029 485.282 243.087 485.468C240.545 482.982 237.956 480.438 235.355 477.929C238.481 491.7 237.256 504.737 230.55 517.084C226.002 525.406 217.43 533.867 210.48 537.111C216.369 531.638 220.894 525.266 223.518 517.668C209.092 532.303 192.683 540.881 171.493 535.151C173.557 538.442 178.782 541.768 188.718 545.993C186.491 546.751 181.826 546.436 177.359 545.211C160.251 540.519 146.886 524.6 145.148 506.977C145.066 506.032 144.227 504.888 143.387 504.352C139.503 501.807 136.576 498.539 134.594 494.046C135.153 494.128 135.457 494.105 135.737 494.21C146.536 498.563 156.694 496.497 166.047 490.463L166.058 490.475ZM166 124.597H83V83.0607H166V124.597Z" fill="#690012"/>
<path d="M125.882 255.975L140.541 270.645C141.673 271.777 143.504 271.777 144.635 270.645C145.766 269.513 145.766 267.68 144.635 266.548L129.975 251.878L144.635 237.208C145.766 236.076 145.766 234.244 144.635 233.112C143.504 231.98 141.673 231.98 140.541 233.112L125.882 247.782L111.223 233.112C110.091 231.98 108.26 231.98 107.129 233.112C106.569 233.672 106.278 234.419 106.278 235.154C106.278 235.889 106.558 236.636 107.129 237.196L121.789 251.867L107.129 266.537C106.569 267.097 106.278 267.844 106.278 268.579C106.278 269.314 106.558 270.061 107.129 270.621C108.26 271.753 110.091 271.753 111.223 270.621L125.882 255.951V255.975Z" fill="black"/>
<path d="M106.254 184.433C106.254 173.988 114.745 165.48 125.194 165.48C135.643 165.48 144.133 173.976 144.133 184.433C144.133 194.89 135.643 203.386 125.194 203.386C114.745 203.386 106.254 194.89 106.254 184.433ZM138.349 184.433C138.349 177.174 132.448 171.268 125.194 171.268C117.94 171.268 112.039 177.174 112.039 184.433C112.039 191.692 117.94 197.597 125.194 197.597C132.448 197.597 138.349 191.692 138.349 184.433Z" fill="black"/>
<path d="M104.913 408.255V375.413C104.913 373.651 106.336 372.227 108.097 372.227H140.915C142.676 372.227 144.098 373.651 144.098 375.413V408.255C144.098 410.017 142.676 411.441 140.915 411.441H108.097C106.336 411.441 104.913 410.017 104.913 408.255ZM110.698 381.202V402.478C110.698 404.24 112.121 405.664 113.882 405.664H135.142C136.903 405.664 138.326 404.24 138.326 402.478V381.202C138.326 379.44 136.903 378.016 135.142 378.016H113.882C112.121 378.016 110.698 379.44 110.698 381.202Z" fill="black"/>
<path d="M140.868 343.33H140.845L108.12 343.19C106.499 343.19 105.018 342.35 104.179 340.961C103.339 339.572 103.269 337.88 104.004 336.433L121.065 302.938C121.882 301.339 123.585 300.3 125.287 300.405C127.072 300.44 128.658 301.467 129.416 303.089L145.078 336.725C145.754 338.172 145.638 339.841 144.786 341.194C143.923 342.537 142.466 343.33 140.88 343.33H140.868ZM109.998 337.401L139.06 337.53L125.147 307.653L109.986 337.401H109.998Z" fill="black"/>
</g>
<defs>
<filter id="filter0_n_10_236" x="-46.6" y="-46.6" width="342.2" height="831.2" filterUnits="userSpaceOnUse" color-interpolation-filters="sRGB">
<feFlood flood-opacity="0" result="BackgroundImageFix"/>
<feBlend mode="normal" in="SourceGraphic" in2="BackgroundImageFix" result="shape"/>
<feTurbulence type="fractalNoise" baseFrequency="5 5" stitchTiles="stitch" numOctaves="3" result="noise" seed="7208" />
<feColorMatrix in="noise" type="luminanceToAlpha" result="alphaNoise" />
<feComponentTransfer in="alphaNoise" result="coloredNoise1">
<feFuncA type="discrete" tableValues="1 1 1 1 1 1 1 1 1 1 1 1 1 1 1 1 1 1 1 1 1 1 1 1 1 1 1 1 1 1 1 1 1 1 1 1 1 1 1 1 1 1 1 1 1 1 1 1 1 1 1 0 0 0 0 0 0 0 0 0 0 0 0 0 0 0 0 0 0 0 0 0 0 0 0 0 0 0 0 0 0 0 0 0 0 0 0 0 0 0 0 0 0 0 0 0 0 0 0 0 "/>
</feComponentTransfer>
<feComposite operator="in" in2="shape" in="coloredNoise1" result="noise1Clipped" />
<feFlood flood-color="rgba(0, 0, 0, 0.1)" result="color1Flood" />
<feComposite operator="in" in2="noise1Clipped" in="color1Flood" result="color1" />
<feMerge result="effect1_noise_10_236">
<feMergeNode in="shape" />
<feMergeNode in="color1" />
</feMerge>
</filter>
<clipPath id="clip0_10_236">
<rect width="249" height="738" fill="white"/>
</clipPath>
</defs>
</svg>
