<svg width="174" height="51" viewBox="0 0 174 51" fill="none" xmlns="http://www.w3.org/2000/svg">
<g filter="url(#filter0_d_1_385)">
<path d="M25.3658 34.1894C20.7554 34.1894 17 30.4396 17 25.8244C17 21.2092 20.7502 17.4594 25.3658 17.4594C29.9815 17.4594 33.7317 21.2092 33.7317 25.8244C33.7317 30.4396 29.9815 34.1894 25.3658 34.1894ZM25.3658 20.0142C22.1617 20.0142 19.5551 22.6206 19.5551 25.8244C19.5551 29.0282 22.1617 31.6346 25.3658 31.6346C28.57 31.6346 31.1766 29.0282 31.1766 25.8244C31.1766 22.6206 28.57 20.0142 25.3658 20.0142Z" fill="#FEFEFE"/>
<path d="M68.198 25.8237L74.6733 19.3476C75.173 18.8478 75.173 18.0389 74.6733 17.5392C74.1736 17.0394 73.3648 17.0394 72.8651 17.5392L66.3899 24.0154L59.9146 17.5392C59.4149 17.0394 58.6061 17.0394 58.1065 17.5392C57.6068 18.0389 57.6068 18.8478 58.1065 19.3476L64.5817 25.8237L58.1065 32.2999C57.6068 32.7996 57.6068 33.6085 58.1065 34.1083C58.3537 34.3556 58.6834 34.4844 59.0079 34.4844C59.3325 34.4844 59.6622 34.3607 59.9094 34.1083L66.3847 27.6321L72.86 34.1083C73.1073 34.3556 73.437 34.4844 73.7615 34.4844C74.086 34.4844 74.4157 34.3607 74.663 34.1083C75.1627 33.6085 75.1627 32.7996 74.663 32.2999L68.1877 25.8237L68.198 25.8237Z" fill="#FEFEFE"/>
<path d="M100.963 34.6487L100.972 34.6487L114.453 34.5911C115.121 34.5911 115.731 34.2457 116.077 33.6748C116.423 33.1039 116.452 32.4082 116.149 31.8133L109.121 18.0441C108.784 17.3868 108.083 16.9598 107.381 17.003C106.646 17.0174 105.993 17.4396 105.681 18.1065L99.2282 31.9332C98.9495 32.5282 98.9976 33.2142 99.3483 33.7708C99.7038 34.3225 100.304 34.6487 100.958 34.6487L100.963 34.6487ZM113.68 32.2115L101.707 32.2643L107.439 19.9823L113.685 32.2115L113.68 32.2115Z" fill="#FEFEFE"/>
<path d="M156.26 34.4794L141.764 34.4794C140.987 34.4794 140.358 33.8509 140.358 33.0729L140.358 18.5758C140.358 17.7979 140.987 17.1694 141.764 17.1694L156.26 17.1694C157.038 17.1694 157.667 17.7979 157.667 18.5758L157.667 33.0729C157.667 33.8508 157.038 34.4794 156.26 34.4794ZM144.319 31.9241L153.71 31.9241C154.488 31.9241 155.117 31.2956 155.117 30.5176L155.117 21.1259C155.117 20.348 154.488 19.7195 153.71 19.7195L144.319 19.7195C143.542 19.7195 142.913 20.348 142.913 21.1259L142.913 30.5176C142.913 31.2956 143.542 31.9241 144.319 31.9241Z" fill="#FEFEFE"/>
</g>
<defs>
<filter id="filter0_d_1_385" x="0.837502" y="0.837502" width="172.992" height="49.9737" filterUnits="userSpaceOnUse" color-interpolation-filters="sRGB">
<feFlood flood-opacity="0" result="BackgroundImageFix"/>
<feColorMatrix in="SourceAlpha" type="matrix" values="0 0 0 0 0 0 0 0 0 0 0 0 0 0 0 0 0 0 127 0" result="hardAlpha"/>
<feOffset/>
<feGaussianBlur stdDeviation="8.08125"/>
<feComposite in2="hardAlpha" operator="out"/>
<feColorMatrix type="matrix" values="0 0 0 0 1 0 0 0 0 1 0 0 0 0 1 0 0 0 0.5 0"/>
<feBlend mode="normal" in2="BackgroundImageFix" result="effect1_dropShadow_1_385"/>
<feBlend mode="normal" in="SourceGraphic" in2="effect1_dropShadow_1_385" result="shape"/>
</filter>
</defs>
</svg>
