<svg width="2091" height="211" viewBox="0 0 2091 211" fill="none" xmlns="http://www.w3.org/2000/svg">
<mask id="mask0_1_565" style="mask-type:alpha" maskUnits="userSpaceOnUse" x="4" y="-2" width="2089" height="213">
<path d="M1946.55 16C1946.55 7.16344 1953.71 0 1962.55 0H1970.97C1979.81 0 1986.97 7.16344 1986.97 16V157.875C1986.97 166.712 1994.14 173.875 2002.97 173.875H2075C2083.84 173.875 2091 181.038 2091 189.875V192.056C2091 200.892 2083.84 208.056 2075 208.056H1962.55C1953.71 208.056 1946.55 200.892 1946.55 192.056V16Z" stroke="url(#paint0_linear_1_565)" stroke-width="4"/>
<path d="M1808.81 10.5046C1811.12 4.19585 1817.12 0 1823.84 0H1838.33C1845.04 0 1851.05 4.19584 1853.35 10.5046L1917.74 186.56C1921.56 197 1913.83 208.056 1902.71 208.056H1895.75C1889.04 208.056 1883.05 203.873 1880.73 197.578L1871.49 172.464C1869.18 166.169 1863.19 161.986 1856.48 161.986H1805.69C1798.98 161.986 1792.99 166.169 1790.67 172.464L1781.44 197.578C1779.12 203.873 1773.13 208.056 1766.42 208.056H1759.45C1748.34 208.056 1740.61 197 1744.43 186.56L1808.81 10.5046ZM1836.18 128.697C1847.2 128.697 1854.92 117.819 1851.28 107.417L1831.18 49.9152C1831.12 49.748 1830.96 49.6361 1830.79 49.6361V49.6361C1830.61 49.6361 1830.45 49.75 1830.39 49.9191L1810.89 107.569C1807.38 117.943 1815.09 128.697 1826.04 128.697H1836.18Z" stroke="url(#paint1_linear_1_565)" stroke-width="4"/>
<path d="M1577.59 21.3623C1573.89 10.9457 1581.61 0 1592.67 0H1599.96C1606.9 0 1613.05 4.47351 1615.19 11.0764L1663.23 159.623C1663.29 159.791 1663.44 159.906 1663.62 159.906V159.906C1663.8 159.906 1663.95 159.791 1664.01 159.623L1712.05 11.0764C1714.19 4.47351 1720.34 0 1727.28 0H1734.57C1745.63 0 1753.35 10.9457 1749.65 21.3623L1687.02 197.418C1684.75 203.796 1678.72 208.056 1671.95 208.056H1655.29C1648.52 208.056 1642.49 203.796 1640.22 197.418L1577.59 21.3623Z" stroke="url(#paint2_linear_1_565)" stroke-width="4"/>
<path d="M1505.69 16C1505.69 7.16344 1512.85 0 1521.69 0H1530.11C1538.94 0 1546.11 7.16344 1546.11 16V192.056C1546.11 200.892 1538.94 208.056 1530.11 208.056H1521.69C1512.85 208.056 1505.69 200.892 1505.69 192.056V16Z" stroke="url(#paint3_linear_1_565)" stroke-width="4"/>
<path d="M1462.93 134.52C1465.62 137.467 1467.1 141.31 1467.1 145.297V192.056C1467.1 200.892 1459.94 208.056 1451.1 208.056H1442.68C1433.85 208.056 1426.68 200.892 1426.68 192.056V154.431C1426.68 150.492 1425.23 146.691 1422.6 143.757L1413.62 133.726C1410.58 130.337 1406.25 128.4 1401.7 128.4H1360.06C1351.22 128.4 1344.06 135.563 1344.06 144.4V192.056C1344.06 200.892 1336.89 208.056 1328.06 208.056H1319.63C1310.8 208.056 1303.63 200.892 1303.63 192.056V16C1303.63 7.16344 1310.8 0 1319.63 0H1427.44C1431.71 0 1435.8 1.70621 1438.81 4.73904L1461.28 27.4229C1464.25 30.4191 1465.92 34.4662 1465.92 38.6839V88.552C1465.92 92.755 1464.26 96.7892 1461.31 99.7828L1456.35 104.819C1450.38 110.875 1450.19 120.542 1455.92 126.827L1462.93 134.52ZM1344.06 79.1111C1344.06 87.9477 1351.22 95.1111 1360.06 95.1111H1409.06C1413.3 95.1111 1417.37 93.4254 1420.37 90.4249L1421.4 89.3946C1424.4 86.394 1426.09 82.3244 1426.09 78.0809V50.9136C1426.09 46.6701 1424.4 42.6004 1421.4 39.5998L1420.37 38.5696C1417.37 35.569 1413.3 33.8833 1409.06 33.8833H1360.06C1351.22 33.8833 1344.06 41.0468 1344.06 49.8833V79.1111Z" stroke="url(#paint4_linear_1_565)" stroke-width="4"/>
<path d="M1056.04 16C1056.04 7.16344 1063.21 0 1072.04 0H1080.47C1089.3 0 1096.47 7.16344 1096.47 16V157.875C1096.47 166.712 1103.63 173.875 1112.47 173.875H1184.49C1193.33 173.875 1200.49 181.038 1200.49 189.875V192.056C1200.49 200.892 1193.33 208.056 1184.49 208.056H1072.04C1063.21 208.056 1056.04 200.892 1056.04 192.056V16Z" stroke="url(#paint5_linear_1_565)" stroke-width="4"/>
<path d="M918.309 10.5046C920.616 4.19585 926.618 0 933.335 0H947.821C954.538 0 960.54 4.19584 962.848 10.5045L1027.23 186.56C1031.05 197 1023.32 208.056 1012.21 208.056H1005.24C998.535 208.056 992.54 203.873 990.225 197.578L980.99 172.464C978.675 166.169 972.68 161.986 965.973 161.986H915.184C908.477 161.986 902.482 166.169 900.167 172.464L890.931 197.578C888.616 203.873 882.621 208.056 875.914 208.056H868.949C857.834 208.056 850.105 197 853.923 186.56L918.309 10.5046ZM945.676 128.697C956.695 128.697 964.416 117.819 960.78 107.417L940.676 49.9152C940.617 49.748 940.46 49.6361 940.283 49.6361V49.6361C940.104 49.6361 939.945 49.75 939.888 49.9191L920.382 107.569C916.872 117.943 924.587 128.697 935.538 128.697H945.676Z" stroke="url(#paint6_linear_1_565)" stroke-width="4"/>
<path d="M666.273 177.075C663.272 174.075 661.586 170.005 661.586 165.761V16C661.586 7.16347 668.75 0 677.586 0H686.009C694.845 0 702.009 7.16344 702.009 16V151.792C702.009 156.035 703.694 160.105 706.695 163.106L712.481 168.891C715.481 171.892 719.551 173.578 723.794 173.578H768.795C773.039 173.578 777.108 171.892 780.109 168.891L785.895 163.106C788.895 160.105 790.581 156.035 790.581 151.792V16C790.581 7.16344 797.744 0 806.581 0H815.003C823.84 0 831.003 7.16344 831.003 16V165.761C831.003 170.005 829.317 174.075 826.317 177.075L800.023 203.369C797.022 206.37 792.952 208.056 788.709 208.056H703.88C699.637 208.056 695.567 206.37 692.567 203.369L666.273 177.075Z" stroke="url(#paint7_linear_1_565)" stroke-width="4"/>
<path d="M535.272 50.1806C535.272 41.344 528.108 34.1806 519.272 34.1806H489.152C480.316 34.1806 473.152 27.0171 473.152 18.1806V16C473.152 7.16345 480.316 0 489.152 0H621.813C630.65 0 637.813 7.16345 637.813 16V18.1805C637.813 27.0171 630.65 34.1806 621.813 34.1806H591.694C582.857 34.1806 575.694 41.344 575.694 50.1806V192.056C575.694 200.892 568.53 208.056 559.694 208.056H551.272C542.435 208.056 535.272 200.892 535.272 192.056V50.1806Z" stroke="url(#paint8_linear_1_565)" stroke-width="4"/>
<path d="M451.098 134.52C453.784 137.467 455.272 141.31 455.272 145.297V192.056C455.272 200.892 448.109 208.056 439.272 208.056H430.85C422.013 208.056 414.85 200.892 414.85 192.056V154.431C414.85 150.492 413.397 146.691 410.769 143.757L401.786 133.726C398.751 130.337 394.417 128.4 389.867 128.4H348.222C339.386 128.4 332.222 135.563 332.222 144.4V192.056C332.222 200.892 325.059 208.056 316.222 208.056H307.8C298.963 208.056 291.8 200.892 291.8 192.056V16C291.8 7.16344 298.963 0 307.8 0H415.61C419.879 0 423.971 1.7062 426.976 4.73903L449.45 27.4229C452.418 30.4191 454.083 34.4662 454.083 38.6839V88.552C454.083 92.755 452.43 96.7892 449.479 99.7828L444.516 104.819C438.548 110.875 438.359 120.542 444.087 126.827L451.098 134.52ZM332.222 79.1111C332.222 87.9477 339.386 95.1111 348.222 95.1111H397.225C401.469 95.1111 405.539 93.4254 408.539 90.4248L409.569 89.3946C412.57 86.394 414.256 82.3244 414.256 78.0809V50.9135C414.256 46.6701 412.57 42.6004 409.569 39.5998L408.539 38.5696C405.539 35.5691 401.469 33.8833 397.225 33.8833H348.222C339.386 33.8833 332.222 41.0468 332.222 49.8833V79.1111Z" stroke="url(#paint9_linear_1_565)" stroke-width="4"/>
<path d="M211.144 16C211.144 7.16344 218.307 0 227.144 0H235.566C244.403 0 251.566 7.16344 251.566 16V192.056C251.566 200.892 244.403 208.056 235.566 208.056H227.144C218.307 208.056 211.144 200.892 211.144 192.056V16Z" stroke="url(#paint10_linear_1_565)" stroke-width="4"/>
<path d="M7.59886 21.3623C3.89355 10.9457 11.6176 0 22.6735 0H29.9698C36.9094 0 43.0579 4.47351 45.1934 11.0764L93.2363 159.623C93.2908 159.791 93.4478 159.906 93.625 159.906V159.906C93.8022 159.906 93.9591 159.791 94.0137 159.623L142.057 11.0764C144.192 4.47351 150.341 0 157.28 0H164.576C175.632 0 183.356 10.9457 179.651 21.3623L117.026 197.418C114.757 203.796 108.72 208.056 101.951 208.056H85.299C78.5297 208.056 72.493 203.796 70.2243 197.418L7.59886 21.3623Z" stroke="url(#paint11_linear_1_565)" stroke-width="4"/>
</mask>
<g mask="url(#mask0_1_565)">
<rect x="86" y="104" width="1921" height="132" fill="url(#paint12_linear_1_565)"/>
</g>
<defs>
<linearGradient id="paint0_linear_1_565" x1="1946.55" y1="104.028" x2="2091" y2="104.028" gradientUnits="userSpaceOnUse">
<stop stop-color="#090909"/>
<stop offset="1" stop-color="#580110"/>
</linearGradient>
<linearGradient id="paint1_linear_1_565" x1="1736.57" y1="104.028" x2="1925.6" y2="104.028" gradientUnits="userSpaceOnUse">
<stop stop-color="#090909"/>
<stop offset="1" stop-color="#580110"/>
</linearGradient>
<linearGradient id="paint2_linear_1_565" x1="1570" y1="104.028" x2="1757.24" y2="104.028" gradientUnits="userSpaceOnUse">
<stop stop-color="#090909"/>
<stop offset="1" stop-color="#580110"/>
</linearGradient>
<linearGradient id="paint3_linear_1_565" x1="1505.69" y1="104.028" x2="1546.11" y2="104.028" gradientUnits="userSpaceOnUse">
<stop stop-color="#090909"/>
<stop offset="1" stop-color="#580110"/>
</linearGradient>
<linearGradient id="paint4_linear_1_565" x1="1303.63" y1="104.028" x2="1467.1" y2="104.028" gradientUnits="userSpaceOnUse">
<stop stop-color="#090909"/>
<stop offset="1" stop-color="#580110"/>
</linearGradient>
<linearGradient id="paint5_linear_1_565" x1="1056.04" y1="104.028" x2="1200.49" y2="104.028" gradientUnits="userSpaceOnUse">
<stop stop-color="#090909"/>
<stop offset="1" stop-color="#580110"/>
</linearGradient>
<linearGradient id="paint6_linear_1_565" x1="846.062" y1="104.028" x2="1035.09" y2="104.028" gradientUnits="userSpaceOnUse">
<stop stop-color="#090909"/>
<stop offset="1" stop-color="#580110"/>
</linearGradient>
<linearGradient id="paint7_linear_1_565" x1="661.586" y1="104.028" x2="831.003" y2="104.028" gradientUnits="userSpaceOnUse">
<stop stop-color="#090909"/>
<stop offset="1" stop-color="#580110"/>
</linearGradient>
<linearGradient id="paint8_linear_1_565" x1="473.152" y1="104.028" x2="637.813" y2="104.028" gradientUnits="userSpaceOnUse">
<stop stop-color="#090909"/>
<stop offset="1" stop-color="#580110"/>
</linearGradient>
<linearGradient id="paint9_linear_1_565" x1="291.8" y1="104.028" x2="455.272" y2="104.028" gradientUnits="userSpaceOnUse">
<stop stop-color="#090909"/>
<stop offset="1" stop-color="#580110"/>
</linearGradient>
<linearGradient id="paint10_linear_1_565" x1="211.144" y1="104.028" x2="251.566" y2="104.028" gradientUnits="userSpaceOnUse">
<stop stop-color="#090909"/>
<stop offset="1" stop-color="#580110"/>
</linearGradient>
<linearGradient id="paint11_linear_1_565" x1="0" y1="104.028" x2="187.25" y2="104.028" gradientUnits="userSpaceOnUse">
<stop stop-color="#090909"/>
<stop offset="1" stop-color="#580110"/>
</linearGradient>
<linearGradient id="paint12_linear_1_565" x1="1203.5" y1="236" x2="1203.5" y2="104" gradientUnits="userSpaceOnUse">
<stop stop-color="#580110"/>
<stop offset="1" stop-color="#090909"/>
</linearGradient>
</defs>
</svg>
