<svg width="2248" height="760" viewBox="0 0 2248 760" fill="none" xmlns="http://www.w3.org/2000/svg">
<path d="M1871.55 759.142H1780.4C1795.36 741.51 1808.65 722.456 1821.05 702.727C1823.5 698.816 1825.88 694.621 1828.44 690.462C1819.17 686.018 1810.85 682.108 1802.86 678.375C1802.86 677.096 1802.79 676.775 1802.86 676.598C1803.21 675.922 1803.57 675.247 1804.07 674.643C1830.86 645.706 1860.53 623.239 1903.07 627.754L1902.99 627.825C1915.08 628.998 1927.41 630.278 1939.38 628.998C1962.76 626.545 1986.25 623.808 2009.63 621L1871.55 759.142ZM1190.32 0C1122.27 45.9289 1071.07 110.237 1035.96 191.146C1034.51 194.309 1033.58 197.722 1032.37 201.027C1089.26 87.6984 1182.65 27.0525 1265.55 0H1368.7C1321.16 55.4914 1314.87 133.663 1352.89 198.823C1376.7 239.811 1409.6 272.339 1445.07 302.697C1445.67 303.124 1446.52 303.302 1448.73 304.226C1440.48 291.464 1432.91 280.408 1425.84 268.926C1405.16 235.581 1386.36 201.206 1376.59 162.671C1361.38 102.842 1378.97 40.8454 1420.73 0H1549.29C1545.13 1.3508 1540.87 2.73709 1536.71 4.08789C1593.85 5.1188 1647.43 19.4091 1699.63 41.0938C1693.27 31.389 1686.8 21.7552 1680.09 11.7305C1684.6 8.42458 1688.62 5.26137 1692.77 2.45312C1694.05 1.52889 1695.16 0.782043 1696.19 0H1724.58C1726.11 1.42195 1727.92 3.05753 1729.94 4.83496C1746.43 19.8364 1760.4 37.1842 1772.97 55.6338C1723.58 87.4499 1711.93 143.936 1726.46 181.547C1743.06 224.276 1786.76 240.167 1823.58 237.536C1750.34 217.38 1744.23 137.395 1772.37 106.433C1787.01 124.633 1803.39 140.808 1823.65 152.539C1845.25 165.123 1867.53 173.975 1893.54 171.167C1909.35 169.461 1925.42 170.811 1941.41 171.167C1944.21 171.167 1947.94 171.914 1949.65 173.798C1960.52 185.244 1971.01 197.011 1982.2 209.453C1983.83 211.266 1982.95 214.252 1980.57 214.892C1952.64 222.215 1925.66 229.253 1898.69 236.292C1901.5 238.069 1903.95 238.069 1906.51 238.069C1931.31 238.496 1956.15 238.922 1980.99 239.526C1982.59 239.597 1984.65 239.847 1986.25 240.451C1987.46 240.984 1988.38 241.553 1988.81 242.335C1994.92 254.67 2000.46 267.433 2006.58 280.799C1969.51 288.62 1933.73 296.192 1897.91 303.692C1899.26 304.972 1900.44 305.149 1901.64 305.149C1935.58 306.749 1969.51 308.207 2003.45 309.984C2005.83 310.162 2009.67 312.046 2010.17 313.823C2015.1 330.104 2019.44 346.599 2024.02 363.521C1981.84 368.888 1940.09 374.079 1898.34 379.34V381.224C1940.52 386.52 1982.77 391.782 2025.8 397.149C2020.61 414.248 2015.67 430.245 2011.16 446.42C2009.99 450.686 2007.93 451.859 2003.77 452.037C1970.76 453.139 1937.85 454.525 1904.95 455.876C1903.24 455.947 1901.54 456.303 1899.83 456.552C1899.9 456.978 1899.9 457.405 1899.9 457.831C1935.12 465.652 1970.33 473.472 2006.11 481.471C2000.86 492.953 1995.38 503.049 1991.4 513.785C1988.67 521.108 1984.76 522.957 1977.37 522.886C1950.93 522.353 1924.49 522.708 1897.95 522.708L1897.7 524.485C1925.56 531.879 1953.38 539.167 1982.24 546.774C1983.73 547.165 1984.26 549.014 1983.27 550.151C1972.21 562.878 1962.05 574.822 1951.36 586.411C1949.15 588.793 1944.82 590.499 1941.41 590.57C1925.24 590.926 1909 590.57 1892.76 590.57C1884.94 590.57 1876.95 589.54 1869.38 590.997C1833.49 597.894 1805.17 617.694 1781.54 644.924C1778.23 648.656 1774.93 652.318 1771.52 656.157C1740.64 617.516 1755.95 542.153 1823.4 524.627C1790.07 521.392 1746.96 535.541 1729.52 573.897C1720.17 594.409 1717.86 615.49 1723.05 637.281C1730.01 666.644 1746.86 689.111 1772.97 705.179C1769.78 709.978 1766.97 714.457 1763.81 718.723C1753.08 733.262 1741.53 747.198 1727.92 759.035H1693.13C1688.55 755.8 1683.96 752.495 1679.27 749.26C1685.56 739.839 1691.42 731.13 1697.22 722.385C1645.34 742.185 1593.21 757.435 1537.17 757.08C1539.37 757.684 1541.51 758.36 1543.71 759.035H1417.85C1382.14 722.811 1364.08 670.057 1372.01 618.512C1377.69 581.506 1392.58 548.339 1411.2 516.522C1422.93 496.544 1435.51 476.956 1447.77 457.227C1434.65 467.891 1421.72 478.77 1409.75 490.679C1378.8 521.393 1352.54 555.235 1337.47 597.005C1317.07 653.669 1328.8 715.169 1367.25 759.071H1257.38C1230.65 749.722 1204.89 737.386 1179.98 722.313C1116.2 683.779 1067.55 630.633 1034.47 562.309C1034.04 564.121 1033.79 564.69 1033.87 565.046C1034.65 567.25 1035.39 569.383 1036.25 571.516C1064.32 639.662 1107.17 696.47 1165.09 741.652C1172.91 747.873 1180.91 753.561 1189.08 759.106H0V0.106445H505.793L505.971 0V0.675781L569.221 63.2051L632.4 0H1190.32ZM1503.52 412.613C1520.9 454.881 1507.53 490.287 1483.12 523.454C1475.87 533.301 1468.31 542.935 1461.09 552.711C1445.1 574.467 1429.29 596.507 1422.57 623.311C1414.22 656.655 1417.71 688.044 1439.91 715.701C1449.19 727.361 1467.63 739.519 1478.01 741.226C1469.58 733.156 1461.34 725.229 1453.1 717.408C1541.36 741.048 1607.1 692.63 1632.37 647.377C1623.7 654.273 1615.1 662.2 1605.57 668.563C1595.98 674.962 1585.43 679.868 1575.23 685.414C1620.28 639.805 1647.18 589.29 1628.63 522.245C1644.45 539.593 1657.1 557.368 1662.64 579.586C1663.32 577.56 1663.49 575.604 1663.49 573.72H1663.46C1662.89 510.372 1610.83 452.606 1548.08 445.958C1541.29 445.283 1536.78 443.221 1533.12 436.929C1526.58 425.873 1516.95 417.803 1503.52 412.613ZM1966.64 168.252C1988.24 169.105 2025.59 169.353 2047.26 169.104C2049.22 169.033 2051.03 169.887 2052.38 171.238L2244.16 372.088C2247.99 376.069 2247.99 382.397 2244.09 386.379L2048.75 588.011C2047.37 589.468 2045.41 590.321 2043.39 590.321C2023.6 590.428 1990.87 591.032 1970.19 590.677C1968.66 590.677 1967.56 589.148 1968.16 587.69L1998.79 548.907C1999.04 548.125 1999.72 547.627 2000.5 547.449C2022.35 544.819 2047.76 534.012 2076.01 526.44L2075.83 524.663L2006.79 523.881C2006.11 523.881 2005.69 523.206 2005.94 522.53L2021 484.173L2137.34 465.367V465.189L2034.61 455.663C2033.4 455.485 2032.73 454.312 2033.16 453.281L2054.94 397.896C2055.26 396.972 2056.11 396.261 2057.14 396.189C2107.63 390.715 2174.65 385.383 2199.99 380.69C2206.35 378.309 2117.94 370.737 2055.93 363.521L2035.18 310.944C2034.58 309.416 2035.61 307.709 2037.21 307.531C2066.31 304.652 2123.7 299.355 2137.13 298.857C2137.3 298.857 2137.13 298.509 2137.13 298.502L2021.46 276.142L2007 239.385C2006.47 237.998 2007.32 236.47 2008.78 236.221L2075.26 236.149C2075.51 233.589 2013.43 213.363 2002.21 213.612C2001.03 213.612 2000 213.292 1999.33 212.438L1965.39 170.491L1965.36 170.456C1964.86 169.176 1965.36 168.252 1966.64 168.252ZM252.896 506.106H379.362V253.106H252.896V506.106ZM1662.54 385.667C1628.96 385.24 1595.27 385.597 1561.08 385.597C1561.83 386.023 1562.44 386.378 1563.11 386.627C1612.01 401.842 1659.94 419.368 1705.71 442.688C1725.61 452.783 1745.76 462.488 1767.96 466.576C1787.44 470.238 1806.38 469.953 1823.82 459.075C1833.7 452.89 1840.42 444.287 1840.42 431.774C1840.49 416.453 1832 403.299 1814.73 397.754C1800.19 393.097 1784.77 389.506 1769.56 388.582C1733.92 386.627 1698.21 386.201 1662.5 385.703L1662.54 385.667ZM1038.84 317.77C1034.72 315.175 1029.64 314.819 1025.23 316.881L922.821 364.623C917.882 366.934 914.755 371.768 914.648 377.207C914.329 382.362 917.491 387.552 922.359 390.04L1024.34 442.048C1028.75 444.287 1033.9 444.074 1038.13 441.515C1042.36 438.955 1044.92 434.44 1044.92 429.499L1045.34 329.749V329.679C1045.34 324.844 1042.93 320.4 1038.84 317.77ZM1822.05 442.652H1822.01C1822.03 442.636 1822.05 442.617 1822.07 442.601C1822.06 442.618 1822.06 442.635 1822.05 442.652ZM1810.61 402.197C1820.77 404.863 1828.62 410.161 1831.18 420.932C1833.09 429.088 1830.23 435.687 1822.07 442.601C1830.74 424.002 1824.49 411.893 1810.61 402.197ZM1143.06 319.867C1137.7 319.867 1133.36 324.204 1133.36 329.571V429.605C1133.36 434.973 1137.7 439.311 1143.06 439.311H1243.05C1248.42 439.31 1252.75 434.973 1252.75 429.605V329.571C1252.75 324.204 1248.42 319.867 1243.05 319.867H1143.06ZM561.51 319.761C529.671 319.761 503.803 345.64 503.803 377.491C503.803 409.343 529.671 435.222 561.51 435.223C593.348 435.223 619.218 409.307 619.218 377.491C619.218 345.64 593.348 319.761 561.51 319.761ZM824.036 318.231C820.589 314.783 815.01 314.783 811.563 318.231H811.635L766.969 362.916L722.302 318.231C718.855 314.784 713.276 314.783 709.829 318.231C706.383 321.68 706.383 327.261 709.829 330.709L754.496 375.394L709.829 420.079C706.383 423.527 706.382 429.109 709.829 432.557C711.535 434.298 713.809 435.151 716.048 435.151C718.286 435.151 720.561 434.263 722.267 432.557L766.933 387.871L811.6 432.557C813.305 434.298 815.579 435.151 817.817 435.151C820.056 435.151 822.331 434.263 824.036 432.557C827.483 429.108 827.483 423.527 824.036 420.079L779.37 375.394L824.036 330.709C827.483 327.261 827.483 321.68 824.036 318.231ZM1027.29 423.812L936.715 377.598L1027.68 335.188L1027.29 423.812ZM1225.39 337.499C1230.75 337.499 1235.09 341.844 1235.09 347.204V411.974C1235.09 417.333 1230.75 421.678 1225.39 421.679H1160.65C1155.29 421.679 1150.95 417.333 1150.95 411.974V347.204C1150.95 341.844 1155.29 337.499 1160.65 337.499H1225.39ZM561.546 337.393C583.648 337.393 601.628 355.38 601.628 377.491C601.628 399.602 583.648 417.59 561.546 417.59C539.444 417.59 521.463 399.602 521.463 377.491C521.463 355.38 539.444 337.393 561.546 337.393ZM1796.85 293.668C1770.84 290.184 1746.71 298.573 1723.65 309.735C1682.82 329.571 1641.57 348.377 1598.47 362.738C1586.03 366.826 1573.52 370.595 1561.12 374.576C1561.12 375.003 1561.19 375.5 1561.19 375.927C1563.64 375.927 1566.02 375.998 1568.41 375.927C1613.25 375.358 1658.06 375.251 1702.87 373.9C1735.17 372.869 1767.5 370.666 1799.8 367.929C1812.45 366.827 1824.21 361.388 1832.96 351.079C1845.36 336.54 1843.3 314.499 1826.99 304.545C1817.96 299.106 1807.16 295.019 1796.78 293.668H1796.85ZM1823.5 321.111C1829.62 324.489 1832.92 331.101 1832.03 337.748C1830.61 348.626 1821.51 357.442 1808.01 360.108C1823.01 350.404 1830.9 338.708 1823.5 321.111ZM1478.11 18.1299C1477.54 18.3075 1476.26 18.4146 1475.23 18.9121C1450.82 29.6834 1433.23 46.8885 1424.56 72.6611C1411.38 111.8 1419.87 147.705 1442.08 180.801C1458.57 205.294 1477.37 228.187 1493.36 252.929L1493.32 252.964C1511.69 281.474 1517.98 312.437 1504.73 345.355C1504.41 346.209 1504.48 347.133 1504.23 348.839C1517.91 342.796 1527.86 333.873 1535.61 322.035C1537.24 319.476 1540.72 316.917 1543.6 316.668C1597.26 311.371 1645.73 270.632 1660.01 218.482C1663.74 204.867 1664.7 190.647 1662.39 183.857C1649.53 214.145 1639.4 230.071 1629.38 236.363C1646.83 171.771 1620.71 121.754 1576.15 77.7803C1599.28 85.7787 1618.69 99.5714 1635.35 117.523C1625.47 96.3366 1599.71 70.2087 1574.38 56.3447C1536.78 35.9043 1497.09 32.1713 1455.16 41.6982C1462.8 33.7711 1470.54 25.8793 1478.11 18.1299ZM2012.12 140.631C1999.18 139.102 1986.18 137.574 1973.25 136.045C1959.64 134.516 1946.13 132.135 1932.52 131.708C1917.81 131.175 1903.1 133.13 1888.46 133.059C1880.71 132.988 1872.72 131.779 1865.4 129.326C1842.02 121.399 1823.11 106.504 1806.63 88.4805C1805.35 87.1296 1804.32 85.494 1802.79 83.4678H1802.82C1812.1 79.1309 1820.7 75.1496 1829.37 71.0615C1814.34 45.8932 1798.6 21.791 1779.8 0.106445H1871.65L2012.12 140.631Z" fill="#580110"/>
</svg>
