<svg width="25" height="32" viewBox="0 0 25 32" fill="none" xmlns="http://www.w3.org/2000/svg">
<path d="M14.5045 0.913086C11.5252 7.10155 19.1343 13.1655 19.858 18.5254C21.1599 16.8684 21.9341 14.7779 21.9341 12.5088C21.9341 11.6093 21.812 10.7367 21.5787 9.9082C23.1917 12.4173 24.1997 15.4745 24.1998 18.5957C24.1998 25.0613 19.8881 30.2388 14.8394 31.6152C18.586 29.0317 19.0425 26.0594 18.0484 22.918C17.5513 24.1725 16.973 25.3629 15.7759 26.0527C16.0262 22.4479 11.6099 19.3464 11.6978 15.0449C8.75243 17.3106 8.10281 21.0679 10.0201 25.6973C8.82974 25.4976 6.85155 23.895 6.83453 22.0928C5.02207 25.2241 5.12373 28.464 7.81207 30.9766C3.55457 29.005 0.199768 24.3006 0.199768 18.5957C0.199823 15.7856 1.01496 13.0328 2.35406 10.6826C2.71252 12.5256 3.70646 14.1461 5.10309 15.2891C4.91033 14.447 4.81208 13.5675 4.81207 12.668C4.81207 6.83798 8.98219 1.97832 14.5045 0.913086Z" fill="#FEFEFE"/>
</svg>
