<svg width="29" height="18" viewBox="0 0 29 18" fill="none" xmlns="http://www.w3.org/2000/svg">
<g clip-path="url(#clip0_23_598)">
<path fill-rule="evenodd" clip-rule="evenodd" d="M8.13893 5.71265V6.79339H9.20959C9.49751 6.79339 9.75948 6.9125 9.94907 7.10387C10.1387 7.29524 10.2567 7.55966 10.2567 7.85029C10.2567 8.14092 10.1387 8.40535 9.94907 8.59672C9.75948 8.78809 9.49751 8.9072 9.20959 8.9072H8.13893V9.98793C8.13893 10.2786 8.02092 10.543 7.83134 10.7344C7.64175 10.9257 7.37978 11.0448 7.09186 11.0448C6.80394 11.0448 6.54197 10.9257 6.35239 10.7344C6.1628 10.543 6.0448 10.2786 6.0448 9.98793V8.9072H4.97413C4.68621 8.9072 4.42424 8.78809 4.23466 8.59672C4.04507 8.40535 3.92707 8.14092 3.92707 7.85029C3.92707 7.55966 4.04507 7.29524 4.23466 7.10387C4.42424 6.9125 4.68621 6.79339 4.97413 6.79339H6.0448V5.71265C6.0448 5.42202 6.1628 5.1576 6.35239 4.96623C6.54197 4.77486 6.80394 4.65575 7.09186 4.65575C7.37978 4.65575 7.64175 4.77486 7.83134 4.96623C8.02092 5.1576 8.13893 5.42202 8.13893 5.71265ZM2.48037 3.86326C1.26732 7.06178 -1.87466 15.3424 1.55131 17.7365L1.55681 17.7404C2.93113 18.7624 4.96626 16.5549 6.39487 15.0049C6.70246 14.6706 6.98409 14.3664 7.23189 14.1219C7.33809 13.9734 7.90056 13.2937 9.24263 13.2937H11.4414V12.0438C11.4414 11.8421 11.5232 11.6579 11.6546 11.5253C11.786 11.3926 11.9685 11.3101 12.1683 11.3101H16.8317C17.0315 11.3101 17.214 11.3926 17.3454 11.5253C17.4768 11.6579 17.5586 11.8421 17.5586 12.0438V13.2937H19.7573C21.1002 13.2937 21.6619 13.9734 21.7681 14.1219C22.0167 14.3656 22.2975 14.6706 22.6051 15.0049C24.0337 16.5541 26.0688 18.7624 27.4431 17.7404L27.4487 17.7365C30.8738 15.3424 27.7326 7.06258 26.5196 3.86326L26.4858 3.77353L26.4826 3.7648C26.0617 2.51572 25.3663 1.67639 24.5891 1.11498C23.461 0.298679 22.1567 0.0620453 21.2701 0.0056663C20.083 -0.0697704 19.515 0.685391 18.7999 1.63669C18.5545 1.96226 18.2941 2.31006 17.9968 2.64675C17.5043 3.23039 16.9284 3.23753 16.8325 3.23436H12.1651C12.0692 3.23674 11.4941 3.22959 11.0009 2.64675C10.7043 2.30927 10.4431 1.96226 10.1984 1.63669C9.48493 0.685391 8.91616 -0.0705645 7.72985 0.0056663C6.84327 0.0620453 5.53896 0.299473 4.41087 1.11498C3.63442 1.67639 2.93822 2.51572 2.51734 3.7648L2.5142 3.77353L2.48037 3.86326ZM18.8401 7.85903C18.8401 7.55172 18.9636 7.273 19.1634 7.07131C19.3632 6.86962 19.6393 6.74495 19.9438 6.74495C20.2482 6.74495 20.5243 6.86962 20.7242 7.07131C20.924 7.273 21.0475 7.55172 21.0475 7.85903C21.0475 8.16633 20.924 8.44505 20.7242 8.64675C20.5243 8.84844 20.2482 8.97311 19.9438 8.97311C19.6393 8.97311 19.3632 8.84844 19.1634 8.64675C18.9636 8.44505 18.8401 8.16633 18.8401 7.85903ZM23.3343 8.64675C23.1345 8.44505 23.011 8.16633 23.011 7.85903C23.011 7.55172 23.1345 7.273 23.3343 7.07131C23.5342 6.86962 23.8103 6.74495 24.1147 6.74495C24.4192 6.74495 24.6953 6.86962 24.8951 7.07131C25.0949 7.273 25.2184 7.55172 25.2184 7.85903C25.2184 8.16633 25.0949 8.44505 24.8951 8.64675C24.6953 8.84844 24.4192 8.97311 24.1147 8.97311C23.8103 8.97311 23.5342 8.84844 23.3343 8.64675ZM22.0293 8.85003C22.3337 8.85003 22.6098 8.9747 22.8096 9.17639C23.0094 9.37809 23.133 9.65681 23.133 9.96411C23.133 10.2714 23.0094 10.5501 22.8096 10.7518C22.6098 10.9535 22.3337 11.0782 22.0293 11.0782C21.7248 11.0782 21.4487 10.9535 21.2489 10.7518C21.0491 10.5501 20.9255 10.2714 20.9255 9.96411C20.9255 9.65681 21.0491 9.37809 21.2489 9.17639C21.4487 8.9747 21.7248 8.85003 22.0293 8.85003ZM20.9255 5.75395C20.9255 5.44664 21.0491 5.16792 21.2489 4.96623C21.4487 4.76453 21.7248 4.63986 22.0293 4.63986C22.3337 4.63986 22.6098 4.76453 22.8096 4.96623C23.0094 5.16792 23.133 5.44664 23.133 5.75395C23.133 6.06125 23.0094 6.33997 22.8096 6.54166C22.6098 6.74336 22.3337 6.86803 22.0293 6.86803C21.7248 6.86803 21.4487 6.74336 21.2489 6.54166C21.0491 6.33997 20.9255 6.06125 20.9255 5.75395Z" fill="white"/>
<path fill-rule="evenodd" clip-rule="evenodd" d="M11.9905 11.8642C11.9449 11.9102 11.9166 11.9738 11.9166 12.0437V13.2935H17.0834V12.0437C17.0834 11.9738 17.0551 11.9102 17.0095 11.8642C16.9639 11.8181 16.9009 11.7896 16.8317 11.7896H12.1683C12.0991 11.7896 12.0361 11.8181 11.9905 11.8642Z" fill="white"/>
<path fill-rule="evenodd" clip-rule="evenodd" d="M7.09188 5.21069L7.87856 6.00476H6.30521L7.09188 5.21069Z" fill="white"/>
<path fill-rule="evenodd" clip-rule="evenodd" d="M7.09188 10.4889L6.30521 9.69482H7.87856L7.09188 10.4889Z" fill="white"/>
<path fill-rule="evenodd" clip-rule="evenodd" d="M9.70678 7.85016L8.9201 8.64423V7.05609L9.70678 7.85016Z" fill="white"/>
<path fill-rule="evenodd" clip-rule="evenodd" d="M4.47696 7.85016L5.26363 7.05609V8.64423L4.47696 7.85016Z" fill="white"/>
</g>
<defs>
<clipPath id="clip0_23_598">
<rect width="29" height="18" fill="white"/>
</clipPath>
</defs>
</svg>
