<svg width="20" height="20" viewBox="0 0 20 20" fill="none" xmlns="http://www.w3.org/2000/svg">
<path d="M9.91092 4.33008L15.6709 10.0901L7.77097 18C7.40097 18.37 6.93093 18.61 6.42094 18.7L1.68094 19.49C1.62094 19.5 1.57096 19.5 1.51096 19.5C1.25096 19.5 0.99094 19.39 0.80094 19.2C0.57094 18.97 0.460962 18.6401 0.510962 18.3201L1.30094 13.5801C1.39094 13.0701 1.63095 12.6 2.00095 12.23L9.91092 4.33008ZM18.3009 1.69995C17.5309 0.919951 16.5109 0.5 15.4209 0.5C14.3309 0.5 13.3109 0.919951 12.5409 1.69995L11.331 2.90991L17.091 8.66992L18.3009 7.45996C19.0809 6.68996 19.501 5.67008 19.501 4.58008C19.501 3.49008 19.0809 2.46995 18.3009 1.69995Z" fill="#B9B9BC"/>
</svg>
