<svg width="20" height="20" viewBox="0 0 20 20" fill="none" xmlns="http://www.w3.org/2000/svg">
<path d="M18.49 18.0114C17.668 18.9614 16.493 19.4995 15.249 19.4995C15.21 19.4995 15.171 19.4995 15.132 19.4985C7.14396 19.2815 0.716951 12.8544 0.501951 4.8674C0.466951 3.5704 1.01296 2.34138 1.99896 1.49338C2.93596 0.686378 4.15596 0.34947 5.34796 0.56247C5.53096 0.59547 5.68796 0.637366 5.82196 0.681366C6.34996 0.856366 6.73396 1.31355 6.82196 1.87155L7.492 6.12643C7.576 6.65943 7.36799 7.19957 6.95099 7.53757C6.86699 7.60557 6.77996 7.67044 6.68896 7.73044C6.45696 7.88844 6.36896 8.15745 6.47296 8.39645C7.47496 10.7015 9.295 12.5214 11.599 13.5234C11.839 13.6284 12.108 13.5385 12.27 13.3015C12.317 13.2335 12.366 13.1665 12.416 13.1025C12.752 12.6745 13.303 12.4684 13.847 12.5554L18.179 13.2766C18.751 13.3726 19.216 13.7775 19.365 14.3095C19.392 14.4065 19.418 14.5166 19.44 14.6416C19.649 15.8426 19.303 17.0694 18.49 18.0114Z" fill="#B9B9BC"/>
</svg>
