<svg width="36" height="36" viewBox="0 0 36 36" fill="none" xmlns="http://www.w3.org/2000/svg">
<path d="M21.4624 2.97115C20.3308 2.71871 19.1761 2.58471 18.0167 2.57129C16.8304 2.585 15.6716 2.71829 14.5402 2.97115C14.2983 3.02464 14.0794 3.15269 13.9143 3.33722C13.7491 3.52176 13.646 3.75348 13.6196 3.99972L13.3509 6.413C13.3123 6.75339 13.1947 7.08004 13.0073 7.3668C12.8199 7.65356 12.568 7.89248 12.2717 8.06443C11.9754 8.23637 11.643 8.33658 11.301 8.35702C10.9591 8.37746 10.6171 8.31757 10.3024 8.18215L8.09101 7.20886C7.86654 7.11004 7.61691 7.08344 7.37666 7.13273C7.13641 7.18202 6.91743 7.30478 6.75001 7.484C5.15068 9.19539 3.95988 11.2469 3.26701 13.4844C3.19323 13.7199 3.19497 13.9726 3.27197 14.2071C3.34898 14.4416 3.4974 14.6461 3.69644 14.792L5.65972 16.2384C5.93611 16.4415 6.16084 16.7067 6.31573 17.0127C6.47062 17.3187 6.55133 17.6569 6.55133 17.9999C6.55133 18.3428 6.47062 18.681 6.31573 18.987C6.16084 19.293 5.93611 19.5582 5.65972 19.7613L3.69644 21.2116C3.49765 21.3574 3.3494 21.5617 3.27241 21.7959C3.19542 22.0301 3.19353 22.2825 3.26701 22.5179C3.95988 24.7567 5.14965 26.8102 6.74744 28.5247C6.9147 28.7042 7.13362 28.8272 7.37388 28.8767C7.61413 28.9262 7.86384 28.8998 8.08844 28.8011L10.3102 27.8253C10.6231 27.6893 10.9636 27.6284 11.3043 27.6476C11.645 27.6668 11.9764 27.7656 12.2722 27.9359C12.8713 28.283 13.2712 28.8937 13.3496 29.5829L13.617 31.9961C13.6433 32.2391 13.7442 32.4679 13.9058 32.6511C14.0675 32.8344 14.2819 32.9631 14.5196 33.0196C16.8075 33.5636 19.1912 33.5636 21.4792 33.0196C21.7169 32.9631 21.9313 32.8344 22.0929 32.6511C22.2545 32.4679 22.3554 32.2391 22.3817 31.9961L22.6492 29.579C22.6854 29.2384 22.8016 28.9112 22.9882 28.6239C23.1747 28.3367 23.4265 28.0975 23.7229 27.9259C24.0193 27.7542 24.352 27.6549 24.6941 27.6361C25.0361 27.6173 25.3777 27.6795 25.6912 27.8176L27.9116 28.7934C28.1362 28.8921 28.3859 28.9185 28.6261 28.869C28.8664 28.8194 29.0853 28.6964 29.2526 28.517C30.8495 26.8043 32.0393 24.7532 32.733 22.5166C32.8068 22.2811 32.805 22.0284 32.728 21.7939C32.651 21.5594 32.5026 21.3549 32.3036 21.209L30.3429 19.7613C30.0664 19.5583 29.8416 19.2932 29.6866 18.9872C29.5316 18.6813 29.4507 18.3432 29.4506 18.0002C29.4505 17.6572 29.5311 17.319 29.6859 17.013C29.8406 16.7069 30.0653 16.4416 30.3416 16.2384L32.3023 14.7894C32.5009 14.6434 32.6488 14.4391 32.7256 14.2049C32.8024 13.9707 32.8041 13.7183 32.7304 13.4831C32.0379 11.2457 30.8476 9.19423 29.2487 7.48272C29.0813 7.30349 28.8623 7.18074 28.6221 7.13145C28.3818 7.08215 28.1322 7.10876 27.9077 7.20757L25.6963 8.18086C25.4207 8.30213 25.1231 8.36516 24.822 8.366C24.2833 8.3653 23.7639 8.16569 23.3633 7.80549C22.9628 7.44529 22.7094 6.94987 22.6517 6.41429L22.3817 3.99843C22.3552 3.75277 22.2524 3.52159 22.0877 3.33735C21.9231 3.1531 21.7036 3.02504 21.4624 2.97115ZM18 23.1427C16.636 23.1427 15.3279 22.6009 14.3635 21.6364C13.399 20.6719 12.8572 19.3638 12.8572 17.9999C12.8572 16.6359 13.399 15.3278 14.3635 14.3633C15.3279 13.3988 16.636 12.857 18 12.857C19.364 12.857 20.6721 13.3988 21.6366 14.3633C22.601 15.3278 23.1429 16.6359 23.1429 17.9999C23.1429 19.3638 22.601 20.6719 21.6366 21.6364C20.6721 22.6009 19.364 23.1427 18 23.1427Z" fill="white"/>
</svg>
