<svg width="21" height="21" viewBox="0 0 21 21" fill="none" xmlns="http://www.w3.org/2000/svg">
<path d="M20.8113 3.48364L17.3584 17.2956C16.8636 19.2642 15.1793 20.1484 13.7054 20.1484C13.6949 20.1484 13.6844 20.1484 13.6844 20.1484C12.2001 20.1379 10.5052 19.2326 10.042 17.2429L9.13666 13.4005L14.8003 7.73671C15.2109 7.32615 15.2109 6.65248 14.8003 6.24192C14.3898 5.83135 13.716 5.83135 13.3054 6.24192L7.64175 11.9055L3.79935 11.0003C1.80971 10.5371 0.904358 8.84223 0.893831 7.36841C0.883303 5.88406 1.76761 4.17864 3.74673 3.68385L17.5584 0.230869C18.4743 -0.000731394 19.4323 0.262369 20.106 0.936116C20.7798 1.60986 21.0429 2.56777 20.8113 3.48364Z" fill="#FEFEFE"/>
</svg>
