<svg width="18" height="18" viewBox="0 0 18 18" fill="none" xmlns="http://www.w3.org/2000/svg">
<path d="M5.25037 5.62451C5.25037 3.55676 6.93262 1.87451 9.00037 1.87451C11.0681 1.87451 12.7504 3.55676 12.7504 5.62451C12.7504 7.69226 11.0681 9.37451 9.00037 9.37451C6.93262 9.37451 5.25037 7.69226 5.25037 5.62451ZM12.0881 10.1778C11.6689 10.0713 11.2129 10.1313 10.8356 10.3413C9.69713 10.9743 8.3036 10.9743 7.1651 10.3413C6.7886 10.1321 6.33186 10.0728 5.91261 10.1778C4.41861 10.555 3.37537 11.911 3.37537 13.4748V14.233C3.37537 14.7115 3.50285 15.1795 3.7451 15.5875C3.94235 15.919 4.31213 16.1252 4.70888 16.1252H13.2911C13.6879 16.1252 14.0576 15.9197 14.2549 15.5867C14.4971 15.1795 14.6246 14.7115 14.6246 14.233V13.4748C14.6254 11.911 13.5821 10.555 12.0881 10.1778Z" fill="#B9B9BC"/>
</svg>
