<svg width="398" height="162" viewBox="0 0 398 162" fill="none" xmlns="http://www.w3.org/2000/svg">
<g clip-path="url(#clip0_31_896)">
<path d="M0 45.2919V0H18.0743V45.2919H36.1487V0H54.223V45.2919L27.1115 72.467L0 45.2919Z" fill="#15151C"/>
<path d="M63.2602 72.467V0H81.3345V72.467H63.2602Z" fill="#15151C"/>
<path d="M171.706 72.467V18.1167H153.632V0H207.855V18.1167H189.781V72.467H171.706Z" fill="#15151C"/>
<path d="M216.892 72.467V0H234.966V54.3502H253.041V0H271.115V72.467H216.892Z" fill="#15151C"/>
<path d="M280.158 72.467V0H334.381V72.467H316.307V45.2919H298.233V72.467H280.158ZM316.307 27.1751V18.1167H298.233V27.1751H316.307Z" fill="#15151C"/>
<path d="M343.418 72.467V0H361.493V54.3502H397.641V72.467H343.418Z" fill="#15151C"/>
<path d="M27.1115 98.9964L16.9196 88.7806H0V161.248H18.0743V134.073H36.1487V161.248H54.2291V134.073L49.7075 129.546L54.1805 125.014H54.2351V88.7806H37.3095L27.1176 98.9964H27.1115ZM36.1487 115.956H18.0743V106.897H36.1487V115.956Z" fill="#15151C"/>
<path d="M81.3406 88.7806H63.2602V161.248H81.3406V88.7806Z" fill="#15151C"/>
<path d="M153.632 161.248H171.706V134.073H189.787V161.248H207.861V88.7806H153.638V161.248H153.632ZM171.706 106.897H189.787V115.956H171.706V106.897Z" fill="#15151C"/>
<path d="M234.966 143.125V88.7806H216.898V161.248H271.121V143.125H234.966Z" fill="#15151C"/>
<path d="M132.555 140.883C132.494 142.43 132.476 145.105 132.494 146.658C132.501 146.798 132.44 146.926 132.343 147.023L117.994 160.76C117.708 161.034 117.258 161.034 116.973 160.754L102.569 146.761C102.466 146.664 102.405 146.524 102.405 146.378C102.399 144.958 102.356 142.613 102.381 141.133C102.381 141.023 102.49 140.944 102.593 140.987L105.365 143.18C105.419 143.198 105.456 143.247 105.468 143.301C105.656 144.867 106.428 146.688 106.969 148.711L107.097 148.699L107.152 143.752C107.152 143.703 107.2 143.673 107.249 143.691L109.99 144.769L111.333 153.103H111.345L112.026 145.744C112.038 145.659 112.123 145.61 112.196 145.641L116.152 147.2C116.219 147.224 116.268 147.285 116.274 147.358C116.663 150.977 117.046 155.777 117.38 157.593C117.55 158.049 118.091 151.714 118.608 147.273L122.363 145.787C122.473 145.744 122.594 145.817 122.606 145.933C122.813 148.016 123.19 152.128 123.226 153.091C123.226 153.103 123.245 153.103 123.251 153.091L124.849 144.806L127.475 143.77C127.572 143.734 127.681 143.795 127.699 143.898V148.662C127.888 148.68 129.334 144.233 129.316 143.429C129.316 143.344 129.34 143.271 129.401 143.222L132.397 140.792C132.488 140.755 132.555 140.792 132.555 140.883Z" fill="#15151C"/>
<path d="M112.955 130.521C113.448 131.112 113.922 131.313 114.505 131.179C115.277 130.996 115.654 130.436 115.842 129.705C115.149 130.698 114.286 131.148 112.949 130.521H112.955Z" fill="#15151C"/>
<path d="M118.851 129.516C119.045 130.484 119.671 131.136 120.449 131.24C120.923 131.301 121.397 131.069 121.634 130.631C120.376 131.161 119.543 130.594 118.851 129.522V129.516Z" fill="#15151C"/>
<path d="M139.502 131.045C141.301 129.967 143.021 128.84 144.57 127.493V134.072L134.53 144.136C134.64 143.21 134.749 142.278 134.859 141.352C134.968 140.377 135.138 139.409 135.169 138.434C135.205 137.38 135.065 136.326 135.071 135.279C135.077 134.724 135.162 134.152 135.339 133.628C135.904 131.953 136.967 130.6 138.256 129.418C138.353 129.327 138.469 129.254 138.614 129.144C138.924 129.808 139.21 130.424 139.502 131.045Z" fill="#15151C"/>
<path d="M99.6459 138.934C99.8221 140.609 100.017 142.29 100.217 143.965L90.3474 134.072V127.542C91.6054 128.614 92.9667 129.565 94.3767 130.454C94.6563 130.631 94.9541 130.801 95.2518 130.984C95.5679 130.32 95.8474 129.723 96.1148 129.15C96.206 129.15 96.2303 129.144 96.2425 129.15C96.2911 129.175 96.3397 129.199 96.3823 129.236C98.4486 131.154 100.053 133.281 99.7309 136.326C99.6459 137.191 99.5547 138.075 99.6459 138.934Z" fill="#15151C"/>
<path d="M144.57 36.2335V0H90.3474V85.1804C90.7424 84.5956 91.1496 84.023 91.5932 83.4625C94.8204 79.3141 98.8801 76.2438 103.748 74.2336C103.9 74.1727 104.052 74.1178 104.21 74.063C104.234 74.0569 104.277 74.0752 104.404 74.1057C99.5243 76.4753 95.7259 79.9598 92.9728 84.5286C91.8971 86.3134 91.0159 88.1592 90.3474 90.072V97.9425C93.4833 95.1891 97.8773 94.3484 101.925 95.8104C104.909 96.8886 107.328 98.771 109.522 100.988C110.373 101.847 111.15 102.773 111.91 103.711C110.5 102.834 109.102 101.933 107.674 101.092C105.401 99.7578 103.031 98.6918 100.387 98.2837C96.7044 97.7171 92.9363 99.0086 90.3474 101.567V110.583C90.396 110.424 90.4446 110.272 90.4871 110.114C90.4628 114.128 91.5507 117.862 92.9667 121.578C92.3408 121.164 91.7209 120.744 91.0463 120.293C90.8153 120.628 90.5783 120.957 90.3474 121.286V123.777C91.1921 124.752 92.1888 125.581 93.2281 126.348C93.5319 126.574 93.854 126.775 94.1944 127.006C95.343 125.136 96.9475 123.93 99.0442 123.43C100.6 123.059 102.107 123.223 103.572 123.893C106.313 125.142 107.322 128.23 107.091 130.618C105.839 125.788 100.454 124.691 97.695 126.903C97.9685 127.146 98.2298 127.384 98.4972 127.621C100.442 129.315 101.858 131.343 102.35 133.914C102.454 134.456 102.381 135.029 102.381 135.589C102.381 136.753 102.356 137.916 102.381 139.074C102.387 139.317 102.508 139.628 102.678 139.786C103.505 140.554 104.356 141.279 105.267 142.071C105.353 142.144 105.48 142.101 105.511 141.998C106.051 139.933 106.574 137.941 107.103 135.943L107.231 135.961C107.231 137.861 107.255 139.756 107.218 141.651C107.218 142.181 107.346 142.461 107.869 142.656C108.634 142.942 109.358 143.332 110.178 143.71C110.749 141.145 111.308 138.623 111.868 136.101C111.898 136.101 111.928 136.101 111.959 136.095C111.977 136.217 112.001 136.339 112.007 136.46C112.105 138.818 112.202 141.175 112.281 143.539C112.293 143.837 112.378 143.984 112.682 144.069C113.837 144.392 114.979 144.745 116.201 145.117C116.584 142.034 116.961 139.007 117.337 135.985H117.471C117.848 138.976 118.219 141.967 118.601 144.989C119.811 144.66 120.99 144.349 122.151 143.996C122.278 143.959 122.412 143.685 122.424 143.515C122.552 141.084 122.655 138.653 122.771 136.223C122.771 136.138 122.783 136.052 122.874 135.955C123.409 138.519 123.95 141.084 124.509 143.74C125.463 143.301 126.374 142.905 127.256 142.467C127.31 142.436 127.353 142.369 127.389 142.284C127.432 142.168 127.45 142.022 127.456 141.906C127.499 140.128 127.529 138.349 127.56 136.57C127.56 136.387 127.56 136.211 127.687 136.01C128.192 137.941 128.696 139.872 129.219 141.876C129.261 142.046 129.474 142.107 129.608 141.992C130.495 141.188 131.34 140.438 132.154 139.659C132.288 139.537 132.343 139.269 132.343 139.068C132.367 137.922 132.464 136.771 132.343 135.638C132.142 133.774 132.774 132.178 133.673 130.631C134.512 129.181 135.667 128.005 136.967 126.957C134.755 124.941 129.042 125.38 127.602 130.625C127.414 127.987 128.55 124.856 131.601 123.668C134.287 122.626 138.323 123.461 140.596 127C141.915 126.098 143.154 125.099 144.224 123.918C144.352 123.771 144.467 123.643 144.57 123.534V121.499C144.516 121.426 144.461 121.347 144.394 121.255C144.194 120.957 143.969 120.671 143.732 120.348C143.015 120.829 142.328 121.292 141.635 121.749C143.185 118.009 144.206 114.171 144.279 110.077C144.376 110.376 144.473 110.68 144.57 110.979V101.768C141.653 98.7771 137.223 97.5161 132.95 98.6065C130.197 99.3071 127.742 100.653 125.36 102.134C124.539 102.639 123.749 103.181 122.837 103.772C122.904 103.614 122.916 103.553 122.947 103.51C125.116 100.97 127.438 98.6126 130.367 96.9069C135.023 94.1839 140.608 94.6347 144.57 98.04V90.6507C142.638 84.7113 138.305 78.0226 130.209 73.9473C130.446 74.0326 130.689 74.0996 130.914 74.2031C136.694 76.719 141.289 80.3862 144.57 85.2596V45.2919L140.055 40.7657L144.522 36.2335H144.57ZM103.59 119.166C103.456 119.166 103.317 119.154 103.171 119.105C104.757 118.709 106.027 117.801 107.267 116.668C102.478 117.996 98.8679 116.071 95.6104 112.843C96.0055 113.574 96.3579 114.329 96.8138 115.018C97.2696 115.7 97.8348 116.315 98.327 116.936C95.0938 115.127 91.6358 110.418 93.3253 104.095C92.7662 104.686 92.201 105.277 91.6236 105.88C91.7452 105.137 92.6142 103.815 93.4468 103.151C95.422 101.561 97.6646 101.311 100.047 101.908C101.961 102.389 103.535 103.523 105.091 104.668C105.79 105.186 106.477 105.728 107.182 106.246C109.552 107.994 112.08 108.95 115.101 107.708C114.73 108.67 114.153 109.358 113.363 109.827C112.913 110.089 112.767 110.412 112.718 110.9C112.244 115.395 108.118 119.123 103.59 119.166ZM117.021 119.093C116.985 121.651 116.954 124.21 116.815 126.762C116.748 127.853 116.493 128.955 116.158 129.997C115.763 131.234 114.821 131.843 113.727 131.837C112.834 131.837 112.22 131.356 111.776 130.649C110.999 129.4 110.98 128.042 111.242 126.647C111.533 125.057 112.226 123.613 112.949 122.188C114.615 118.91 115.867 115.474 116.954 111.972C116.973 111.923 116.997 111.88 117.027 111.826C117.027 114.274 117.052 116.687 117.021 119.093ZM123.597 128.712C123.5 129.455 123.208 130.229 122.819 130.874C122.108 132.044 120.534 132.19 119.495 131.301C118.759 130.673 118.37 129.833 118.291 128.925C118.097 126.61 117.939 124.295 117.866 121.98C117.769 118.77 117.763 115.56 117.72 112.349C117.714 112.179 117.72 112.008 117.72 111.832C117.751 111.832 117.787 111.826 117.817 111.826C118.103 112.715 118.37 113.61 118.662 114.5C119.689 117.588 121.032 120.543 122.448 123.467C123.245 125.118 123.846 126.848 123.597 128.712ZM126.508 106.977C128.277 105.831 129.912 104.485 131.662 103.303C134.026 101.713 136.591 101.104 139.386 102.048C141.228 102.67 142.455 103.931 143.227 105.679C143.264 105.752 143.27 105.843 143.282 105.886C142.729 105.344 142.164 104.79 141.598 104.241C142.279 107.245 142.012 110.089 140.553 112.782C139.563 114.597 137.697 116.443 136.183 117.15C137.466 115.956 138.45 114.567 139.022 112.91C135.88 116.102 132.306 117.972 127.693 116.723C128.143 117.442 129.279 118.167 131.443 119.087C130.957 119.251 129.942 119.184 128.97 118.916C125.244 117.893 122.333 114.421 121.956 110.577C121.938 110.37 121.756 110.12 121.573 110.004C120.729 109.45 120.09 108.737 119.659 107.756C119.78 107.775 119.847 107.768 119.908 107.793C122.26 108.743 124.472 108.292 126.508 106.977ZM126.496 27.1751H108.422V18.1167H126.496V27.1751Z" fill="#15151C"/>
<path d="M117.763 55.8305L120.953 59.0287C121.196 59.2723 121.598 59.2723 121.847 59.0287C122.096 58.785 122.09 58.383 121.847 58.1332L118.656 54.935L121.847 51.7369C122.09 51.4932 122.09 51.0912 121.847 50.8414C121.604 50.5917 121.203 50.5977 120.953 50.8414L117.763 54.0396L114.572 50.8414C114.329 50.5977 113.928 50.5977 113.679 50.8414C113.557 50.9632 113.496 51.1277 113.496 51.2861C113.496 51.4445 113.557 51.609 113.679 51.7308L116.869 54.929L113.679 58.1271C113.557 58.2489 113.496 58.4134 113.496 58.5718C113.496 58.7302 113.557 58.8947 113.679 59.0165C113.922 59.2602 114.323 59.2602 114.572 59.0165L117.763 55.8183V55.8305Z" fill="#94011A"/>
<path d="M113.484 40.2236C113.484 37.9453 115.332 36.0873 117.611 36.0873C119.89 36.0873 121.731 37.9392 121.731 40.2236C121.731 42.5079 119.884 44.3598 117.611 44.3598C115.338 44.3598 113.484 42.5079 113.484 40.2236ZM120.473 40.2236C120.473 38.6397 119.191 37.3544 117.611 37.3544C116.031 37.3544 114.748 38.6397 114.748 40.2236C114.748 41.8074 116.031 43.0927 117.611 43.0927C119.191 43.0927 120.473 41.8074 120.473 40.2236Z" fill="#94011A"/>
<path d="M113.192 89.0425V81.8787C113.192 81.4949 113.502 81.1842 113.885 81.1842H121.032C121.415 81.1842 121.725 81.4949 121.725 81.8787V89.0425C121.725 89.4263 121.415 89.737 121.032 89.737H113.885C113.502 89.737 113.192 89.4263 113.192 89.0425ZM114.45 83.1457V87.7876C114.45 88.1714 114.76 88.4821 115.143 88.4821H119.774C120.157 88.4821 120.467 88.1714 120.467 87.7876V83.1457C120.467 82.762 120.157 82.4513 119.774 82.4513H115.143C114.76 82.4513 114.45 82.762 114.45 83.1457Z" fill="#94011A"/>
<path d="M121.02 74.8853L113.891 74.8549C113.539 74.8549 113.217 74.6721 113.034 74.3676C112.852 74.063 112.834 73.6975 112.998 73.3807L116.711 66.0767C116.888 65.7295 117.258 65.498 117.629 65.5224C118.018 65.5285 118.364 65.7539 118.528 66.1072L121.938 73.4416C122.084 73.7584 122.059 74.1239 121.871 74.4163C121.683 74.7087 121.367 74.8853 121.02 74.8853ZM114.305 73.5878L120.631 73.6183L117.605 67.1001L114.305 73.5878Z" fill="#94011A"/>
<path d="M396.201 81.2329H281.963C280.966 81.2329 280.158 82.0429 280.158 83.0421V102C280.158 102.999 280.966 103.809 281.963 103.809H396.201C397.198 103.809 398.006 102.999 398.006 102V83.0421C398.006 82.0429 397.198 81.2329 396.201 81.2329Z" fill="#15151C"/>
<path d="M285.032 88.7744H287.64C288.411 88.7744 289.104 88.9267 289.724 89.2313C290.344 89.5359 290.83 89.9684 291.189 90.5349C291.547 91.1014 291.724 91.7594 291.724 92.5086C291.724 93.2579 291.547 93.9097 291.189 94.4824C290.836 95.055 290.344 95.4997 289.724 95.8103C289.104 96.1271 288.411 96.2794 287.64 96.2794H285.032V88.7805V88.7744ZM287.627 94.5128C288.241 94.5128 288.74 94.3361 289.135 93.9706C289.53 93.6112 289.724 93.1178 289.724 92.4964C289.724 91.8751 289.53 91.3756 289.141 91.0405C288.752 90.7055 288.247 90.541 287.627 90.541H286.983V94.5067H287.627V94.5128Z" fill="#94011A"/>
<path d="M292.951 88.7744H298.148V90.5349H294.902V91.5705H297.218V93.2092H294.902V94.5189H298.281V96.2794H292.951V88.7805V88.7744Z" fill="#94011A"/>
<path d="M299.606 88.7744H304.687V90.5349H301.557V91.9665H304.097V93.727H301.557V96.2733H299.606V88.7744Z" fill="#94011A"/>
<path d="M305.866 88.7744H307.817V96.2733H305.866V88.7744Z" fill="#94011A"/>
<path d="M316.058 88.7744V96.4134H315.432L311.372 92.4721V96.2794H309.421V88.6404H310.047L314.107 92.5269V88.7744H316.058Z" fill="#94011A"/>
<path d="M317.668 88.7744H319.619V96.2733H317.668V88.7744Z" fill="#94011A"/>
<path d="M322.84 90.5349H320.598V88.7744H327.04V90.5349H324.797V96.2733H322.846V90.5349H322.84Z" fill="#94011A"/>
<path d="M328.012 88.7744H329.963V96.2733H328.012V88.7744Z" fill="#94011A"/>
<path d="M338.271 88.7744L334.867 96.4134H334.241L330.838 88.7744H333.05L334.557 92.4538L336.053 88.7744H338.265H338.271Z" fill="#94011A"/>
<path d="M339.158 88.7744H344.354V90.5349H341.109V91.5705H343.424V93.2092H341.109V94.5189H344.488V96.2794H339.158V88.7805V88.7744Z" fill="#94011A"/>
<path d="M349.101 88.7744H354.297V90.5349H351.052V91.5705H353.367V93.2092H351.052V94.5189H354.431V96.2794H349.101V88.7805V88.7744Z" fill="#94011A"/>
<path d="M355.762 88.7744H358.369C359.141 88.7744 359.834 88.9267 360.453 89.2313C361.073 89.5359 361.56 89.9684 361.918 90.5349C362.277 91.1014 362.453 91.7594 362.453 92.5086C362.453 93.2579 362.277 93.9097 361.918 94.4824C361.566 95.055 361.073 95.4997 360.453 95.8103C359.834 96.1271 359.141 96.2794 358.369 96.2794H355.762V88.7805V88.7744ZM358.357 94.5128C358.971 94.5128 359.469 94.3361 359.864 93.9706C360.259 93.6112 360.453 93.1178 360.453 92.4964C360.453 91.8751 360.259 91.3756 359.87 91.0405C359.481 90.7055 358.977 90.541 358.357 90.541H357.713V94.5067H358.357V94.5128Z" fill="#94011A"/>
<path d="M363.675 88.7744H365.625V96.2733H363.675V88.7744Z" fill="#94011A"/>
<path d="M368.846 90.5349H366.604V88.7744H373.046V90.5349H370.803V96.2733H368.853V90.5349H368.846Z" fill="#94011A"/>
<path d="M374.018 88.7744H375.969V96.2733H374.018V88.7744Z" fill="#94011A"/>
<path d="M381.214 96.4073C380.479 96.4073 379.804 96.2367 379.19 95.8956C378.576 95.5545 378.084 95.0915 377.726 94.5006C377.367 93.9097 377.185 93.2518 377.185 92.5208C377.185 91.7898 377.367 91.1441 377.726 90.5471C378.084 89.9501 378.57 89.481 379.19 89.146C379.804 88.8048 380.479 88.6343 381.214 88.6343C381.949 88.6343 382.624 88.8048 383.244 89.146C383.864 89.4871 384.356 89.9562 384.721 90.5471C385.085 91.1441 385.268 91.802 385.268 92.5208C385.268 93.2396 385.085 93.9097 384.721 94.5006C384.356 95.0915 383.864 95.5606 383.244 95.8956C382.624 96.2367 381.949 96.4073 381.214 96.4073ZM382.272 94.3544C382.581 94.1777 382.825 93.9341 383.001 93.6234C383.177 93.3066 383.268 92.9411 383.268 92.5269C383.268 92.1126 383.177 91.7532 383.001 91.4365C382.825 91.1197 382.581 90.8699 382.272 90.6994C381.962 90.5288 381.615 90.4374 381.226 90.4374C380.837 90.4374 380.473 90.5227 380.169 90.6994C379.865 90.876 379.622 91.1197 379.452 91.4365C379.275 91.7532 379.19 92.1187 379.19 92.5269C379.19 93.1543 379.379 93.6599 379.755 94.0437C380.132 94.4275 380.625 94.6163 381.226 94.6163C381.609 94.6163 381.962 94.5311 382.272 94.3544Z" fill="#94011A"/>
<path d="M393.126 88.7744V96.4134H392.5L388.44 92.4721V96.2794H386.489V88.6404H387.115L391.175 92.5269V88.7744H393.126Z" fill="#94011A"/>
</g>
<defs>
<clipPath id="clip0_31_896">
<rect width="398" height="161.248" fill="white"/>
</clipPath>
</defs>
</svg>
