<svg width="374" height="151" viewBox="0 0 374 151" fill="none" xmlns="http://www.w3.org/2000/svg">
<g clip-path="url(#clip0_7_128)">
<path d="M0.5 42.4135V0H17.439V42.4135H34.378V0H51.317V42.4135L25.9085 67.8616L0.5 42.4135Z" fill="#D10225"/>
<path d="M59.7865 67.8616V0H76.7255V67.8616H59.7865Z" fill="#D10225"/>
<path d="M161.421 67.8616V16.9654H144.482V0H195.299V16.9654H178.36V67.8616H161.421Z" fill="#D10225"/>
<path d="M203.768 67.8616V0H220.707V50.8962H237.646V0H254.585V67.8616H203.768Z" fill="#D10225"/>
<path d="M263.06 67.8616V0H313.877V67.8616H296.938V42.4135H279.999V67.8616H263.06ZM296.938 25.4481V16.9654H279.999V25.4481H296.938Z" fill="#D10225"/>
<path d="M322.347 67.8616V0H339.286V50.8962H373.164V67.8616H322.347Z" fill="#D10225"/>
<path d="M25.9085 92.705L16.3568 83.1384H0.5V151H17.439V125.552H34.378V151H51.3227V125.552L47.0851 121.313L51.2772 117.069H51.3284V83.1384H35.4659L25.9142 92.705H25.9085ZM34.378 108.587H17.439V100.104H34.378V108.587Z" fill="#D10225"/>
<path d="M76.7312 83.1384H59.7865V151H76.7312V83.1384Z" fill="#D10225"/>
<path d="M144.482 151H161.421V125.552H178.365V151H195.304V83.1384H144.487V151H144.482ZM161.421 100.104H178.365V108.587H161.421V100.104Z" fill="#D10225"/>
<path d="M220.707 134.029V83.1384H203.774V151H254.591V134.029H220.707Z" fill="#D10225"/>
<path d="M124.729 131.93C124.672 133.379 124.655 135.883 124.672 137.338C124.678 137.469 124.621 137.589 124.53 137.68L111.082 150.544C110.814 150.8 110.393 150.8 110.125 150.538L96.6263 137.435C96.5295 137.343 96.4725 137.212 96.4725 137.075C96.4668 135.746 96.427 133.55 96.4498 132.164C96.4498 132.061 96.5523 131.987 96.6491 132.027L99.2463 134.08C99.2976 134.097 99.3318 134.143 99.3432 134.194C99.5197 135.66 100.243 137.366 100.75 139.26L100.87 139.249L100.921 134.616C100.921 134.571 100.966 134.542 101.012 134.559L103.581 135.569L104.84 143.373H104.851L105.489 136.482C105.5 136.402 105.58 136.356 105.648 136.385L109.356 137.845C109.419 137.868 109.464 137.925 109.47 137.994C109.835 141.382 110.193 145.877 110.507 147.577C110.666 148.005 111.173 142.072 111.657 137.914L115.177 136.522C115.28 136.482 115.394 136.55 115.405 136.659C115.599 138.61 115.952 142.46 115.986 143.362C115.986 143.373 116.003 143.373 116.009 143.362L117.507 135.603L119.967 134.634C120.058 134.599 120.161 134.656 120.178 134.753V139.214C120.355 139.231 121.71 135.067 121.693 134.314C121.693 134.234 121.716 134.166 121.773 134.12L124.581 131.844C124.666 131.81 124.729 131.844 124.729 131.93Z" fill="#D10225"/>
<path d="M106.36 122.226C106.822 122.779 107.266 122.968 107.813 122.842C108.536 122.671 108.889 122.146 109.066 121.462C108.416 122.392 107.608 122.814 106.355 122.226H106.36Z" fill="#D10225"/>
<path d="M111.885 121.285C112.067 122.192 112.654 122.802 113.383 122.899C113.827 122.956 114.272 122.74 114.494 122.329C113.315 122.825 112.534 122.295 111.885 121.291V121.285Z" fill="#D10225"/>
<path d="M131.239 122.717C132.925 121.707 134.537 120.652 135.989 119.391V125.552L126.58 134.976C126.683 134.109 126.785 133.236 126.888 132.369C126.99 131.456 127.15 130.549 127.178 129.636C127.212 128.649 127.081 127.663 127.087 126.681C127.093 126.162 127.172 125.626 127.338 125.135C127.867 123.567 128.864 122.3 130.071 121.194C130.163 121.108 130.271 121.04 130.408 120.937C130.698 121.559 130.966 122.135 131.239 122.717Z" fill="#D10225"/>
<path d="M93.8867 130.104C94.0519 131.673 94.2341 133.247 94.4221 134.816L85.1723 125.552V119.437C86.3513 120.441 87.6271 121.331 88.9485 122.163C89.2105 122.329 89.4896 122.489 89.7687 122.66C90.0649 122.038 90.3269 121.479 90.5775 120.943C90.6629 120.943 90.6857 120.937 90.6971 120.943C90.7427 120.965 90.7882 120.988 90.8281 121.022C92.7646 122.819 94.2683 124.81 93.9664 127.663C93.8867 128.473 93.8013 129.3 93.8867 130.104Z" fill="#D10225"/>
<path d="M135.989 33.9308V0H85.1723V79.767C85.5425 79.2194 85.9241 78.6831 86.3399 78.1583C89.3643 74.2735 93.169 71.3984 97.7313 69.5159C97.8737 69.4589 98.0161 69.4075 98.1642 69.3562C98.1869 69.3505 98.2268 69.3676 98.3464 69.3961C93.7728 71.6152 90.213 74.8782 87.6328 79.1566C86.6247 80.8281 85.7988 82.5565 85.1723 84.3478V91.7181C88.1113 89.1396 92.2292 88.3524 96.0226 89.7215C98.8192 90.7312 101.086 92.4939 103.142 94.5704C103.94 95.3747 104.669 96.2418 105.381 97.1203C104.059 96.2989 102.749 95.4546 101.411 94.6674C99.2805 93.4181 97.0592 92.4198 94.5816 92.0375C91.13 91.507 87.5986 92.7164 85.1723 95.1123V103.555C85.2178 103.407 85.2634 103.264 85.3033 103.116C85.2805 106.875 86.3 110.372 87.6271 113.852C87.0405 113.464 86.4595 113.07 85.8273 112.648C85.6108 112.962 85.3887 113.27 85.1723 113.578V115.911C85.964 116.824 86.8981 117.6 87.872 118.319C88.1568 118.53 88.4587 118.718 88.7777 118.935C89.8541 117.183 91.3578 116.054 93.3228 115.586C94.7809 115.238 96.1934 115.392 97.5661 116.02C100.135 117.189 101.08 120.081 100.864 122.317C99.6906 117.794 94.6442 116.767 92.0584 118.838C92.3147 119.066 92.5596 119.288 92.8102 119.511C94.6328 121.097 95.9599 122.996 96.4213 125.404C96.5181 125.911 96.4498 126.448 96.4498 126.972C96.4498 128.062 96.427 129.151 96.4498 130.235C96.4555 130.464 96.5694 130.754 96.7288 130.903C97.5035 131.622 98.3009 132.3 99.1552 133.042C99.235 133.11 99.3546 133.071 99.383 132.974C99.89 131.04 100.38 129.174 100.875 127.303L100.995 127.32C100.995 129.1 101.018 130.874 100.984 132.648C100.984 133.145 101.103 133.407 101.593 133.59C102.311 133.858 102.988 134.223 103.757 134.577C104.293 132.175 104.817 129.813 105.341 127.452C105.369 127.452 105.398 127.452 105.426 127.446C105.443 127.56 105.466 127.674 105.472 127.788C105.563 129.996 105.654 132.203 105.728 134.417C105.739 134.696 105.819 134.833 106.104 134.913C107.186 135.215 108.257 135.546 109.402 135.894C109.761 133.008 110.114 130.173 110.467 127.343H110.592C110.945 130.144 111.293 132.945 111.652 135.774C112.785 135.466 113.89 135.176 114.978 134.845C115.097 134.81 115.223 134.554 115.234 134.394C115.354 132.118 115.451 129.842 115.559 127.566C115.559 127.486 115.57 127.406 115.656 127.315C116.157 129.716 116.664 132.118 117.188 134.605C118.082 134.194 118.936 133.824 119.762 133.413C119.814 133.384 119.853 133.322 119.888 133.242C119.927 133.133 119.945 132.996 119.95 132.888C119.99 131.222 120.019 129.557 120.047 127.891C120.047 127.72 120.047 127.554 120.167 127.366C120.639 129.174 121.112 130.983 121.602 132.859C121.642 133.019 121.841 133.076 121.966 132.968C122.798 132.215 123.59 131.513 124.353 130.783C124.478 130.669 124.53 130.418 124.53 130.23C124.552 129.157 124.643 128.079 124.53 127.018C124.342 125.272 124.934 123.778 125.777 122.329C126.563 120.971 127.645 119.87 128.864 118.889C126.791 117.001 121.437 117.411 120.087 122.323C119.91 119.853 120.975 116.921 123.835 115.808C126.352 114.833 130.134 115.615 132.264 118.929C133.5 118.085 134.662 117.149 135.665 116.042C135.784 115.905 135.892 115.786 135.989 115.683V113.778C135.938 113.709 135.887 113.635 135.824 113.549C135.636 113.27 135.425 113.002 135.203 112.7C134.531 113.15 133.888 113.584 133.238 114.012C134.691 110.509 135.648 106.915 135.716 103.082C135.807 103.361 135.898 103.646 135.989 103.926V95.3006C133.255 92.4996 129.103 91.3188 125.099 92.3399C122.519 92.9959 120.218 94.2566 117.985 95.6428C117.216 96.1163 116.476 96.624 115.621 97.1774C115.684 97.0291 115.696 96.972 115.724 96.9321C117.757 94.5533 119.933 92.3456 122.678 90.7483C127.041 88.1984 132.276 88.6205 135.989 91.8094V84.8897C134.178 79.3278 130.117 73.0641 122.53 69.2478C122.753 69.3277 122.98 69.3904 123.191 69.4874C128.608 71.8434 132.914 75.2775 135.989 79.8412V42.4135L131.757 38.175L135.944 33.9308H135.989ZM97.5832 111.593C97.4579 111.593 97.3269 111.581 97.1902 111.536C98.6768 111.165 99.8672 110.315 101.029 109.254C96.5409 110.498 93.1576 108.695 90.1048 105.671C90.475 106.356 90.8053 107.063 91.2325 107.708C91.6597 108.347 92.1894 108.923 92.6507 109.505C89.6206 107.811 86.3798 103.401 87.9632 97.4797C87.4392 98.0331 86.9095 98.5864 86.3684 99.1511C86.4823 98.4552 87.2968 97.2173 88.0771 96.5955C89.9282 95.1066 92.0299 94.8727 94.2626 95.4318C96.0568 95.8824 97.5319 96.9435 98.99 98.0159C99.645 98.5008 100.289 99.0085 100.949 99.4934C103.171 101.131 105.54 102.026 108.371 100.863C108.023 101.764 107.482 102.408 106.742 102.848C106.32 103.093 106.184 103.395 106.138 103.852C105.694 108.062 101.826 111.553 97.5832 111.593ZM110.171 111.524C110.137 113.92 110.108 116.316 109.977 118.706C109.914 119.728 109.675 120.76 109.362 121.736C108.992 122.894 108.109 123.464 107.084 123.458C106.246 123.458 105.671 123.008 105.255 122.346C104.526 121.176 104.509 119.904 104.754 118.598C105.027 117.109 105.677 115.757 106.355 114.422C107.915 111.353 109.089 108.136 110.108 104.856C110.125 104.81 110.148 104.77 110.176 104.719C110.176 107.012 110.199 109.271 110.171 111.524ZM116.333 120.532C116.242 121.228 115.969 121.952 115.604 122.557C114.938 123.652 113.463 123.789 112.489 122.956C111.8 122.369 111.435 121.582 111.361 120.732C111.179 118.564 111.031 116.396 110.962 114.228C110.871 111.222 110.866 108.216 110.826 105.209C110.82 105.05 110.826 104.89 110.826 104.725C110.854 104.725 110.888 104.719 110.917 104.719C111.185 105.552 111.435 106.39 111.709 107.223C112.671 110.115 113.93 112.882 115.257 115.62C116.003 117.166 116.567 118.786 116.333 120.532ZM119.062 100.178C120.719 99.1055 122.251 97.8448 123.892 96.7381C126.107 95.2492 128.511 94.6788 131.131 95.563C132.857 96.1448 134.007 97.3257 134.731 98.9629C134.765 99.0313 134.77 99.1169 134.782 99.1569C134.264 98.6491 133.734 98.13 133.204 97.6166C133.842 100.429 133.591 103.093 132.224 105.614C131.296 107.314 129.547 109.043 128.129 109.705C129.331 108.587 130.254 107.286 130.789 105.734C127.844 108.723 124.495 110.475 120.172 109.305C120.594 109.978 121.659 110.657 123.687 111.519C123.231 111.673 122.28 111.61 121.368 111.359C117.877 110.401 115.149 107.149 114.796 103.549C114.779 103.355 114.608 103.122 114.437 103.013C113.645 102.494 113.047 101.827 112.643 100.908C112.757 100.925 112.819 100.92 112.876 100.942C115.08 101.832 117.154 101.41 119.062 100.178ZM119.05 25.4481H102.111V16.9654H119.05V25.4481Z" fill="#D10225"/>
<path d="M110.866 52.2824L113.856 55.2773C114.084 55.5055 114.46 55.5055 114.693 55.2773C114.927 55.0491 114.921 54.6726 114.693 54.4387L111.703 51.4438L114.693 48.4489C114.921 48.2207 114.921 47.8442 114.693 47.6104C114.465 47.3765 114.089 47.3822 113.856 47.6104L110.866 50.6053L107.875 47.6104C107.648 47.3822 107.272 47.3822 107.038 47.6104C106.924 47.7244 106.867 47.8785 106.867 48.0268C106.867 48.1751 106.924 48.3291 107.038 48.4432L110.028 51.4381L107.038 54.433C106.924 54.5471 106.867 54.7011 106.867 54.8495C106.867 54.9978 106.924 55.1518 107.038 55.2659C107.266 55.4941 107.642 55.4941 107.875 55.2659L110.866 52.271V52.2824Z" fill="black"/>
<path d="M106.856 37.6673C106.856 35.5338 108.587 33.7939 110.723 33.7939C112.859 33.7939 114.585 35.5281 114.585 37.6673C114.585 39.8065 112.853 41.5407 110.723 41.5407C108.593 41.5407 106.856 39.8065 106.856 37.6673ZM113.406 37.6673C113.406 36.1841 112.204 34.9804 110.723 34.9804C109.242 34.9804 108.041 36.1841 108.041 37.6673C108.041 39.1505 109.242 40.3541 110.723 40.3541C112.204 40.3541 113.406 39.1505 113.406 37.6673Z" fill="black"/>
<path d="M106.582 83.3837V76.6751C106.582 76.3157 106.873 76.0248 107.232 76.0248H113.93C114.289 76.0248 114.579 76.3157 114.579 76.6751V83.3837C114.579 83.7431 114.289 84.034 113.93 84.034H107.232C106.873 84.034 106.582 83.7431 106.582 83.3837ZM107.761 77.8617V82.2086C107.761 82.568 108.052 82.8589 108.411 82.8589H112.751C113.11 82.8589 113.4 82.568 113.4 82.2086V77.8617C113.4 77.5023 113.11 77.2114 112.751 77.2114H108.411C108.052 77.2114 107.761 77.5023 107.761 77.8617Z" fill="black"/>
<path d="M113.918 70.1263L107.237 70.0978C106.907 70.0978 106.605 69.9266 106.434 69.6414C106.263 69.3562 106.246 69.0139 106.4 68.7173L109.88 61.8775C110.045 61.5523 110.393 61.3355 110.74 61.3584C111.105 61.3641 111.429 61.5751 111.583 61.906L114.779 68.7743C114.915 69.0709 114.892 69.4132 114.716 69.687C114.539 69.9609 114.243 70.1263 113.918 70.1263ZM107.625 68.9112L113.554 68.9397L110.717 62.8359L107.625 68.9112Z" fill="black"/>
<path d="M371.814 76.0705H264.752C263.818 76.0705 263.06 76.829 263.06 77.7647V95.5173C263.06 96.4531 263.818 97.2116 264.752 97.2116H371.814C372.748 97.2116 373.506 96.4531 373.506 95.5173V77.7647C373.506 76.829 372.748 76.0705 371.814 76.0705Z" fill="#D10225"/>
<path d="M267.628 83.1327H270.072C270.795 83.1327 271.444 83.2753 272.025 83.5606C272.606 83.8458 273.062 84.2508 273.398 84.7813C273.734 85.3119 273.899 85.928 273.899 86.6296C273.899 87.3313 273.734 87.9417 273.398 88.4779C273.068 89.0141 272.606 89.4306 272.025 89.7215C271.444 90.0181 270.795 90.1608 270.072 90.1608H267.628V83.1384V83.1327ZM270.06 88.5064C270.636 88.5064 271.103 88.341 271.473 87.9987C271.843 87.6621 272.025 87.2001 272.025 86.6182C272.025 86.0363 271.843 85.5686 271.479 85.2548C271.114 84.9411 270.641 84.7871 270.06 84.7871H269.457V88.5007H270.06V88.5064Z" fill="#1E1E27"/>
<path d="M275.05 83.1327H279.92V84.7813H276.878V85.7511H279.048V87.2856H276.878V88.5121H280.045V90.1608H275.05V83.1384V83.1327Z" fill="#1E1E27"/>
<path d="M281.287 83.1327H286.048V84.7813H283.115V86.1219H285.496V87.7705H283.115V90.155H281.287V83.1327Z" fill="#1E1E27"/>
<path d="M287.153 83.1327H288.982V90.155H287.153V83.1327Z" fill="#1E1E27"/>
<path d="M296.705 83.1327V90.2863H296.118L292.314 86.5954V90.1608H290.485V83.0072H291.072L294.877 86.6468V83.1327H296.705Z" fill="#1E1E27"/>
<path d="M298.214 83.1327H300.043V90.155H298.214V83.1327Z" fill="#1E1E27"/>
<path d="M303.061 84.7813H300.96V83.1327H306.997V84.7813H304.895V90.155H303.067V84.7813H303.061Z" fill="#1E1E27"/>
<path d="M307.908 83.1327H309.737V90.155H307.908V83.1327Z" fill="#1E1E27"/>
<path d="M317.523 83.1327L314.333 90.2863H313.746L310.557 83.1327H312.63L314.043 86.5783L315.444 83.1327H317.517H317.523Z" fill="#1E1E27"/>
<path d="M318.354 83.1327H323.224V84.7813H320.183V85.7511H322.353V87.2856H320.183V88.5121H323.349V90.1608H318.354V83.1384V83.1327Z" fill="#1E1E27"/>
<path d="M327.672 83.1327H332.542V84.7813H329.501V85.7511H331.671V87.2856H329.501V88.5121H332.668V90.1608H327.672V83.1384V83.1327Z" fill="#1E1E27"/>
<path d="M333.915 83.1327H336.358C337.082 83.1327 337.731 83.2753 338.312 83.5606C338.893 83.8458 339.349 84.2508 339.685 84.7813C340.021 85.3119 340.186 85.928 340.186 86.6296C340.186 87.3313 340.021 87.9417 339.685 88.4779C339.354 89.0141 338.893 89.4306 338.312 89.7215C337.731 90.0181 337.082 90.1608 336.358 90.1608H333.915V83.1384V83.1327ZM336.347 88.5064C336.922 88.5064 337.389 88.341 337.76 87.9987C338.13 87.6621 338.312 87.2001 338.312 86.6182C338.312 86.0363 338.13 85.5686 337.765 85.2548C337.401 84.9411 336.928 84.7871 336.347 84.7871H335.743V88.5007H336.347V88.5064Z" fill="#1E1E27"/>
<path d="M341.331 83.1327H343.159V90.155H341.331V83.1327Z" fill="#1E1E27"/>
<path d="M346.178 84.7813H344.076V83.1327H350.114V84.7813H348.012V90.155H346.183V84.7813H346.178Z" fill="#1E1E27"/>
<path d="M351.025 83.1327H352.853V90.155H351.025V83.1327Z" fill="#1E1E27"/>
<path d="M357.769 90.2806C357.079 90.2806 356.447 90.1208 355.872 89.8014C355.297 89.4819 354.835 89.0484 354.499 88.495C354.163 87.9417 353.992 87.3256 353.992 86.641C353.992 85.9565 354.163 85.3518 354.499 84.7928C354.835 84.2337 355.291 83.7945 355.872 83.4807C356.447 83.1613 357.079 83.0015 357.769 83.0015C358.458 83.0015 359.09 83.1613 359.671 83.4807C360.252 83.8002 360.713 84.2394 361.055 84.7928C361.397 85.3518 361.568 85.9679 361.568 86.641C361.568 87.3142 361.397 87.9417 361.055 88.495C360.713 89.0484 360.252 89.4876 359.671 89.8014C359.09 90.1208 358.458 90.2806 357.769 90.2806ZM358.76 88.3581C359.05 88.1927 359.278 87.9645 359.443 87.6736C359.608 87.3769 359.694 87.0347 359.694 86.6467C359.694 86.2588 359.608 85.9223 359.443 85.6256C359.278 85.329 359.05 85.0951 358.76 84.9354C358.469 84.7756 358.144 84.6901 357.78 84.6901C357.415 84.6901 357.074 84.7699 356.789 84.9354C356.504 85.1008 356.276 85.329 356.117 85.6256C355.952 85.9223 355.872 86.2645 355.872 86.6467C355.872 87.2343 356.048 87.7078 356.402 88.0672C356.755 88.4266 357.216 88.6034 357.78 88.6034C358.139 88.6034 358.469 88.5236 358.76 88.3581Z" fill="#1E1E27"/>
<path d="M368.932 83.1327V90.2863H368.345L364.541 86.5954V90.1608H362.712V83.0072H363.299L367.104 86.6468V83.1327H368.932Z" fill="#1E1E27"/>
</g>
<defs>
<clipPath id="clip0_7_128">
<rect width="373" height="151" fill="white" transform="translate(0.5)"/>
</clipPath>
</defs>
</svg>
