<svg width="111" height="32" viewBox="0 0 111 32" fill="none" xmlns="http://www.w3.org/2000/svg">
<path d="M0 8.98829V0H3.58762V8.98829H7.17524V0H10.7629V8.98829L5.38143 14.3813L0 8.98829Z" fill="#D10225"/>
<path d="M12.5567 14.3813V0H16.1443V14.3813H12.5567Z" fill="#D10225"/>
<path d="M34.0824 14.3813V3.59532H30.4948V0H41.2576V3.59532H37.67V14.3813H34.0824Z" fill="#D10225"/>
<path d="M43.0514 14.3813V0H46.6391V10.7859H50.2267V0H53.8143V14.3813H43.0514Z" fill="#D10225"/>
<path d="M55.6093 14.3813V0H66.3722V14.3813H62.7845V8.98829H59.1969V14.3813H55.6093ZM62.7845 5.39297V3.59532H59.1969V5.39297H62.7845Z" fill="#D10225"/>
<path d="M68.166 14.3813V0H71.7536V10.7859H78.9288V14.3813H68.166Z" fill="#D10225"/>
<path d="M5.38143 19.6461L3.35842 17.6187H0V32H3.58762V26.607H7.17524V32H10.7641V26.607L9.86656 25.7088L10.7544 24.8094H10.7653V17.6187H7.40565L5.38263 19.6461H5.38143ZM7.17524 23.0117H3.58762V21.2141H7.17524V23.0117Z" fill="#D10225"/>
<path d="M16.1455 17.6187H12.5567V32H16.1455V17.6187Z" fill="#D10225"/>
<path d="M30.4948 32H34.0824V26.607H37.6712V32H41.2588V17.6187H30.496V32H30.4948ZM34.0824 21.2141H37.6712V23.0117H34.0824V21.2141Z" fill="#D10225"/>
<path d="M46.6391 28.4035V17.6187H43.0526V32H53.8155V28.4035H46.6391Z" fill="#D10225"/>
<path d="M26.3112 27.9586C26.2992 28.2657 26.2955 28.7964 26.2992 29.1046C26.3004 29.1324 26.2883 29.1578 26.269 29.1772L23.4209 31.9033C23.3642 31.9577 23.2749 31.9577 23.2182 31.9021L20.3592 29.1252C20.3387 29.1058 20.3266 29.078 20.3266 29.049C20.3254 28.7674 20.317 28.3019 20.3218 28.0082C20.3218 27.9864 20.3435 27.9707 20.364 27.9791L20.9141 28.4143C20.925 28.418 20.9322 28.4276 20.9346 28.4385C20.972 28.7492 21.1252 29.1107 21.2326 29.512L21.2579 29.5096L21.2688 28.528C21.2688 28.5183 21.2784 28.5123 21.2881 28.5159L21.8321 28.7299L22.0987 30.3837H22.1011L22.2362 28.9233C22.2387 28.9064 22.2555 28.8967 22.27 28.9028L23.0553 29.2122C23.0686 29.2171 23.0783 29.2292 23.0795 29.2437C23.1567 29.9618 23.2327 30.9144 23.299 31.2746C23.3328 31.3653 23.4402 30.108 23.5427 29.2267L24.2882 28.9318C24.3099 28.9233 24.334 28.9378 24.3365 28.9608C24.3775 29.3742 24.4523 30.1902 24.4595 30.3813C24.4595 30.3837 24.4631 30.3837 24.4643 30.3813L24.7816 28.7371L25.3027 28.5316C25.322 28.5244 25.3437 28.5365 25.3474 28.557V29.5024C25.3848 29.506 25.6719 28.6235 25.6682 28.4639C25.6682 28.447 25.6731 28.4325 25.6851 28.4228L26.2799 27.9405C26.2979 27.9332 26.3112 27.9405 26.3112 27.9586Z" fill="#D10225"/>
<path d="M22.4208 25.9022C22.5185 26.0195 22.6126 26.0594 22.7284 26.0328C22.8816 25.9965 22.9564 25.8853 22.9938 25.7402C22.8563 25.9373 22.685 26.0267 22.4196 25.9022H22.4208Z" fill="#D10225"/>
<path d="M23.5909 25.7028C23.6295 25.895 23.7538 26.0243 23.9082 26.0449C24.0023 26.057 24.0964 26.011 24.1434 25.924C23.8937 26.0292 23.7285 25.9167 23.5909 25.704V25.7028Z" fill="#D10225"/>
<path d="M27.69 26.0062C28.0471 25.7922 28.3885 25.5686 28.6961 25.3014V26.607L26.7033 28.6042C26.725 28.4204 26.7467 28.2354 26.7684 28.0517C26.7901 27.8583 26.8239 27.666 26.8299 27.4726C26.8372 27.2635 26.8094 27.0543 26.8106 26.8464C26.8118 26.7364 26.8287 26.6227 26.8637 26.5188C26.9759 26.1863 27.187 25.9179 27.4428 25.6834C27.4621 25.6653 27.485 25.6508 27.5139 25.629C27.5754 25.7608 27.6321 25.8829 27.69 26.0062Z" fill="#D10225"/>
<path d="M19.779 27.5717C19.8139 27.9042 19.8525 28.2379 19.8923 28.5703L17.9333 26.607V25.3111C18.183 25.5238 18.4532 25.7124 18.7331 25.8889C18.7886 25.924 18.8477 25.9578 18.9068 25.9941C18.9695 25.8623 19.025 25.7439 19.0781 25.6302C19.0962 25.6302 19.101 25.629 19.1034 25.6302C19.1131 25.6351 19.1227 25.6399 19.1312 25.6471C19.5413 26.028 19.8598 26.4499 19.7958 27.0543C19.779 27.226 19.7609 27.4013 19.779 27.5717Z" fill="#D10225"/>
<path d="M28.6961 7.19063V0H17.9333V16.9043C18.0117 16.7882 18.0925 16.6746 18.1806 16.5634C18.8211 15.7401 19.627 15.1308 20.5932 14.7318C20.6234 14.7198 20.6535 14.7089 20.6849 14.698C20.6897 14.6968 20.6982 14.7004 20.7235 14.7065C19.7548 15.1767 19.0009 15.8682 18.4544 16.7749C18.2409 17.1291 18.066 17.4954 17.9333 17.875V19.4369C18.5557 18.8905 19.4279 18.7237 20.2313 19.0138C20.8236 19.2278 21.3038 19.6014 21.7392 20.0414C21.9081 20.2119 22.0625 20.3956 22.2133 20.5818C21.9335 20.4077 21.656 20.2288 21.3725 20.062C20.9213 19.7972 20.4509 19.5856 19.9261 19.5046C19.1951 19.3922 18.4472 19.6485 17.9333 20.1562V21.9454C17.9429 21.914 17.9526 21.8838 17.961 21.8524C17.9562 22.649 18.1721 23.3901 18.4532 24.1275C18.3289 24.0453 18.2059 23.9619 18.072 23.8725C18.0262 23.9389 17.9791 24.0042 17.9333 24.0695V24.564C18.1009 24.7574 18.2988 24.9218 18.5051 25.0741C18.5654 25.1188 18.6293 25.1587 18.6969 25.2047C18.9249 24.8335 19.2433 24.5942 19.6595 24.495C19.9683 24.4213 20.2675 24.4539 20.5582 24.5869C21.1023 24.8348 21.3025 25.4477 21.2567 25.9216C21.0082 24.9629 19.9394 24.7453 19.3917 25.1841C19.446 25.2325 19.4979 25.2796 19.551 25.3268C19.937 25.6629 20.2181 26.0654 20.3158 26.5756C20.3363 26.6832 20.3218 26.7968 20.3218 26.908C20.3218 27.1389 20.317 27.3699 20.3218 27.5995C20.323 27.6479 20.3471 27.7096 20.3809 27.741C20.545 27.8933 20.7139 28.0372 20.8948 28.1943C20.9117 28.2088 20.937 28.2004 20.9431 28.1798C21.0504 27.77 21.1542 27.3747 21.2591 26.9782L21.2844 26.9818C21.2844 27.359 21.2893 27.7349 21.282 28.1109C21.282 28.2161 21.3074 28.2717 21.4111 28.3104C21.5631 28.3672 21.7067 28.4446 21.8695 28.5195C21.9829 28.0106 22.0939 27.5101 22.2049 27.0096C22.2109 27.0096 22.2169 27.0096 22.223 27.0084C22.2266 27.0326 22.2314 27.0567 22.2326 27.0809C22.2519 27.5488 22.2712 28.0166 22.2869 28.4857C22.2893 28.5449 22.3062 28.5739 22.3665 28.5909C22.5957 28.6549 22.8225 28.725 23.065 28.7988C23.141 28.1871 23.2158 27.5862 23.2906 26.9866H23.3171C23.3919 27.5802 23.4655 28.1738 23.5415 28.7734C23.7815 28.7081 24.0156 28.6465 24.246 28.5763C24.2713 28.5691 24.2979 28.5147 24.3003 28.4808C24.3256 27.9985 24.3461 27.5161 24.369 27.0338C24.369 27.0168 24.3714 26.9999 24.3895 26.9806C24.4957 27.4895 24.6031 27.9985 24.714 28.5256C24.9034 28.4385 25.0844 28.36 25.2593 28.2729C25.2702 28.2669 25.2786 28.2536 25.2858 28.2366C25.2943 28.2137 25.2979 28.1847 25.2991 28.1617C25.3076 27.8087 25.3136 27.4557 25.3196 27.1027C25.3196 27.0664 25.3196 27.0314 25.3449 26.9915C25.4451 27.3747 25.5452 27.7579 25.6489 28.1556C25.6574 28.1895 25.6996 28.2016 25.7261 28.1786C25.9023 28.019 26.07 27.8703 26.2316 27.7156C26.2581 27.6914 26.269 27.6382 26.269 27.5983C26.2738 27.3711 26.2931 27.1426 26.269 26.9177C26.2292 26.5478 26.3546 26.2311 26.5332 25.924C26.6997 25.6363 26.9289 25.4029 27.187 25.195C26.7479 24.7949 25.614 24.8819 25.3281 25.9228C25.2907 25.3993 25.5162 24.7779 26.1218 24.5422C26.655 24.3355 27.456 24.5011 27.9072 25.2035C28.169 25.0246 28.4151 24.8263 28.6274 24.5918C28.6527 24.5627 28.6756 24.5374 28.6961 24.5156V24.1118C28.6853 24.0973 28.6744 24.0816 28.6611 24.0635C28.6213 24.0042 28.5767 23.9474 28.5297 23.8833C28.3873 23.9788 28.251 24.0707 28.1135 24.1614C28.4211 23.4191 28.6237 22.6575 28.6382 21.8451C28.6575 21.9043 28.6768 21.9648 28.6961 22.024V20.1961C28.1171 19.6026 27.2377 19.3523 26.3896 19.5687C25.8432 19.7077 25.3558 19.9749 24.8829 20.2687C24.7201 20.369 24.5632 20.4766 24.3823 20.5939C24.3956 20.5624 24.398 20.5504 24.404 20.5419C24.8347 20.0378 25.2955 19.5699 25.8769 19.2314C26.801 18.691 27.9096 18.7805 28.6961 19.4563V17.9899C28.3125 16.8112 27.4524 15.4838 25.8456 14.675C25.8926 14.692 25.9409 14.7052 25.9855 14.7258C27.1327 15.2251 28.0447 15.9529 28.6961 16.92V8.98829L27.7998 8.09006L28.6865 7.19063H28.6961ZM20.5619 23.6488C20.5353 23.6488 20.5076 23.6464 20.4786 23.6367C20.7935 23.5581 21.0456 23.378 21.2917 23.1532C20.3411 23.4167 19.6245 23.0347 18.9779 22.394C19.0564 22.539 19.1263 22.6889 19.2168 22.8255C19.3073 22.9609 19.4195 23.083 19.5172 23.2063C18.8754 22.8473 18.189 21.9128 18.5244 20.658C18.4134 20.7752 18.3012 20.8925 18.1866 21.0122C18.2107 20.8647 18.3832 20.6023 18.5485 20.4706C18.9406 20.155 19.3857 20.1055 19.8586 20.2239C20.2386 20.3195 20.551 20.5443 20.8598 20.7716C20.9985 20.8743 21.1349 20.9819 21.2748 21.0847C21.7453 21.4317 22.2471 21.6215 22.8466 21.3748C22.7731 21.5658 22.6585 21.7025 22.5016 21.7955C22.4124 21.8475 22.3834 21.9116 22.3738 22.0083C22.2797 22.9005 21.4606 23.6403 20.5619 23.6488ZM23.2278 23.6343C23.2206 24.142 23.2146 24.6498 23.1868 25.1563C23.1736 25.3727 23.1229 25.5915 23.0565 25.7983C22.9781 26.0437 22.7912 26.1646 22.574 26.1634C22.3967 26.1634 22.2748 26.0678 22.1868 25.9276C22.0324 25.6798 22.0288 25.4102 22.0806 25.1334C22.1385 24.8178 22.2761 24.5313 22.4196 24.2484C22.7501 23.598 22.9986 22.9162 23.2146 22.2211C23.2182 22.2114 23.223 22.2029 23.229 22.1921C23.229 22.678 23.2339 23.1568 23.2278 23.6343ZM24.5331 25.5432C24.5138 25.6907 24.4559 25.8442 24.3787 25.9723C24.2375 26.2045 23.9251 26.2335 23.7188 26.057C23.5729 25.9324 23.4956 25.7656 23.48 25.5855C23.4414 25.1261 23.41 24.6667 23.3955 24.2073C23.3762 23.5702 23.375 22.9331 23.3666 22.296C23.3654 22.2622 23.3666 22.2283 23.3666 22.1933C23.3726 22.1933 23.3798 22.1921 23.3859 22.1921C23.4426 22.3686 23.4956 22.5463 23.5536 22.7228C23.7574 23.3357 24.024 23.922 24.3051 24.5023C24.4631 24.8299 24.5825 25.1733 24.5331 25.5432ZM25.1109 21.2298C25.462 21.0025 25.7865 20.7353 26.1339 20.5008C26.6031 20.1853 27.1122 20.0644 27.6671 20.2518C28.0326 20.3751 28.2763 20.6253 28.4295 20.9723C28.4368 20.9868 28.438 21.0049 28.4404 21.0134C28.3306 20.9058 28.2184 20.7958 28.1062 20.687C28.2413 21.283 28.1883 21.8475 27.8987 22.3819C27.7021 22.7421 27.3318 23.1084 27.0314 23.2487C27.2859 23.0117 27.4814 22.7361 27.5947 22.4073C26.9711 23.0407 26.2618 23.4119 25.3462 23.164C25.4354 23.3067 25.661 23.4505 26.0905 23.6331C25.994 23.6657 25.7925 23.6524 25.5995 23.5992C24.86 23.3961 24.2822 22.7071 24.2074 21.9442C24.2038 21.9031 24.1676 21.8536 24.1314 21.8306C23.9637 21.7206 23.837 21.5791 23.7514 21.3845C23.7755 21.3881 23.7888 21.3869 23.8008 21.3918C24.2677 21.5804 24.7068 21.4909 25.1109 21.2298ZM25.1085 5.39297H21.5209V3.59531H25.1085V5.39297Z" fill="#D10225"/>
<path d="M23.375 11.0797L24.0083 11.7144C24.0566 11.7628 24.1362 11.7628 24.1857 11.7144C24.2351 11.666 24.2339 11.5862 24.1857 11.5367L23.5523 10.902L24.1857 10.2673C24.2339 10.219 24.2339 10.1392 24.1857 10.0896C24.1374 10.04 24.0578 10.0413 24.0083 10.0896L23.375 10.7243L22.7417 10.0896C22.6934 10.0413 22.6138 10.0413 22.5644 10.0896C22.5402 10.1138 22.5282 10.1464 22.5282 10.1779C22.5282 10.2093 22.5402 10.2419 22.5644 10.2661L23.1977 10.9008L22.5644 11.5355C22.5402 11.5597 22.5282 11.5923 22.5282 11.6237C22.5282 11.6552 22.5402 11.6878 22.5644 11.712C22.6126 11.7603 22.6922 11.7603 22.7417 11.712L23.375 11.0773V11.0797Z" fill="black"/>
<path d="M22.5258 7.98247C22.5258 7.53034 22.8925 7.16162 23.3449 7.16162C23.7972 7.16162 24.1627 7.52913 24.1627 7.98247C24.1627 8.43581 23.796 8.80332 23.3449 8.80332C22.8937 8.80332 22.5258 8.43581 22.5258 7.98247ZM23.913 7.98247C23.913 7.66815 23.6585 7.41307 23.3449 7.41307C23.0312 7.41307 22.7767 7.66815 22.7767 7.98247C22.7767 8.29679 23.0312 8.55187 23.3449 8.55187C23.6585 8.55187 23.913 8.29679 23.913 7.98247Z" fill="black"/>
<path d="M22.4679 17.6707V16.249C22.4679 16.1729 22.5294 16.1112 22.6054 16.1112H24.024C24.1 16.1112 24.1615 16.1729 24.1615 16.249V17.6707C24.1615 17.7469 24.1 17.8085 24.024 17.8085H22.6054C22.5294 17.8085 22.4679 17.7469 22.4679 17.6707ZM22.7176 16.5005V17.4217C22.7176 17.4978 22.7791 17.5595 22.8551 17.5595H23.7743C23.8503 17.5595 23.9118 17.4978 23.9118 17.4217V16.5005C23.9118 16.4243 23.8503 16.3627 23.7743 16.3627H22.8551C22.7791 16.3627 22.7176 16.4243 22.7176 16.5005Z" fill="black"/>
<path d="M24.0216 14.8612L22.6066 14.8552C22.5366 14.8552 22.4727 14.8189 22.4365 14.7584C22.4003 14.698 22.3967 14.6255 22.4293 14.5626L23.1663 13.1131C23.2013 13.0442 23.2749 12.9983 23.3485 13.0031C23.4257 13.0043 23.4944 13.049 23.527 13.1192L24.2038 14.5747C24.2327 14.6376 24.2279 14.7101 24.1905 14.7681C24.1531 14.8261 24.0904 14.8612 24.0216 14.8612ZM22.6886 14.6037L23.9444 14.6097L23.3437 13.3162L22.6886 14.6037Z" fill="black"/>
<path d="M78.6429 16.1209H55.9676C55.7697 16.1209 55.6093 16.2816 55.6093 16.4799V20.2421C55.6093 20.4404 55.7697 20.6011 55.9676 20.6011H78.6429C78.8408 20.6011 79.0012 20.4404 79.0012 20.2421V16.4799C79.0012 16.2816 78.8408 16.1209 78.6429 16.1209Z" fill="#D10225"/>
<path d="M56.5768 17.6175H57.0943C57.2475 17.6175 57.385 17.6478 57.5081 17.7082C57.6311 17.7686 57.7276 17.8545 57.7988 17.9669C57.87 18.0793 57.9049 18.2099 57.9049 18.3586C57.9049 18.5073 57.87 18.6366 57.7988 18.7503C57.7288 18.8639 57.6311 18.9522 57.5081 19.0138C57.385 19.0767 57.2475 19.1069 57.0943 19.1069H56.5768V17.6187V17.6175ZM57.0919 18.7563C57.2137 18.7563 57.3126 18.7213 57.391 18.6487C57.4695 18.5774 57.5081 18.4795 57.5081 18.3562C57.5081 18.2329 57.4695 18.1337 57.3923 18.0672C57.315 18.0008 57.2149 17.9681 57.0919 17.9681H56.964V18.7551H57.0919V18.7563Z" fill="white"/>
<path d="M58.1486 17.6175H59.18V17.9669H58.5359V18.1724H58.9955V18.4976H58.5359V18.7575H59.2066V19.1069H58.1486V17.6187V17.6175Z" fill="white"/>
<path d="M59.4696 17.6175H60.478V17.9669H59.8568V18.251H60.361V18.6004H59.8568V19.1057H59.4696V17.6175Z" fill="white"/>
<path d="M60.7121 17.6175H61.0993V19.1057H60.7121V17.6175Z" fill="white"/>
<path d="M62.7351 17.6175V19.1335H62.6108L61.805 18.3513V19.1069H61.4178V17.5909H61.542L62.3479 18.3622V17.6175H62.7351Z" fill="white"/>
<path d="M63.0548 17.6175H63.442V19.1057H63.0548V17.6175Z" fill="white"/>
<path d="M64.0813 17.9669H63.6362V17.6175H64.9149V17.9669H64.4698V19.1057H64.0825V17.9669H64.0813Z" fill="white"/>
<path d="M65.1079 17.6175H65.4952V19.1057H65.1079V17.6175Z" fill="white"/>
<path d="M67.1442 17.6175L66.4687 19.1335H66.3444L65.6689 17.6175H66.108L66.4071 18.3477L66.7039 17.6175H67.143H67.1442Z" fill="white"/>
<path d="M67.3203 17.6175H68.3517V17.9669H67.7076V18.1724H68.1672V18.4976H67.7076V18.7575H68.3783V19.1069H67.3203V17.6187V17.6175Z" fill="white"/>
<path d="M69.2939 17.6175H70.3253V17.9669H69.6811V18.1724H70.1407V18.4976H69.6811V18.7575H70.3518V19.1069H69.2939V17.6187V17.6175Z" fill="white"/>
<path d="M70.616 17.6175H71.1335C71.2867 17.6175 71.4243 17.6478 71.5473 17.7082C71.6703 17.7686 71.7669 17.8545 71.838 17.9669C71.9092 18.0793 71.9442 18.2099 71.9442 18.3586C71.9442 18.5073 71.9092 18.6366 71.838 18.7503C71.7681 18.8639 71.6703 18.9522 71.5473 19.0138C71.4243 19.0767 71.2867 19.1069 71.1335 19.1069H70.616V17.6187V17.6175ZM71.1311 18.7563C71.253 18.7563 71.3519 18.7213 71.4303 18.6487C71.5087 18.5774 71.5473 18.4795 71.5473 18.3562C71.5473 18.2329 71.5087 18.1337 71.4315 18.0672C71.3543 18.0008 71.2542 17.9681 71.1311 17.9681H71.0033V18.7551H71.1311V18.7563Z" fill="white"/>
<path d="M72.1867 17.6175H72.5739V19.1057H72.1867V17.6175Z" fill="white"/>
<path d="M73.2132 17.9669H72.7681V17.6175H74.0468V17.9669H73.6017V19.1057H73.2144V17.9669H73.2132Z" fill="white"/>
<path d="M74.2398 17.6175H74.6271V19.1057H74.2398V17.6175Z" fill="white"/>
<path d="M75.6681 19.1323C75.5222 19.1323 75.3883 19.0985 75.2664 19.0308C75.1446 18.9631 75.0469 18.8712 74.9757 18.7539C74.9045 18.6366 74.8683 18.5061 74.8683 18.361C74.8683 18.2159 74.9045 18.0878 74.9757 17.9693C75.0469 17.8508 75.1434 17.7578 75.2664 17.6913C75.3883 17.6236 75.5222 17.5897 75.6681 17.5897C75.8141 17.5897 75.948 17.6236 76.071 17.6913C76.1941 17.759 76.2918 17.8521 76.3642 17.9693C76.4366 18.0878 76.4727 18.2184 76.4727 18.361C76.4727 18.5037 76.4366 18.6366 76.3642 18.7539C76.2918 18.8712 76.1941 18.9643 76.071 19.0308C75.948 19.0985 75.8141 19.1323 75.6681 19.1323ZM75.878 18.7249C75.9395 18.6898 75.9878 18.6415 76.0228 18.5798C76.0578 18.517 76.0759 18.4444 76.0759 18.3622C76.0759 18.28 76.0578 18.2087 76.0228 18.1458C75.9878 18.083 75.9395 18.0334 75.878 17.9995C75.8165 17.9657 75.7477 17.9476 75.6705 17.9476C75.5933 17.9476 75.5209 17.9645 75.4606 17.9995C75.4003 18.0346 75.3521 18.083 75.3183 18.1458C75.2833 18.2087 75.2664 18.2812 75.2664 18.3622C75.2664 18.4867 75.3038 18.5871 75.3786 18.6632C75.4534 18.7394 75.5511 18.7769 75.6705 18.7769C75.7465 18.7769 75.8165 18.76 75.878 18.7249Z" fill="white"/>
<path d="M78.0325 17.6175V19.1335H77.9083L77.1024 18.3513V19.1069H76.7152V17.5909H76.8395L77.6453 18.3622V17.6175H78.0325Z" fill="white"/>
</svg>
