<svg width="99" height="40" viewBox="0 0 99 40" fill="none" xmlns="http://www.w3.org/2000/svg">
<path d="M0 11.2354V0H4.48452V11.2354H8.96905V0H13.4536V11.2354L6.72679 17.9766L0 11.2354Z" fill="#D10225"/>
<path d="M15.6958 17.9766V0H20.1804V17.9766H15.6958Z" fill="#D10225"/>
<path d="M42.603 17.9766V4.49414H38.1185V0H51.572V4.49414H47.0875V17.9766H42.603Z" fill="#D10225"/>
<path d="M53.8143 17.9766V0H58.2988V13.4824H62.7833V0H67.2679V17.9766H53.8143Z" fill="#D10225"/>
<path d="M69.5116 17.9766V0H82.9652V17.9766H78.4807V11.2354H73.9961V17.9766H69.5116ZM78.4807 6.74122V4.49414H73.9961V6.74122H78.4807Z" fill="#D10225"/>
<path d="M85.2075 17.9766V0H89.692V13.4824H98.661V17.9766H85.2075Z" fill="#D10225"/>
<path d="M6.72679 24.5576L4.19802 22.0234H0V40H4.48452V33.2588H8.96905V40H13.4551V33.2588L12.3332 32.136L13.443 31.0117H13.4566V22.0234H9.25706L6.72829 24.5576H6.72679ZM8.96905 28.7646H4.48452V26.5176H8.96905V28.7646Z" fill="#D10225"/>
<path d="M20.1819 22.0234H15.6958V40H20.1819V22.0234Z" fill="#D10225"/>
<path d="M38.1185 40H42.603V33.2588H47.089V40H51.5735V22.0234H38.12V40H38.1185ZM42.603 26.5176H47.089V28.7646H42.603V26.5176Z" fill="#D10225"/>
<path d="M58.2988 35.5043V22.0234H53.8158V40H67.2694V35.5043H58.2988Z" fill="#D10225"/>
<path d="M32.8892 34.9482C32.8742 35.3321 32.8691 35.9955 32.8736 36.3809C32.8751 36.4156 32.8606 36.4475 32.8365 36.4717L29.276 39.8789C29.2052 39.9468 29.0939 39.9471 29.023 39.8779L25.4488 36.4062C25.4234 36.3821 25.4088 36.3476 25.4088 36.3115C25.4073 35.9594 25.3959 35.377 25.4019 35.0098C25.4022 34.9829 25.4293 34.9635 25.4547 34.9736L26.1422 35.5176C26.1557 35.5221 26.1655 35.5343 26.1685 35.5479C26.2153 35.9361 26.4064 36.3881 26.5406 36.8896L26.5728 36.8867L26.5855 35.6602C26.5855 35.6481 26.598 35.6402 26.6099 35.6445L27.2906 35.9121L27.6236 37.9795H27.6265L27.7955 36.1543C27.7985 36.1331 27.8194 36.1213 27.8375 36.1289L28.8189 36.5156C28.8355 36.5217 28.8477 36.5366 28.8492 36.5547C28.9457 37.4523 29.0407 38.6434 29.1236 39.0938C29.166 39.2037 29.3003 37.6337 29.4283 36.5332L30.3599 36.165C30.3871 36.1545 30.4175 36.1725 30.4205 36.2012C30.4718 36.718 30.5657 37.7378 30.5748 37.9766C30.5748 37.9796 30.5791 37.9796 30.5806 37.9766L30.9771 35.9219L31.6285 35.6641C31.6526 35.6552 31.6796 35.6707 31.6842 35.6963V36.8779C31.7309 36.8825 32.0898 35.78 32.0855 35.5801C32.0855 35.559 32.0911 35.5404 32.106 35.5283L32.8502 34.9258C32.8727 34.9169 32.8892 34.9257 32.8892 34.9482ZM35.8697 8.98828H35.858L34.7496 10.1123L35.8697 11.2354V21.1504C35.0555 19.9415 33.916 19.0313 32.482 18.4072C32.4263 18.3816 32.3659 18.3649 32.3072 18.3438C34.3155 19.3547 35.3902 21.014 35.8697 22.4873V24.3203C34.8866 23.4758 33.5012 23.3638 32.3463 24.0391C31.6195 24.4622 31.0438 25.0476 30.5054 25.6777C30.4979 25.6883 30.4946 25.7031 30.4781 25.7422C30.7042 25.5957 30.9006 25.4613 31.1041 25.3359C31.6951 24.9688 32.304 24.6347 32.9869 24.4609C34.0468 24.1905 35.1459 24.5033 35.8697 25.2451V27.5303C35.8456 27.4563 35.8216 27.3806 35.7974 27.3066C35.7793 28.322 35.5267 29.2744 35.1422 30.2021C35.3139 30.0889 35.4839 29.9738 35.6617 29.8545C35.7205 29.9346 35.777 30.0051 35.8267 30.0791C35.8432 30.1016 35.8562 30.1216 35.8697 30.1396V30.6445C35.8441 30.6717 35.8153 30.7031 35.7838 30.7393C35.5185 31.0323 35.2114 31.2803 34.8844 31.5039C34.3204 30.626 33.3184 30.4193 32.6519 30.6777C31.8952 30.9725 31.6131 31.7491 31.6597 32.4033C32.0171 31.1023 33.4351 30.994 33.984 31.4941C33.6613 31.754 33.3747 32.0456 33.1666 32.4053C32.9435 32.7891 32.7867 33.1851 32.8365 33.6475C32.8666 33.9284 32.8425 34.2141 32.8365 34.498C32.8365 34.5479 32.8227 34.6143 32.7896 34.6445C32.5876 34.838 32.3779 35.0242 32.1578 35.2236C32.1246 35.2522 32.0717 35.2366 32.0611 35.1943C31.9315 34.6972 31.8064 34.2182 31.6812 33.7393C31.6497 33.789 31.65 33.8327 31.65 33.8779C31.6424 34.3192 31.6342 34.7609 31.6236 35.2021C31.6221 35.2309 31.6176 35.2672 31.607 35.2959C31.598 35.317 31.5873 35.3333 31.5738 35.3408C31.3552 35.4496 31.1289 35.5484 30.8922 35.6572C30.7534 34.9984 30.6196 34.3618 30.4869 33.7256C30.4644 33.7497 30.4615 33.7709 30.4615 33.792C30.4329 34.3948 30.4072 34.9978 30.3756 35.6006C30.3725 35.6429 30.3389 35.7116 30.3072 35.7207C30.0194 35.8083 29.7271 35.8853 29.4273 35.9668C29.3323 35.2173 29.2396 34.4753 29.1461 33.7334H29.1129C29.0194 34.4827 28.9266 35.2336 28.8316 35.998C28.5286 35.9059 28.245 35.8183 27.9586 35.7383C27.8833 35.7172 27.862 35.6812 27.859 35.6074C27.8394 35.0212 27.8147 34.4362 27.7906 33.8516C27.7891 33.8214 27.7834 33.7909 27.7789 33.7607C27.7715 33.7622 27.7639 33.7617 27.7564 33.7617C27.6177 34.3873 27.4782 35.0132 27.3365 35.6494C27.1331 35.5558 26.9541 35.4587 26.7642 35.3877C26.6346 35.3393 26.6021 35.2701 26.6021 35.1387C26.6112 34.6688 26.606 34.1989 26.606 33.7275L26.5738 33.7227C26.4426 34.2182 26.3135 34.7124 26.1793 35.2246C26.1718 35.2502 26.1398 35.261 26.1187 35.2432C25.8925 35.0467 25.6812 34.8662 25.4762 34.6758C25.434 34.6364 25.4034 34.5594 25.4019 34.499C25.3959 34.212 25.4019 33.9233 25.4019 33.6348C25.402 33.4959 25.4206 33.354 25.3951 33.2197C25.273 32.5821 24.9215 32.0783 24.439 31.6582C24.3728 31.5993 24.3076 31.5408 24.2398 31.4805C24.9244 30.9319 26.2602 31.204 26.5709 32.4023C26.6282 31.81 26.3779 31.0432 25.6978 30.7334C25.3345 30.5672 24.9607 30.5271 24.5748 30.6191C24.0546 30.7431 23.6557 31.0419 23.3707 31.5059C23.2864 31.4485 23.2067 31.3986 23.1314 31.3428C22.8736 31.1524 22.6262 30.9468 22.4166 30.7051V30.0869C22.4739 30.0053 22.5331 29.9239 22.5904 29.8408C22.7576 29.9525 22.9118 30.0565 23.067 30.1592C22.7156 29.2374 22.4457 28.3113 22.4517 27.3154C22.4412 27.3547 22.4286 27.3924 22.4166 27.4316V25.1953C23.0589 24.5606 23.994 24.2403 24.9078 24.3809C25.5636 24.4821 26.1516 24.7463 26.7154 25.0771C27.0697 25.2856 27.4164 25.51 27.7662 25.7275C27.5778 25.4949 27.3854 25.2648 27.1744 25.0518C26.6302 24.5018 26.0298 24.0351 25.2896 23.7676C24.2854 23.4049 23.1947 23.613 22.4166 24.2959V22.3438C22.5824 21.8693 22.8011 21.4115 23.0679 20.9688C23.751 19.8354 24.694 18.9706 25.9049 18.3828C25.8732 18.3753 25.8621 18.3706 25.856 18.3721C25.8169 18.3857 25.7794 18.4 25.7418 18.415C24.534 18.9137 23.5268 19.6751 22.7262 20.7041C22.6162 20.843 22.5145 20.9849 22.4166 21.1299V0H35.8697V8.98828ZM35.8697 33.2588L33.3795 35.7549C33.4066 35.5253 33.4334 35.294 33.4605 35.0645C33.4877 34.8227 33.5301 34.5825 33.5377 34.3408C33.5467 34.0794 33.5118 33.8175 33.5133 33.5576C33.5148 33.4202 33.536 33.2783 33.5797 33.1484C33.7199 32.733 33.9837 32.3976 34.3033 32.1045C34.3274 32.0818 34.356 32.0633 34.3922 32.0361C34.4691 32.2008 34.5405 32.3537 34.6129 32.5078C35.059 32.2405 35.4853 31.9607 35.8697 31.627V33.2588ZM22.4166 31.6387C22.7287 31.9046 23.0667 32.1407 23.4166 32.3613C23.4858 32.405 23.5597 32.447 23.6334 32.4922C23.7117 32.3278 23.781 32.1799 23.8472 32.0381C23.8699 32.0381 23.8765 32.0366 23.8795 32.0381C23.8913 32.044 23.9033 32.0498 23.9137 32.0586C24.4263 32.5346 24.8246 33.0628 24.7447 33.8184C24.7236 34.0328 24.7006 34.2519 24.7232 34.4648C24.7669 34.8804 24.816 35.2974 24.8658 35.7129L22.4166 33.2588V31.6387ZM29.2086 27.7412C29.2086 27.785 29.2071 27.8278 29.2086 27.8701C29.2191 28.6663 29.2206 29.4626 29.2447 30.2588C29.2628 30.8329 29.3019 31.4073 29.3502 31.9814C29.3698 32.2066 29.4665 32.4156 29.649 32.5713C29.9068 32.7915 30.2968 32.7555 30.4732 32.4658C30.5697 32.3056 30.6425 32.1131 30.6666 31.9287C30.7283 31.4664 30.5789 31.0373 30.3814 30.6279C30.0301 29.9026 29.6968 29.1695 29.442 28.4033C29.3696 28.1828 29.3029 27.9608 29.232 27.7402C29.2247 27.7403 29.2159 27.7412 29.2086 27.7412ZM29.0181 27.7764C28.7483 28.6452 28.4381 29.4976 28.025 30.3105C27.8455 30.6642 27.6735 31.0226 27.6012 31.417C27.5364 31.7628 27.5403 32.0996 27.733 32.4092C27.843 32.5844 27.9958 32.704 28.2174 32.7041C28.4887 32.7056 28.7228 32.5547 28.8209 32.248C28.9038 31.9896 28.9674 31.7158 28.984 31.4453C29.0186 30.8122 29.0257 30.1776 29.0347 29.543C29.0423 28.9461 29.0367 28.3477 29.0367 27.7402C29.0292 27.7538 29.0227 27.7643 29.0181 27.7764ZM29.4888 32.1299C29.6607 32.3958 29.8672 32.5366 30.1793 32.4053C30.1204 32.5139 30.0029 32.5708 29.8853 32.5557C29.6927 32.53 29.5374 32.3694 29.4888 32.1299ZM28.7418 32.1758C28.695 32.3568 28.6019 32.4957 28.4107 32.541C28.266 32.5743 28.1481 32.5245 28.026 32.3779C28.3567 32.5326 28.5702 32.4214 28.7418 32.1758ZM34.5836 25.3145C33.8901 25.0804 33.254 25.2317 32.6676 25.626C32.2333 25.9191 31.8271 26.253 31.3883 26.5371C30.8832 26.8634 30.3349 26.9748 29.7515 26.7393C29.7365 26.7332 29.7192 26.735 29.689 26.7305C29.7961 26.9738 29.955 27.1506 30.1646 27.2881C30.2098 27.3169 30.2548 27.3794 30.2594 27.4307C30.353 28.384 31.0754 29.2452 31.9996 29.499C32.2407 29.5655 32.4922 29.5818 32.6129 29.541C32.0762 29.3129 31.7938 29.1334 31.6822 28.9551C32.8267 29.2649 33.7141 28.8006 34.4937 28.0088C34.352 28.4197 34.1076 28.7644 33.7896 29.0605C34.165 28.8851 34.6279 28.4277 34.8736 27.9775C35.2355 27.3096 35.3013 26.6034 35.1324 25.8584C35.2726 25.9944 35.4132 26.1321 35.5504 26.2666C35.5474 26.256 35.5456 26.2338 35.5367 26.2158C35.3452 25.7821 35.0405 25.4686 34.5836 25.3145ZM24.8228 25.2803C24.2318 25.1323 23.6751 25.1935 23.1851 25.5879C22.9786 25.7526 22.7631 26.0813 22.733 26.2656C22.8762 26.116 23.0171 25.9688 23.1558 25.8223C22.7367 27.3906 23.594 28.5589 24.3961 29.0078C24.274 28.8538 24.1341 28.7013 24.0211 28.5322C23.908 28.3615 23.8203 28.1735 23.7222 27.9922C24.5305 28.7931 25.4266 29.2708 26.6148 28.9414C26.3072 29.2225 25.9918 29.4477 25.5982 29.5459C25.6344 29.558 25.6695 29.5605 25.7027 29.5605C26.8258 29.5498 27.8496 28.6257 27.9674 27.5107C27.9794 27.3899 28.0159 27.3091 28.1275 27.2441C28.3232 27.1278 28.4663 26.9572 28.5582 26.7188C27.8088 27.0269 27.1814 26.7891 26.5933 26.3555C26.4186 26.2271 26.248 26.0932 26.0748 25.9648C25.6888 25.6807 25.2978 25.3997 24.8228 25.2803ZM28.2564 20.1387C28.1616 20.1388 28.0845 20.2164 28.0845 20.3115V22.0889C28.0848 22.1838 28.1617 22.2606 28.2564 22.2607H30.0299C30.1247 22.2607 30.2015 22.1839 30.2017 22.0889V20.3115C30.2017 20.2163 30.1249 20.1387 30.0299 20.1387H28.2564ZM29.7183 20.4531C29.8131 20.4534 29.8902 20.5309 29.8902 20.626V21.7773C29.8901 21.8723 29.8131 21.949 29.7183 21.9492H28.5689C28.474 21.9492 28.3972 21.8724 28.397 21.7773V20.626C28.397 20.5308 28.4739 20.4531 28.5689 20.4531H29.7183ZM29.1851 16.2539C29.0933 16.2481 29.0012 16.3056 28.9576 16.3916L28.0367 18.2031C27.996 18.2817 28.0002 18.3727 28.0455 18.4482C28.0907 18.5238 28.1709 18.5693 28.2584 18.5693L30.0269 18.5762C30.1129 18.5762 30.1911 18.5325 30.2379 18.46C30.2846 18.3875 30.2905 18.2973 30.2545 18.2188L29.4088 16.3994C29.3681 16.3118 29.2816 16.2554 29.1851 16.2539ZM29.9303 18.2617L28.3609 18.2549L29.1793 16.6455L29.9303 18.2617ZM30.232 12.6123C30.1717 12.5503 30.0722 12.5519 30.0103 12.6123L29.2183 13.4053L28.4273 12.6123C28.367 12.5519 28.2675 12.5519 28.2056 12.6123C28.1755 12.6425 28.1597 12.6834 28.1597 12.7227C28.1598 12.7618 28.1756 12.8029 28.2056 12.833L28.9967 13.626L28.2056 14.4189C28.1756 14.4491 28.1598 14.4901 28.1597 14.5293C28.1597 14.5686 28.1755 14.6094 28.2056 14.6396C28.266 14.7001 28.3655 14.7001 28.4273 14.6396L29.2183 13.8467V13.8496L30.0103 14.6426C30.0706 14.703 30.1702 14.703 30.232 14.6426C30.2937 14.5821 30.2923 14.4828 30.232 14.4209L29.44 13.6279L30.232 12.834C30.2923 12.7736 30.2922 12.6743 30.232 12.6123ZM29.1812 8.95215C28.6158 8.95215 28.1568 9.41335 28.1568 9.97852C28.157 10.545 28.6174 11.0039 29.1812 11.0039C29.745 11.0038 30.2035 10.545 30.2037 9.97852C30.2037 9.41188 29.7466 8.95223 29.1812 8.95215ZM29.1812 9.2666C29.5732 9.26668 29.8912 9.58567 29.8912 9.97852C29.891 10.3712 29.5731 10.6894 29.1812 10.6895C28.7893 10.6895 28.4715 10.3712 28.4713 9.97852C28.4713 9.58562 28.7892 9.2666 29.1812 9.2666ZM26.901 6.74121H31.3853V4.49414H26.901V6.74121Z" fill="#D10225"/>
<path d="M98.3036 20.1511C98.551 20.1511 98.7519 20.3525 98.7519 20.6003V25.3025C98.7519 25.5503 98.551 25.7517 98.3036 25.7517H69.9599C69.7125 25.7517 69.5116 25.5503 69.5116 25.3025V20.6003C69.5116 20.3525 69.7125 20.1511 69.9599 20.1511H98.3036ZM76.7724 23.8835H77.2558V22.9392L78.2636 23.9167H78.4189V22.0222H77.9345V22.9529L76.9276 21.989H76.7724V23.8835ZM82.9306 23.9167H83.0858L83.9306 22.0222H83.3798L83.0087 22.9343L82.6347 22.0222H82.0858L82.9306 23.9167ZM95.8944 21.989V23.8835H96.3778V22.9392L97.3857 23.9167H97.5409V22.0222H97.0565V22.9529L96.0497 21.989H95.8944ZM94.5849 21.987C94.4025 21.9871 94.2351 22.0294 94.0829 22.114C93.9291 22.1971 93.8086 22.3136 93.7196 22.4617C93.6307 22.6097 93.5859 22.7697 93.5858 22.9509C93.5858 23.1322 93.6307 23.2956 93.7196 23.4421C93.8086 23.5887 93.9306 23.7042 94.0829 23.7888C94.2351 23.8734 94.4026 23.9157 94.5849 23.9158C94.7673 23.9158 94.935 23.8734 95.0888 23.7888C95.2426 23.7057 95.3645 23.5887 95.455 23.4421C95.5454 23.2956 95.5907 23.1292 95.5907 22.9509C95.5907 22.7727 95.5454 22.6096 95.455 22.4617C95.3645 22.3151 95.2425 22.1986 95.0888 22.114C94.935 22.0294 94.7673 21.987 94.5849 21.987ZM70.7206 23.8835H71.3681C71.5594 23.8835 71.731 23.8458 71.8847 23.7673C72.0385 23.6903 72.1615 23.5802 72.2489 23.4382C72.3379 23.2962 72.3808 23.1339 72.3808 22.948C72.3807 22.7623 72.3377 22.5991 72.2489 22.4587C72.16 22.3182 72.0385 22.211 71.8847 22.1355C71.731 22.06 71.5594 22.0222 71.3681 22.0222H70.7206V23.8835ZM72.6855 23.8835H74.0077V23.447H73.1698V23.1218H73.744V22.7156H73.1698V22.4587H73.9755V22.0222H72.6855V23.8835ZM84.1503 23.8835H85.4726V23.447H84.6347V23.1218H85.2089V22.7156H84.6347V22.4587H85.4394V22.0222H84.1503V23.8835ZM86.6171 23.8835H87.9394V23.447H87.1015V23.1218H87.6757V22.7156H87.1015V22.4587H87.9062V22.0222H86.6171V23.8835ZM88.2704 23.8835H88.9169C89.1084 23.8835 89.2807 23.8459 89.4345 23.7673C89.5881 23.6903 89.7104 23.5801 89.7978 23.4382C89.8867 23.2962 89.9306 23.1339 89.9306 22.948C89.9305 22.7623 89.8866 22.5992 89.7978 22.4587C89.7089 22.3183 89.5881 22.211 89.4345 22.1355C89.2807 22.0599 89.1084 22.0222 88.9169 22.0222H88.2704V23.8835ZM74.3368 23.8826H74.8212V23.2507H75.4511V22.8142H74.8212V22.4587H75.5976V22.0222H74.3368V23.8826ZM75.8905 23.8826H76.3739V22.0222H75.8905V23.8826ZM78.8183 23.8826H79.3026V22.0222H78.8183V23.8826ZM79.5448 22.4587H80.1034V23.8826H80.5868V22.4587H81.1435V22.0222H79.5448V22.4587ZM81.3847 23.8826H81.869V22.0222H81.3847V23.8826ZM90.2333 23.8826H90.7177V22.0222H90.2333V23.8826ZM90.9599 22.4587H91.5185V23.8826H92.0019V22.4587H92.5585V22.0222H90.9599V22.4587ZM92.7997 23.8826H93.2841V22.0222H92.7997V23.8826ZM94.5878 22.4343C94.6843 22.4343 94.7707 22.4574 94.8476 22.4997C94.9244 22.542 94.9845 22.6039 95.0282 22.6824C95.072 22.7609 95.0946 22.8501 95.0946 22.9529C95.0946 23.0555 95.0719 23.1458 95.0282 23.2243C94.9845 23.3014 94.9244 23.3622 94.8476 23.406C94.7707 23.4498 94.6828 23.4714 94.5878 23.4714C94.4387 23.4713 94.317 23.4239 94.2235 23.3288C94.1301 23.2337 94.0829 23.1085 94.0829 22.9529C94.0829 22.8517 94.1037 22.7609 94.1474 22.6824C94.1896 22.6038 94.2507 22.5436 94.3261 22.4997C94.4014 22.456 94.4915 22.4344 94.5878 22.4343ZM71.3651 22.4597C71.5187 22.4598 71.6437 22.5008 71.7401 22.5837C71.8366 22.6668 71.8846 22.791 71.8847 22.9451C71.8847 23.0992 71.8372 23.2221 71.7392 23.3113C71.6412 23.4019 71.5173 23.445 71.3651 23.4451V23.4441H71.205V22.4597H71.3651ZM88.914 22.4597C89.0675 22.4597 89.1925 22.5008 89.289 22.5837C89.3854 22.6668 89.4344 22.791 89.4345 22.9451C89.4345 23.0992 89.386 23.2221 89.288 23.3113C89.19 23.4019 89.0662 23.445 88.914 23.4451V23.4441H88.7538V22.4597H88.914Z" fill="#D10225"/>
</svg>
